<svg width="24" height="24" viewBox="0 0 24 24" fill="none" xmlns="http://www.w3.org/2000/svg">
<path d="M2.41172 19.3106C2.45405 19.9007 2.70761 20.4558 3.12593 20.8741C3.54425 21.2924 4.0993 21.5459 4.68937 21.5883C6.24375 21.712 8.67844 21.8438 12 21.8438C15.3211 21.8438 17.7563 21.712 19.3106 21.5883C19.9007 21.5459 20.4558 21.2924 20.8741 20.8741C21.2924 20.4558 21.5459 19.9007 21.5883 19.3106C21.712 17.7563 21.8438 15.3216 21.8438 12C21.8438 8.67891 21.712 6.24375 21.5883 4.68937C21.5459 4.0993 21.2924 3.54425 20.8741 3.12593C20.4558 2.70761 19.9007 2.45405 19.3106 2.41172C17.7563 2.28797 15.3216 2.15625 12 2.15625C8.67891 2.15625 6.24375 2.28797 4.68937 2.41172C4.0993 2.45405 3.54425 2.70761 3.12593 3.12593C2.70761 3.54425 2.45405 4.0993 2.41172 4.68937C2.28797 6.24375 2.15625 8.67844 2.15625 12C2.15625 15.3211 2.28797 17.7563 2.41172 19.3106Z" stroke="#413426" stroke-width="1.5" stroke-linecap="round"/>
<path d="M15.1294 2.198C15.1083 4.19487 14.9634 6.23769 14.8795 7.27503C14.8733 7.35157 14.8481 7.42537 14.8063 7.48975C14.7644 7.55414 14.7072 7.60709 14.6397 7.64383C14.5723 7.68057 14.4968 7.69995 14.42 7.70021C14.3432 7.70048 14.2675 7.68162 14.1998 7.64534L12.1092 6.53956C12.0755 6.52175 12.0379 6.51243 11.9997 6.51243C11.9616 6.51243 11.924 6.52175 11.8903 6.53956L9.80061 7.64581C9.73292 7.68209 9.65726 7.70095 9.58047 7.70068C9.50367 7.70042 9.42815 7.68104 9.36071 7.6443C9.29327 7.60756 9.23604 7.55461 9.19418 7.49022C9.15231 7.42584 9.12714 7.35204 9.12092 7.2755C9.03654 6.23769 8.89217 4.19487 8.87061 2.198" stroke="#413426" stroke-width="1.5" stroke-linecap="round" stroke-linejoin="round"/>
<path d="M17.625 17.625H13.4062" stroke="#413426" stroke-width="1.5" stroke-linecap="round"/>
<path d="M17.625 13.875H15.2812" stroke="#413426" stroke-width="1.5" stroke-linecap="round"/>
</svg>
