<svg width="16" height="16" viewBox="0 0 16 16" fill="none" xmlns="http://www.w3.org/2000/svg">
<path d="M12.4155 5.12246C12.3089 5.01889 12.1594 4.97183 12.0131 4.99589C11.8665 5.01986 11.7399 5.11189 11.6719 5.24396C11.438 5.6983 11.1409 6.11583 10.7914 6.48493C10.8263 6.2183 10.8438 5.95008 10.8438 5.68114C10.8438 5.16511 10.7747 4.63408 10.6382 4.10261C10.1895 2.35696 9.01295 0.880676 7.41029 0.0523318C7.27076 -0.019762 7.10451 -0.0172307 6.96723 0.0590818C6.82994 0.135426 6.74004 0.275394 6.72773 0.431957C6.60279 2.01833 5.78566 3.46158 4.48463 4.39258C4.46741 4.40499 4.45032 4.41755 4.43323 4.43005C4.39782 4.45596 4.36444 4.48046 4.33326 4.50102C4.32838 4.50427 4.32354 4.50758 4.31879 4.51099C3.50054 5.09683 2.82538 5.87777 2.36623 6.76961C1.89966 7.67677 1.6631 8.65024 1.6631 9.6629C1.6631 10.1788 1.73226 10.7098 1.86866 11.2414C2.58851 14.0431 5.10988 16 8.0002 16C11.4943 16 14.3369 13.1571 14.3369 9.6629C14.3369 7.93977 13.6545 6.32727 12.4155 5.12246Z" fill="#816951"/>
</svg>
