<svg width="28" height="28" viewBox="0 0 28 28" fill="none" xmlns="http://www.w3.org/2000/svg">
<g clip-path="url(#clip0_2_30)">
<circle cx="14" cy="14" r="14" fill="#2396FD"/>
<path fill-rule="evenodd" clip-rule="evenodd" d="M13.9999 7C13.447 7 12.9992 7.42064 12.9992 7.93976V11.3879C12.9992 11.9073 13.447 12.3284 13.9999 12.3284C14.5525 12.3284 14.9998 11.9073 14.9998 11.3879V7.93976C14.9998 7.42064 14.5525 7 13.9999 7ZM7.13735 11.6304C6.7489 11.6618 6.39934 11.906 6.27134 12.2766C6.10097 12.7707 6.38799 13.3013 6.91341 13.4618L10.402 14.5274C10.9274 14.6879 11.4921 14.4176 11.663 13.9237C11.8337 13.4299 11.5462 12.899 11.0202 12.7386L7.53166 11.6736C7.40031 11.6335 7.26683 11.62 7.13735 11.6304ZM20.8624 11.6312C20.733 11.6207 20.5995 11.6334 20.4681 11.6736L16.9796 12.7393C16.4542 12.8997 16.1669 13.4306 16.3375 13.9245C16.5085 14.4183 17.0724 14.6881 17.5978 14.5275L21.0864 13.4625C21.6118 13.3021 21.8994 12.7712 21.7284 12.2774C21.6007 11.907 21.2509 11.6627 20.8624 11.6312ZM12.0001 16.33C11.6792 16.3197 11.3584 16.4544 11.1556 16.7171L9.00029 19.5069C8.67555 19.9274 8.77491 20.5158 9.222 20.8208C9.66853 21.1258 10.2947 21.0318 10.6192 20.6121L12.7745 17.8216C13.0996 17.4017 12.9994 16.8144 12.5521 16.5091C12.3847 16.3947 12.1926 16.3361 12.0001 16.33ZM16.0005 16.33C15.8079 16.3361 15.6154 16.3947 15.4477 16.5091C15.0009 16.8144 14.9012 17.4017 15.226 17.8216L17.3813 20.6121C17.7058 21.0318 18.332 21.1258 18.7785 20.8208C19.2256 20.5158 19.325 19.9274 19.0002 19.5069L16.8449 16.7171C16.6421 16.4544 16.3215 16.3197 16.0005 16.33Z" fill="white"/>
</g>
<defs>
<clipPath id="clip0_2_30">
<rect width="28" height="28" fill="white"/>
</clipPath>
</defs>
</svg>
