<svg width="24" height="24" viewBox="0 0 24 24" fill="none" xmlns="http://www.w3.org/2000/svg">
<g clip-path="url(#clip0_8_373)">
<path d="M11.6478 21.636C10.4219 22.7465 8.55609 22.7808 7.25008 21.7656C6.33119 21.0514 5.40707 20.3001 4.55337 19.4463C3.69968 18.5926 2.94836 17.6686 2.23413 16.7497C1.21901 15.4437 1.25329 13.5779 2.36382 12.352C4.73922 9.72971 7.21482 7.30557 9.90894 4.96122C10.4091 4.52599 11.0264 4.25148 11.6867 4.19203C13.6328 4.01683 17.8216 3.79591 19.0126 4.98705C20.2039 6.17819 19.9829 10.367 19.8077 12.3131C19.7482 12.9734 19.4738 13.5907 19.0385 14.0908C16.6942 16.785 14.27 19.2605 11.6478 21.636Z" stroke="#413426" stroke-width="1.5" stroke-linecap="round" stroke-linejoin="round"/>
<path d="M22.5 1.5L15.6815 8.31854" stroke="#413426" stroke-width="1.5" stroke-linecap="round" stroke-linejoin="round"/>
</g>
<defs>
<clipPath id="clip0_8_373">
<rect width="24" height="24" fill="white"/>
</clipPath>
</defs>
</svg>
