<svg width="20" height="20" viewBox="0 0 20 20" fill="none" xmlns="http://www.w3.org/2000/svg">
<path d="M17.6142 9.59917L15.3425 8.95C14.3195 8.66159 13.3876 8.11548 12.6361 7.36392C11.8845 6.61235 11.3384 5.68049 11.05 4.6575L10.4008 2.38583C10.3682 2.30636 10.3126 2.23838 10.2413 2.19054C10.1699 2.1427 10.0859 2.11715 10 2.11715C9.91408 2.11715 9.8301 2.1427 9.75873 2.19054C9.68735 2.23838 9.63182 2.30636 9.59917 2.38583L8.95 4.6575C8.66159 5.68049 8.11548 6.61235 7.36392 7.36392C6.61235 8.11548 5.68049 8.66159 4.6575 8.95L2.38584 9.59917C2.29861 9.62393 2.22184 9.67646 2.16718 9.7488C2.11251 9.82114 2.08294 9.90933 2.08294 10C2.08294 10.0907 2.11251 10.1789 2.16718 10.2512C2.22184 10.3235 2.29861 10.3761 2.38584 10.4008L4.6575 11.05C5.68049 11.3384 6.61235 11.8845 7.36392 12.6361C8.11548 13.3876 8.66159 14.3195 8.95 15.3425L9.59917 17.6142C9.62393 17.7014 9.67646 17.7782 9.7488 17.8328C9.82114 17.8875 9.90933 17.9171 10 17.9171C10.0907 17.9171 10.1789 17.8875 10.2512 17.8328C10.3235 17.7782 10.3761 17.7014 10.4008 17.6142L11.05 15.3425C11.3384 14.3195 11.8845 13.3876 12.6361 12.6361C13.3876 11.8845 14.3195 11.3384 15.3425 11.05L17.6142 10.4008C17.7014 10.3761 17.7782 10.3235 17.8328 10.2512C17.8875 10.1789 17.9171 10.0907 17.9171 10C17.9171 9.90933 17.8875 9.82114 17.8328 9.7488C17.7782 9.67646 17.7014 9.62393 17.6142 9.59917Z" fill="#816951"/>
</svg>
