<svg width="28" height="28" viewBox="0 0 28 28" fill="none" xmlns="http://www.w3.org/2000/svg">
<g clip-path="url(#clip0_6_208)">
<circle cx="14" cy="14" r="14" fill="#834995"/>
<g clip-path="url(#clip1_6_208)">
<path d="M20.5071 15.1042C20.9247 11.5885 20.3064 9.36892 19.1911 8.365L19.1917 8.36442C17.3915 6.65 11.312 6.39625 9.15832 8.44142C8.19115 9.44183 7.85049 10.9101 7.81315 12.7277C7.77582 14.546 7.73149 17.9521 10.9054 18.8761H10.9083L10.9054 20.2872C10.9054 20.2872 10.8838 20.8588 11.249 20.9738C11.6667 21.1091 11.8557 20.8437 13.1547 19.292C15.3271 19.4804 16.9954 19.0488 17.185 18.9858C17.6237 18.8388 20.1057 18.5103 20.5071 15.1042ZM13.3688 18.2992C13.3688 18.2992 11.9939 20.0136 11.5663 20.4587C11.4263 20.6033 11.2729 20.5899 11.2752 20.3029C11.2752 20.1145 11.2857 17.9602 11.2857 17.9602C8.59482 17.1891 8.75349 14.2887 8.78265 12.7715C8.81182 11.2537 9.08949 10.0106 9.90849 9.1735C11.7979 7.40192 17.1278 7.798 18.4858 9.07433C20.146 10.5461 19.5551 14.7041 19.5586 14.8458C19.2173 17.689 17.206 17.8693 16.8362 17.9923C16.6781 18.0448 15.211 18.4223 13.3688 18.2992Z" fill="white"/>
<path d="M14.1295 9.50658C13.9049 9.50658 13.9049 9.85658 14.1295 9.8595C15.8719 9.87292 17.3069 11.0874 17.3227 13.3152C17.3227 13.5503 17.6668 13.5473 17.6639 13.3123C17.6452 10.9118 16.0778 9.52 14.1295 9.50658Z" fill="white"/>
<path d="M16.4214 12.9459C16.4162 13.1781 16.7597 13.1892 16.7627 12.9541C16.7912 11.6305 15.9752 10.5402 14.4416 10.4253C14.217 10.409 14.1937 10.7619 14.4177 10.7782C15.7477 10.8792 16.4482 11.7868 16.4214 12.9459Z" fill="white"/>
<path d="M16.0539 14.4515C15.7657 14.2847 15.4723 14.3885 15.351 14.5524L15.0972 14.8808C14.9683 15.0477 14.7274 15.0255 14.7274 15.0255C12.9692 14.5606 12.4991 12.7207 12.4991 12.7207C12.4991 12.7207 12.4775 12.4717 12.6385 12.3381L12.9558 12.0756C13.1145 11.9496 13.2148 11.6462 13.0532 11.3482C12.6216 10.5682 12.3316 10.2993 12.1841 10.0928C12.0289 9.89858 11.7956 9.85483 11.5529 9.98608H11.5476C11.0431 10.2812 10.4906 10.8337 10.6674 11.4024C10.969 12.0021 11.5231 13.9137 13.2895 15.358C14.1196 16.0411 15.4332 16.7411 15.9909 16.9027L15.9961 16.9108C16.5456 17.094 17.08 16.52 17.3652 16.0002V15.9962C17.4918 15.7447 17.4498 15.5067 17.2649 15.351C16.9371 15.0313 16.4424 14.6784 16.0539 14.4515Z" fill="white"/>
<path d="M14.6819 11.7273C15.2425 11.76 15.5143 12.0528 15.5435 12.6542C15.554 12.8893 15.8952 12.873 15.8847 12.6379C15.8474 11.8527 15.4379 11.4152 14.7006 11.3744C14.476 11.361 14.455 11.7139 14.6819 11.7273Z" fill="white"/>
</g>
</g>
<defs>
<clipPath id="clip0_6_208">
<rect width="28" height="28" fill="white"/>
</clipPath>
<clipPath id="clip1_6_208">
<rect width="14" height="14" fill="white" transform="translate(7 7)"/>
</clipPath>
</defs>
</svg>
