<svg width="28" height="28" viewBox="0 0 28 28" fill="none" xmlns="http://www.w3.org/2000/svg">
<path d="M13.6296 0H14.4562C16.2832 0.0838976 18.0266 0.494018 19.6864 1.23036C16.4265 1.20511 13.539 2.14183 11.0237 4.04052C7.55687 6.65886 5.43344 11.2516 6.50617 15.5549C7.22623 18.4469 9.42068 20.8551 12.3376 21.5808C17.3266 22.8234 21.8478 18.8855 21.6334 13.9274C21.4669 10.0763 18.9871 8.13114 15.4873 7.17324C15.4456 7.16103 15.4244 7.13333 15.4236 7.09016C15.3905 4.37774 17.2249 2.09785 19.8211 1.39775C19.8562 1.38798 19.8717 1.3615 19.8676 1.31833C23.3283 2.75885 26.0162 6.02719 27.22 9.43115C29.8651 16.9111 25.5411 25.2695 17.9021 27.4308C14.5092 28.3912 11.2233 28.1362 8.04425 26.666C-0.950311 22.507 -2.808 10.3683 4.54072 3.68742C7.06254 1.39368 10.0922 0.164537 13.6296 0Z" fill="#E60000"/>
<path d="M19.6864 1.23036L19.8676 1.31833C19.8717 1.3615 19.8562 1.38798 19.8211 1.39775C17.225 2.09785 15.3905 4.37774 15.4236 7.09016C15.4244 7.13333 15.4456 7.16103 15.4873 7.17324C18.9871 8.13114 21.4669 10.0763 21.6335 13.9274C21.8478 18.8855 17.3266 22.8234 12.3376 21.5808C9.42069 20.8551 7.22624 18.4469 6.50618 15.5549C5.43345 11.2516 7.55688 6.65886 11.0237 4.04052C13.539 2.14183 16.4265 1.20511 19.6864 1.23036Z" fill="white"/>
</svg>
