<svg width="28" height="28" viewBox="0 0 28 28" fill="none" xmlns="http://www.w3.org/2000/svg">
<g clip-path="url(#clip0_6_211)">
<circle cx="14" cy="14" r="14" fill="#37BD69"/>
<g clip-path="url(#clip1_6_211)">
<path d="M16.2946 14.9612L16.2908 14.9925C15.3746 14.5358 15.2787 14.475 15.1604 14.6525C15.0783 14.7754 14.8392 15.0542 14.7671 15.1367C14.6942 15.2179 14.6217 15.2242 14.4979 15.1679C14.3729 15.1054 13.9717 14.9742 13.4967 14.5492C13.1267 14.2179 12.8783 13.8117 12.805 13.6867C12.6829 13.4758 12.9383 13.4458 13.1708 13.0058C13.2125 12.9183 13.1912 12.8496 13.1604 12.7875C13.1292 12.725 12.8804 12.1125 12.7762 11.8683C12.6762 11.625 12.5733 11.6558 12.4962 11.6558C12.2562 11.635 12.0808 11.6383 11.9262 11.7992C11.2537 12.5383 11.4233 13.3008 11.9987 14.1117C13.1296 15.5917 13.7321 15.8642 14.8337 16.2425C15.1312 16.3371 15.4025 16.3237 15.6171 16.2929C15.8562 16.255 16.3533 15.9925 16.4571 15.6987C16.5633 15.405 16.5633 15.1612 16.5321 15.105C16.5012 15.0487 16.4196 15.0175 16.2946 14.9612Z" fill="white"/>
<path d="M17.55 10.4368C14.3463 7.33968 9.04417 9.58593 9.04208 13.9551C9.04208 14.8284 9.27083 15.6801 9.70667 16.4322L9 18.9997L11.6396 18.3113C14.9333 20.0905 18.9983 17.728 19 13.9576C19 12.6343 18.4833 11.3888 17.5437 10.453L17.55 10.4368ZM18.1675 13.9438C18.165 17.1243 14.6737 19.1105 11.9125 17.4872L11.7625 17.398L10.2 17.8043L10.6187 16.2855L10.5192 16.1293C8.80083 13.3938 10.775 9.81884 14.03 9.81884C15.1358 9.81884 16.1737 10.2501 16.9554 11.0313C17.7367 11.8059 18.1675 12.8438 18.1675 13.9438Z" fill="white"/>
</g>
</g>
<defs>
<clipPath id="clip0_6_211">
<rect width="28" height="28" fill="white"/>
</clipPath>
<clipPath id="clip1_6_211">
<rect width="10" height="10" fill="white" transform="translate(9 9)"/>
</clipPath>
</defs>
</svg>
