<svg width="14" height="14" viewBox="0 0 14 14" fill="none" xmlns="http://www.w3.org/2000/svg">
<g clip-path="url(#clip0_1_52)">
<path d="M7.24886 10.9931C7.03566 10.9931 6.89353 10.922 6.7514 10.7799L3.76666 7.79516C3.4824 7.5109 3.4824 7.08451 3.76666 6.80025C4.05092 6.51599 4.47731 6.51599 4.76158 6.80025L7.24886 9.28753L12.7919 3.74445C13.0762 3.46018 13.5026 3.46018 13.7869 3.74445C14.0711 4.02871 14.0711 4.4551 13.7869 4.73936L7.74632 10.7799C7.67525 10.922 7.46206 10.9931 7.24886 10.9931Z" fill="#F3BC23"/>
<path d="M3.69539 10.9931C3.4822 10.9931 3.34007 10.922 3.19794 10.7799L0.213196 7.79516C-0.0710652 7.5109 -0.0710652 7.08451 0.213196 6.80025C0.497457 6.51599 0.923848 6.51599 1.20811 6.80025L4.19285 9.78499C4.47711 10.0693 4.47711 10.4956 4.19285 10.7799C4.12178 10.922 3.90859 10.9931 3.69539 10.9931ZM7.46185 7.29771C7.24866 7.29771 7.10652 7.22664 6.96439 7.08451C6.68013 6.80025 6.68013 6.37386 6.96439 6.0896L9.23848 3.74445C9.52274 3.46018 9.94913 3.46018 10.2334 3.74445C10.5177 4.02871 10.5177 4.4551 10.2334 4.73936L7.95931 7.08451C7.81718 7.22664 7.67505 7.29771 7.46185 7.29771Z" fill="#F3BC23"/>
</g>
<defs>
<clipPath id="clip0_1_52">
<rect width="14" height="14" fill="white"/>
</clipPath>
</defs>
</svg>
