<svg width="8" height="8" viewBox="0 0 8 8" fill="none" xmlns="http://www.w3.org/2000/svg">
<path d="M6.22235 4.31216L2.66224 7.8722C2.5799 7.9546 2.46999 8 2.35278 8C2.23558 8 2.12566 7.9546 2.04332 7.8722L1.78115 7.61008C1.61055 7.43929 1.61055 7.1617 1.78115 6.99116L4.77065 4.00166L1.77783 1.00884C1.69549 0.926432 1.65002 0.816579 1.65002 0.699441C1.65002 0.582174 1.69549 0.472322 1.77783 0.389851L2.04001 0.127804C2.12241 0.0453982 2.23226 4.76837e-07 2.34947 4.76837e-07C2.46667 4.76837e-07 2.57659 0.0453982 2.65893 0.127804L6.22235 3.69109C6.30488 3.77376 6.35021 3.88413 6.34995 4.00146C6.35021 4.11925 6.30488 4.22956 6.22235 4.31216Z" fill="#111111"/>
</svg>
