<svg width="60" height="60" viewBox="0 0 60 60" fill="none" xmlns="http://www.w3.org/2000/svg">
<circle cx="30" cy="30" r="30" fill="#2DA5E1"/>
<path d="M37.466 20.7403C34.4581 21.9859 21.5612 27.328 17.9977 28.7841C15.6078 29.7168 17.0068 30.5911 17.0068 30.5911C17.0068 30.5911 19.0468 31.2904 20.7954 31.8151C22.544 32.3397 23.4767 31.7568 23.4767 31.7568L31.6952 26.2192C34.6096 24.2376 33.9102 25.8696 33.2108 26.5689C31.6952 28.0845 29.1889 30.4742 27.0906 32.3978C26.158 33.2138 26.6243 33.9134 27.0323 34.2631C28.5479 35.5454 32.6862 38.1684 32.9195 38.3433C34.1509 39.215 36.573 40.47 36.9414 37.8187L38.3987 28.6675C38.865 25.5782 39.3313 22.722 39.3896 21.906C39.5644 19.9243 37.466 20.7403 37.466 20.7403Z" fill="white"/>
</svg>
