<svg width="60" height="60" viewBox="0 0 60 60" fill="none" xmlns="http://www.w3.org/2000/svg">
<circle cx="30" cy="30" r="30" fill="#A54EDF"/>
<path d="M32.4 18H27.6C22.98 18 19.2 21.78 19.2 26.4V30C19.2 33.24 21.09 36.21 24 37.59V41.61C24 41.97 24.45 42.15 24.69 41.88L28.17 38.4H32.4C37.02 38.4 40.7999 34.62 40.7999 30V26.4C40.7999 21.78 37.02 18 32.4 18ZM35.5499 33.75L34.32 34.95C33.03 36.21 29.7 34.77 26.76 31.77C23.82 28.77 22.53 25.41 23.76 24.15L24.96 22.95C25.41 22.5 26.16 22.53 26.67 22.98L28.41 24.78C29.04 25.41 28.77 26.49 27.96 26.73C27.39 26.91 27 27.54 27.18 28.11C27.4799 29.43 29.16 31.11 30.42 31.44C30.99 31.56 31.62 31.26 31.83 30.69C32.0999 29.88 33.1799 29.64 33.78 30.27L35.52 32.07C36 32.49 36 33.24 35.5499 33.75ZM31.08 23.7C30.96 23.7 30.84 23.7 30.72 23.73C30.51 23.76 30.3 23.58 30.27 23.37C30.24 23.16 30.42 22.95 30.6299 22.92C30.78 22.89 30.9299 22.89 31.08 22.89C33.2699 22.89 35.07 24.69 35.07 26.88C35.07 27.03 35.07 27.18 35.04 27.33C35.01 27.54 34.8 27.72 34.59 27.69C34.38 27.66 34.2 27.45 34.2299 27.24C34.2299 27.12 34.2599 27 34.2599 26.88C34.2899 25.14 32.8499 23.7 31.08 23.7ZM33.4799 26.91C33.4799 27.12 33.2999 27.3 33.09 27.3C32.88 27.3 32.7 27.12 32.7 26.91C32.7 26.04 31.98 25.32 31.11 25.32C30.9 25.32 30.72 25.14 30.72 24.93C30.72 24.72 30.9 24.54 31.11 24.54C32.4 24.51 33.4799 25.59 33.4799 26.91ZM36.54 28.2C36.48 28.41 36.2699 28.56 36.0299 28.5C35.82 28.44 35.6999 28.23 35.7599 28.02C35.8499 27.66 35.8799 27.3 35.8799 26.91C35.8799 24.27 33.7199 22.11 31.08 22.11C30.96 22.11 30.84 22.11 30.72 22.11C30.51 22.11 30.3 21.96 30.3 21.75C30.3 21.54 30.45 21.33 30.66 21.33C30.81 21.33 30.96 21.3 31.08 21.3C34.1699 21.3 36.69 23.82 36.69 26.91C36.69 27.33 36.63 27.78 36.54 28.2Z" fill="white"/>
</svg>
