<svg width="60" height="60" viewBox="0 0 60 60" fill="none" xmlns="http://www.w3.org/2000/svg">
<circle cx="30" cy="30" r="30" fill="#2396FD"/>
<path fill-rule="evenodd" clip-rule="evenodd" d="M29.5244 17.9652C28.641 17.9652 27.9254 18.6602 27.9254 19.5178V25.2146C27.9254 26.0727 28.641 26.7684 29.5244 26.7684C30.4073 26.7684 31.1222 26.0727 31.1222 25.2146V19.5178C31.1222 18.6602 30.4073 17.9652 29.5244 17.9652ZM18.5588 25.6152C17.9381 25.667 17.3795 26.0705 17.175 26.6828C16.9027 27.4991 17.3614 28.3757 18.2009 28.6408L23.7753 30.4014C24.6149 30.6664 25.5172 30.2199 25.7903 29.404C26.0631 28.5881 25.6037 27.711 24.7632 27.446L19.1888 25.6866C18.9789 25.6202 18.7657 25.598 18.5588 25.6152ZM40.49 25.6165C40.2831 25.5991 40.0699 25.6201 39.8599 25.6866L34.2856 27.4472C33.446 27.7122 32.987 28.5893 33.2596 29.4052C33.5328 30.2211 34.4339 30.6669 35.2735 30.4014L40.8478 28.642C41.6874 28.377 42.147 27.4999 41.8738 26.684C41.6696 26.0721 41.1107 25.6685 40.49 25.6165ZM26.3289 33.3794C25.8162 33.3624 25.3036 33.585 24.9796 34.019L21.5355 38.628C21.0166 39.3227 21.1754 40.2949 21.8898 40.7988C22.6033 41.3026 23.6039 41.1474 24.1224 40.454L27.5664 35.8438C28.0858 35.15 27.9258 34.1797 27.211 33.6754C26.9434 33.4863 26.6365 33.3896 26.3289 33.3794ZM32.7211 33.3794C32.4134 33.3895 32.1057 33.4863 31.8378 33.6754C31.1238 34.1797 30.9646 35.15 31.4836 35.8438L34.9276 40.454C35.446 41.1474 36.4467 41.3026 37.1601 40.7988C37.8745 40.2949 38.0333 39.3227 37.5144 38.628L34.0704 34.019C33.7464 33.585 33.234 33.3624 32.7211 33.3794Z" fill="white"/>
</svg>
