<svg width="60" height="60" viewBox="0 0 60 60" fill="none" xmlns="http://www.w3.org/2000/svg">
<circle cx="30" cy="30" r="30" fill="#2AA81A"/>
<g clip-path="url(#clip0_1_81)">
<path d="M30.0027 19H29.9973C23.9321 19 19 23.9335 19 30C19 32.4062 19.7755 34.6365 21.0941 36.4474L19.7233 40.5339L23.9514 39.1823C25.6908 40.3345 27.7656 41 30.0027 41C36.0679 41 41 36.0651 41 30C41 23.9349 36.0679 19 30.0027 19ZM36.4034 34.5334C36.138 35.2827 35.0847 35.9042 34.2446 36.0857C33.6699 36.2081 32.9191 36.3057 30.3919 35.258C27.1592 33.9188 25.0775 30.6339 24.9152 30.4207C24.7599 30.2076 23.609 28.6814 23.609 27.1029C23.609 25.5244 24.4106 24.7558 24.7338 24.4258C24.9991 24.1549 25.4377 24.0311 25.8585 24.0311C25.9946 24.0311 26.117 24.038 26.227 24.0435C26.5501 24.0573 26.7124 24.0765 26.9255 24.5866C27.1909 25.226 27.8371 26.8045 27.9141 26.9668C27.9925 27.129 28.0709 27.349 27.9609 27.5621C27.8577 27.7821 27.767 27.8798 27.6047 28.0667C27.4425 28.2537 27.2885 28.3968 27.1262 28.5975C26.9777 28.7721 26.81 28.9591 26.997 29.2823C27.184 29.5985 27.8302 30.6531 28.7817 31.5001C30.0096 32.5932 31.0051 32.9425 31.3612 33.091C31.6266 33.201 31.9429 33.1749 32.1368 32.9686C32.3829 32.7033 32.6867 32.2633 32.9961 31.8301C33.2161 31.5194 33.4939 31.4809 33.7854 31.5909C34.0824 31.694 35.654 32.4709 35.9771 32.6317C36.3003 32.794 36.5134 32.871 36.5917 33.0071C36.6687 33.1433 36.6687 33.7826 36.4034 34.5334Z" fill="white"/>
</g>
<defs>
<clipPath id="clip0_1_81">
<rect width="22" height="22" fill="white" transform="translate(19 19)"/>
</clipPath>
</defs>
</svg>
