<svg width="60" height="60" viewBox="0 0 60 60" fill="none" xmlns="http://www.w3.org/2000/svg">
<circle cx="30" cy="30" r="30" fill="#E60000"/>
<g clip-path="url(#clip0_1_65)">
<path d="M34.8543 19.0508C32.0765 19.0293 29.616 19.8293 27.4727 21.4508C24.5186 23.687 22.7092 27.6094 23.6233 31.2846C24.2369 33.7545 26.1068 35.8112 28.5923 36.431C32.8435 37.4922 36.696 34.1291 36.5134 29.8947C36.3715 26.6056 34.2584 24.9444 31.2762 24.1263C31.2407 24.1159 31.2226 24.0922 31.2219 24.0554C31.1937 21.7388 32.7569 19.7917 34.969 19.1938C34.9989 19.1854 35.0122 19.1628 35.0087 19.126" stroke="#F38080" stroke-width="2"/>
<path d="M29.6932 18H30.3976C31.9544 18.0717 33.44 18.4219 34.8543 19.0508C32.0765 19.0292 29.616 19.8292 27.4727 21.4508C24.5186 23.687 22.7092 27.6094 23.6233 31.2845C24.2369 33.7544 26.1068 35.8111 28.5924 36.431C32.8435 37.4922 36.696 34.129 36.5134 29.8946C36.3715 26.6056 34.2584 24.9443 31.2762 24.1263C31.2407 24.1158 31.2226 24.0922 31.2219 24.0553C31.1937 21.7388 32.7569 19.7917 34.9691 19.1937C34.999 19.1854 35.0122 19.1628 35.0087 19.1259C37.9576 20.3562 40.248 23.1475 41.2738 26.0546C43.5277 32.4428 39.8431 39.5812 33.3339 41.4271C30.4428 42.2473 27.6428 42.0296 24.9339 40.7739C17.2696 37.2219 15.6866 26.855 21.9485 21.1492C24.0974 19.1903 26.679 18.1405 29.6932 18Z" fill="white"/>
<path d="M34.8543 19.0508L35.0087 19.126C35.0122 19.1628 34.9989 19.1854 34.969 19.1938C32.7569 19.7917 31.1937 21.7388 31.2219 24.0554C31.2226 24.0922 31.2407 24.1159 31.2762 24.1263C34.2584 24.9444 36.3715 26.6056 36.5134 29.8947C36.696 34.1291 32.8435 37.4922 28.5923 36.431C26.1068 35.8112 24.2369 33.7545 23.6233 31.2846C22.7092 27.6094 24.5186 23.687 27.4727 21.4508C29.616 19.8293 32.0765 19.0293 34.8543 19.0508Z" fill="#E60000"/>
</g>
<defs>
<clipPath id="clip0_1_65">
<rect width="24" height="24" fill="white" transform="translate(18 18)"/>
</clipPath>
</defs>
</svg>
