<svg width="38" height="38" viewBox="0 0 38 38" fill="none" xmlns="http://www.w3.org/2000/svg">
<rect width="38" height="38" rx="8" fill="#FD9302"/>
<path d="M19 8C23.2526 8 26.7 11.4474 26.7 15.7C26.7 19.9526 23.2526 23.4 19 23.4C14.7474 23.4 11.3 19.9526 11.3 15.7C11.3 11.4474 14.7474 8 19 8Z" fill="white"/>
<path d="M19 24.5C16.9189 24.5 15.0066 23.7776 13.5 22.5699V28.9C13.5 29.3268 13.7469 29.7151 14.1335 29.8962C14.52 30.0772 14.9763 30.0183 15.3042 29.745L19 26.6653L22.6958 29.745C23.0237 30.0183 23.4801 30.0772 23.8667 29.8962C24.2531 29.7151 24.5001 29.3268 24.5001 28.9V22.5699C22.9935 23.7776 21.0811 24.5 19 24.5Z" fill="white"/>
</svg>
