<svg width="463" height="305" viewBox="0 0 463 305" fill="none" xmlns="http://www.w3.org/2000/svg">
<g opacity="0.24" clip-path="url(#clip0_1_22)">
<mask id="mask0_1_22" style="mask-type:luminance" maskUnits="userSpaceOnUse" x="0" y="0" width="463" height="352">
<path d="M463 0H0V352H463V0Z" fill="white"/>
</mask>
<g mask="url(#mask0_1_22)">
<path d="M448.303 204.494C447.266 203.011 445.445 202.289 443.699 202.689C426.947 206.602 409.773 208.583 392.695 208.583C386.785 208.583 381.278 208.378 375.857 207.949C364.575 207.07 353.244 205.294 342.134 202.679C340.301 202.25 338.42 203.04 337.423 204.641C327.598 220.127 311.048 242.921 287.83 263.539C270.877 278.595 253.089 289.983 234.918 297.389C216.727 290.002 198.939 278.595 182.006 263.539C158.787 242.921 142.218 220.127 132.413 204.641C131.396 203.04 129.515 202.259 127.702 202.679C116.592 205.294 105.242 207.07 93.9784 207.949C88.5384 208.378 83.0216 208.583 77.1407 208.583C60.0339 208.583 42.889 206.602 26.1374 202.689C24.3913 202.279 22.5492 203.001 21.5322 204.494C20.496 206.006 20.448 207.987 21.4171 209.539C22.3285 210.954 23.2975 212.467 24.3337 214.037C24.5544 214.379 24.7559 214.691 24.9957 215.023C34.446 229.221 49.3554 248.941 69.1678 267.237C69.7626 267.774 70.2997 268.272 70.8946 268.857L70.914 268.877H70.9329C99.1208 294.423 136.989 316.798 183.128 316.798C200.609 316.798 218.022 313.509 234.908 307.05C251.794 313.509 269.208 316.798 286.688 316.798C332.808 316.798 370.667 294.452 398.864 268.877C399.459 268.34 400.064 267.774 400.659 267.237C420.461 248.941 435.361 229.221 444.801 215.023C445.04 214.682 445.242 214.369 445.463 214.037C446.499 212.467 447.478 210.954 448.382 209.539C449.379 207.987 449.33 206.006 448.294 204.494H448.303ZM34.849 213.696C42.2845 215.072 49.7681 216.077 57.2612 216.731C61.1085 217.072 64.9845 217.296 68.8318 217.404C71.5948 217.541 74.3675 217.579 77.131 217.579C82.7915 217.579 88.1257 217.375 93.3739 216.994C93.8153 216.974 94.2373 216.945 94.6597 216.906C97.6912 216.662 100.742 216.369 103.803 216.009C111.459 215.111 119.115 213.823 126.666 212.164C127.127 212.886 127.616 213.608 128.105 214.369C130.801 218.438 133.881 222.878 137.354 227.562C131.444 228.528 125.514 229.299 119.566 229.904C122.224 232.782 125.102 235.485 128.105 237.983C133.286 237.349 138.438 236.568 143.571 235.661C148.042 241.291 153.022 247.165 158.509 253.04C153.357 253.869 148.128 254.591 142.928 255.176C138.371 251.625 133.967 247.858 129.698 243.945C127.75 242.169 125.822 240.344 123.941 238.481C121.197 235.827 118.539 233.075 115.949 230.265C113.887 228.04 111.881 225.786 109.933 223.493C108.514 221.873 107.142 220.204 105.818 218.546C102.364 219.043 98.9096 219.424 95.4367 219.736C98.4012 223.629 101.5 227.416 104.705 231.104C98.1326 231.485 91.5607 231.67 84.9693 231.64C85.3913 232.158 85.8138 232.655 86.2551 233.153C88.5097 235.719 90.8794 238.218 93.3549 240.559C97.6048 240.472 101.875 240.315 106.105 240.062C108.226 239.925 110.375 239.788 112.505 239.613C118.146 245.507 124.076 251.117 130.254 256.357C129.036 256.445 127.817 256.533 126.599 256.601C120.487 256.962 114.366 257.167 108.207 257.187C104.004 253.928 100.061 250.62 96.3675 247.282C93.892 245.058 91.5413 242.852 89.3061 240.618C86.2071 237.583 83.3096 234.568 80.6326 231.592C79.3472 230.177 78.1288 228.782 76.9581 227.406C74.924 225.064 73.0438 222.79 71.2976 220.585C67.4216 220.536 63.5549 220.361 59.6979 220.116C62.2404 223.542 65.1379 227.25 68.4191 231.143C61.0031 230.763 53.6154 230.109 46.2661 229.182C43.0329 225.083 40.1162 221.17 37.5066 217.482C36.576 216.203 35.6933 214.935 34.849 213.706V213.696ZM54.4307 239.154C61.8471 239.857 69.2829 240.306 76.7182 240.481C81.7455 245.838 87.4254 251.4 93.7769 256.884C85.5452 256.543 77.3325 255.899 69.1484 254.904C63.8332 249.663 58.921 244.345 54.4307 239.145V239.154ZM80.0761 265.061C88.4423 265.764 96.8759 266.144 105.261 266.164C105.904 266.183 106.566 266.183 107.209 266.183C111.594 266.183 115.968 266.096 120.353 265.91C122.608 265.823 124.872 265.705 127.127 265.569C131.53 265.296 135.953 264.934 140.386 264.486C144.741 264.057 149.078 263.52 153.424 262.915C157.674 262.31 161.925 261.637 166.127 260.866C167.259 262.017 168.41 263.12 169.562 264.193C171.711 266.291 173.918 268.311 176.182 270.341C179.77 273.512 183.378 276.556 187.023 279.415C185.565 279.62 184.078 279.825 182.601 280.02H182.581C180.988 279.259 179.434 278.469 177.889 277.659C171.145 274.195 164.592 270.341 158.193 266.115C158.174 266.135 158.174 266.115 158.174 266.115C153.789 266.818 149.385 267.393 144.981 267.921C151.909 272.916 159.037 277.532 166.425 281.699C164.391 281.855 162.356 282.011 160.313 282.128C159.852 282.148 159.402 282.177 158.941 282.196C159.056 282.265 159.181 282.333 159.296 282.372C165.225 285.211 171.423 287.661 177.707 289.661C178.839 289.525 179.991 289.417 181.113 289.251H181.161C185.901 291.505 190.679 293.574 195.572 295.467C190.64 294.657 185.728 293.691 180.873 292.501C177.995 291.798 175.146 291.037 172.306 290.207C170.377 289.642 168.458 289.056 166.549 288.432C161.148 286.656 155.996 284.694 151.016 282.538H150.997C149.385 281.865 147.812 281.162 146.257 280.42C139.09 277.132 132.384 273.463 126.1 269.599C121.034 269.94 115.94 270.165 110.855 270.253C116.966 274.556 123.538 278.693 130.571 282.538C120.152 282.245 109.723 281.435 99.3894 280.108H99.3704C99.3704 280.108 99.351 280.108 99.351 280.088C94.6403 276.868 90.1695 273.453 85.8327 269.911C83.885 268.34 81.9567 266.711 80.1052 265.071L80.0761 265.061ZM183.138 307.801C158.682 307.801 136.625 301.068 117.216 290.881C125.074 291.447 132.95 291.71 140.808 291.71C143.667 291.71 146.517 291.661 149.376 291.574H149.462C154.105 293.535 158.845 295.33 163.824 296.98C177.41 301.439 191.379 304.405 205.627 305.869C198.172 307.147 190.669 307.801 183.147 307.801H183.138ZM286.698 307.801C279.176 307.801 271.673 307.147 264.219 305.869C278.466 304.405 292.435 301.439 306.021 296.98C311 295.34 315.826 293.535 320.47 291.574C323.3 291.661 326.159 291.71 329.009 291.71C336.866 291.71 344.743 291.437 352.601 290.881C333.192 301.097 311.135 307.801 286.698 307.801ZM384.003 269.902C379.686 273.434 375.214 276.859 370.504 280.079C370.504 280.099 370.485 280.098 370.485 280.098H370.437C360.104 281.426 349.684 282.235 339.274 282.528C346.307 278.683 352.879 274.536 358.991 270.243C353.906 270.155 348.811 269.931 343.745 269.589C337.461 273.463 330.735 277.132 323.559 280.44C322.014 281.162 320.441 281.855 318.848 282.538C313.869 284.694 308.688 286.656 303.296 288.432C301.396 289.066 299.468 289.651 297.54 290.207C294.709 291.037 291.85 291.808 288.972 292.501C284.107 293.691 279.195 294.686 274.235 295.467C279.128 293.574 283.973 291.505 288.703 289.251C289.835 289.388 290.987 289.525 292.138 289.661C298.422 287.661 304.62 285.202 310.549 282.372C310.664 282.323 310.789 282.255 310.904 282.196C310.444 282.177 309.993 282.148 309.532 282.128C307.469 282.011 305.435 281.855 303.382 281.699C310.77 277.532 317.947 272.916 324.873 267.921C320.47 267.403 316.066 266.818 311.662 266.115C305.263 270.35 298.691 274.195 291.946 277.659C290.402 278.469 288.828 279.259 287.235 280.02C285.777 279.815 284.319 279.611 282.832 279.415C286.487 276.556 290.094 273.521 293.673 270.341C295.928 268.311 298.144 266.291 300.293 264.193C301.444 263.11 302.596 262.007 303.728 260.866C307.93 261.626 312.161 262.31 316.431 262.915C320.767 263.52 325.104 264.066 329.469 264.486C333.892 264.934 338.325 265.296 342.728 265.569C344.983 265.705 347.219 265.813 349.473 265.91C353.858 266.086 358.233 266.183 362.617 266.183C363.26 266.183 363.922 266.183 364.565 266.164C372.969 266.144 381.384 265.754 389.75 265.061C387.889 266.73 385.97 268.321 384.022 269.902H384.003ZM400.659 254.913C392.474 255.899 384.262 256.552 376.03 256.894C382.382 251.4 388.09 245.868 393.117 240.491C400.553 240.315 407.969 239.857 415.376 239.164C410.886 244.365 405.974 249.673 400.659 254.923V254.913ZM432.31 217.482C429.7 221.17 426.774 225.093 423.55 229.182C416.201 230.109 408.814 230.752 401.426 231.143C404.698 227.25 407.604 223.532 410.147 220.116C406.3 220.361 402.424 220.546 398.548 220.585C396.802 222.79 394.921 225.064 392.887 227.406C391.717 228.782 390.479 230.177 389.212 231.592C386.516 234.539 383.638 237.583 380.539 240.618C378.285 242.823 375.934 245.048 373.459 247.282C369.765 250.61 365.822 253.947 361.619 257.187C355.469 257.167 349.358 256.962 343.256 256.601C342.038 256.533 340.819 256.445 339.601 256.357C345.779 251.117 351.708 245.507 357.321 239.613C359.47 239.788 361.591 239.925 363.72 240.062C367.952 240.306 372.192 240.472 376.471 240.559C378.947 238.218 381.336 235.739 383.6 233.153C384.041 232.655 384.463 232.168 384.905 231.64C378.313 231.66 371.693 231.485 365.121 231.104C368.326 227.416 371.425 223.629 374.418 219.736C370.945 219.424 367.472 219.014 364.018 218.546C362.694 220.214 361.341 221.853 359.902 223.473C357.974 225.766 355.959 228.04 353.906 230.275C351.315 233.085 348.639 235.837 345.913 238.491C344.033 240.355 342.105 242.179 340.157 243.955C335.888 247.868 331.465 251.605 326.926 255.187C321.726 254.601 316.507 253.879 311.345 253.049C316.834 247.175 321.813 241.301 326.284 235.671C331.398 236.568 336.55 237.359 341.731 237.993H341.75C344.762 235.475 347.612 232.773 350.27 229.913C344.34 229.308 338.411 228.538 332.501 227.591C335.955 222.907 339.054 218.458 341.75 214.379C342.239 213.618 342.719 212.896 343.189 212.173C350.74 213.842 358.367 215.121 366.023 216.018C369.074 216.379 372.135 216.672 375.186 216.916C375.608 216.965 376.03 216.984 376.471 217.004C381.719 217.384 387.044 217.589 392.714 217.589C395.477 217.589 398.25 217.541 401.014 217.413H401.033C404.88 217.296 408.737 217.072 412.584 216.74C420.087 216.086 427.561 215.072 434.977 213.706C434.133 214.945 433.25 216.203 432.319 217.482H432.31Z" fill="#0090D6"/>
<path d="M262.742 87.3065C253.502 77.1584 242.498 72.0645 229.766 72.0645C217.035 72.0645 207.517 76.0751 200.772 84.135V35.209H171.549V162.462C181.19 160.774 188.137 162.14 192.656 163.623C201.032 166.414 205.099 171.009 216.449 174.415C220.795 175.664 224.518 176.249 227.003 176.572C227.886 176.63 228.807 176.66 229.776 176.66C242.642 176.66 253.656 171.654 262.751 161.652C271.847 151.591 276.366 139.17 276.366 124.396C276.366 109.623 271.847 97.3764 262.751 87.3162L262.742 87.3065ZM248.84 145.59C246.777 147.659 244.494 149.347 241.98 150.596C242.037 149.864 242.066 148.732 241.778 147.425C241.011 143.697 238.574 141.375 237.519 140.418C232.452 135.735 228.567 138.438 221.535 134.047C220.393 133.344 216.958 131.08 214.099 126.865C210.952 122.239 210.069 117.615 209.753 115.087C213.302 114.619 215.903 115.175 217.649 115.789C220.422 116.746 221.592 118.034 224.537 118.697C226.965 119.254 229.114 119.02 230.544 118.727C229.517 115.702 228.03 113.721 226.802 112.443C221.083 106.568 210.933 105.641 200.782 109.593C202.096 106.217 204.015 103.28 206.529 100.753C212.132 95.1711 219.193 92.4391 227.78 92.4391C236.367 92.4391 243.361 95.1711 248.859 100.753C254.433 106.276 257.264 113.78 257.264 123.147C257.264 132.515 254.433 140.019 248.859 145.6L248.84 145.59Z" fill="white"/>
<path d="M79.942 74.7998V84.1379C73.2263 76.078 63.5262 72.0674 50.9485 72.0674C38.3703 72.0674 27.2122 77.1608 18.0017 87.3094C8.90635 97.3696 4.38745 109.733 4.38745 124.389C4.38745 139.046 8.90635 151.585 18.0017 161.645C27.097 171.647 38.0728 176.653 50.9485 176.653C59.238 175.638 65.2151 173.13 69.1391 171.1C72.9957 169.031 72.9384 168.456 79.9517 164.182C92.5105 156.59 97.0294 155.946 98.9387 155.751C100.973 155.546 104.801 155.136 109.176 156.59V74.7998H79.9517H79.942ZM73.5046 142.022C69.2732 146.354 63.6704 148.569 56.8008 148.569C49.9312 148.569 44.2707 146.354 40.0397 142.022C35.7223 137.66 33.6019 131.786 33.6019 124.399C33.6019 117.012 35.7223 111.08 40.0397 106.747C44.2707 102.385 49.8739 100.199 56.8008 100.199C63.7278 100.199 69.2732 102.385 73.5046 106.747C77.8219 111.08 79.942 116.983 79.942 124.399C79.942 131.815 77.8219 137.66 73.5046 142.022Z" fill="white"/>
<path d="M125.774 168.503C125.947 168.591 126.177 168.727 126.398 168.815C128.931 170.035 131.54 170.796 136.779 172.338C144.32 174.553 150.662 175.86 154.96 176.67V35.2002H125.774V168.503Z" fill="white"/>
<path d="M358.742 74.7998V84.1379C352.026 76.078 342.355 72.0674 329.748 72.0674C317.141 72.0674 306.012 77.1608 296.801 87.3094C287.706 97.3696 283.187 109.733 283.187 124.389C283.187 139.046 287.706 151.585 296.801 161.645C305.897 171.647 316.872 176.653 329.748 176.653C338.095 175.638 344.043 173.13 347.939 171.1C351.795 169.031 351.738 168.456 358.751 164.182C371.368 156.59 375.848 155.946 377.738 155.751C379.83 155.546 383.6 155.136 388.004 156.59V74.7998H358.751H358.742ZM352.333 142.022C348.073 146.354 342.47 148.569 335.543 148.569C328.616 148.569 323.099 146.354 318.839 142.022C314.522 137.66 312.402 131.786 312.402 124.399C312.402 117.012 314.522 111.08 318.839 106.747C323.099 102.385 328.674 100.199 335.543 100.199C342.412 100.199 348.073 102.385 352.333 106.747C356.622 111.08 358.742 116.983 358.742 124.399C358.742 131.815 356.622 137.66 352.333 142.022Z" fill="white"/>
<path d="M447.535 75.65C441.759 78.821 438.604 83.1049 437.702 84.3928C435.553 87.4569 434.402 90.3939 433.769 92.443V74.8008H404.583V168.496C404.755 168.584 404.986 168.721 405.206 168.809C407.739 170.028 410.349 170.789 415.587 172.331C423.08 174.546 429.422 175.854 433.769 176.663V129.113C433.769 120.136 436.829 113.862 442.95 110.3C449.022 106.602 455.72 105.333 463.004 106.514V72.049C460.103 71.932 454.004 72.0978 447.544 75.6398L447.535 75.65Z" fill="white"/>
</g>
</g>
<defs>
<clipPath id="clip0_1_22">
<rect width="463" height="352" fill="white"/>
</clipPath>
</defs>
</svg>
