<svg width="463" height="305" viewBox="0 0 463 305" fill="none" xmlns="http://www.w3.org/2000/svg">
<g opacity="0.24" clip-path="url(#clip0_1_22)">
<mask id="mask0_1_22" style="mask-type:luminance" maskUnits="userSpaceOnUse" x="0" y="-18" width="463" height="352">
<path d="M463 -18H0V334H463V-18Z" fill="white"/>
</mask>
<g mask="url(#mask0_1_22)">
<path d="M448.303 186.494C447.266 185.011 445.445 184.289 443.699 184.689C426.947 188.602 409.773 190.583 392.695 190.583C386.785 190.583 381.278 190.378 375.857 189.949C364.575 189.07 353.244 187.294 342.134 184.679C340.301 184.25 338.42 185.04 337.423 186.641C327.598 202.127 311.048 224.921 287.83 245.539C270.877 260.595 253.089 271.983 234.918 279.389C216.727 272.002 198.939 260.595 182.006 245.539C158.787 224.921 142.218 202.127 132.413 186.641C131.396 185.04 129.515 184.259 127.702 184.679C116.592 187.294 105.242 189.07 93.9784 189.949C88.5384 190.378 83.0216 190.583 77.1407 190.583C60.0339 190.583 42.889 188.602 26.1374 184.689C24.3913 184.279 22.5492 185.001 21.5322 186.494C20.496 188.006 20.448 189.987 21.4171 191.539C22.3285 192.954 23.2975 194.467 24.3337 196.037C24.5544 196.379 24.7559 196.691 24.9957 197.023C34.446 211.221 49.3554 230.941 69.1678 249.237C69.7626 249.774 70.2997 250.272 70.8946 250.857L70.914 250.877H70.9329C99.1208 276.423 136.989 298.798 183.128 298.798C200.609 298.798 218.022 295.509 234.908 289.05C251.794 295.509 269.208 298.798 286.688 298.798C332.808 298.798 370.667 276.452 398.864 250.877C399.459 250.34 400.064 249.774 400.659 249.237C420.461 230.941 435.361 211.221 444.801 197.023C445.04 196.682 445.242 196.369 445.463 196.037C446.499 194.467 447.478 192.954 448.382 191.539C449.379 189.987 449.33 188.006 448.294 186.494H448.303ZM34.849 195.696C42.2845 197.072 49.7681 198.077 57.2612 198.731C61.1085 199.072 64.9845 199.296 68.8318 199.404C71.5948 199.541 74.3675 199.579 77.131 199.579C82.7915 199.579 88.1257 199.375 93.3739 198.994C93.8153 198.974 94.2373 198.945 94.6597 198.906C97.6912 198.662 100.742 198.369 103.803 198.009C111.459 197.111 119.115 195.823 126.666 194.164C127.127 194.886 127.616 195.608 128.105 196.369C130.801 200.438 133.881 204.878 137.354 209.562C131.444 210.528 125.514 211.299 119.566 211.904C122.224 214.782 125.102 217.485 128.105 219.983C133.286 219.349 138.438 218.568 143.571 217.661C148.042 223.291 153.022 229.165 158.509 235.04C153.357 235.869 148.128 236.591 142.928 237.176C138.371 233.625 133.967 229.858 129.698 225.945C127.75 224.169 125.822 222.344 123.941 220.481C121.197 217.827 118.539 215.075 115.949 212.265C113.887 210.04 111.881 207.786 109.933 205.493C108.514 203.873 107.142 202.204 105.818 200.546C102.364 201.043 98.9096 201.424 95.4367 201.736C98.4012 205.629 101.5 209.416 104.705 213.104C98.1326 213.485 91.5607 213.67 84.9693 213.64C85.3913 214.158 85.8138 214.655 86.2551 215.153C88.5097 217.719 90.8794 220.218 93.3549 222.559C97.6048 222.472 101.875 222.315 106.105 222.062C108.226 221.925 110.375 221.788 112.505 221.613C118.146 227.507 124.076 233.117 130.254 238.357C129.036 238.445 127.817 238.533 126.599 238.601C120.487 238.962 114.366 239.167 108.207 239.187C104.004 235.928 100.061 232.62 96.3675 229.282C93.892 227.058 91.5413 224.852 89.3061 222.618C86.2071 219.583 83.3096 216.568 80.6326 213.592C79.3472 212.177 78.1288 210.782 76.9581 209.406C74.924 207.064 73.0438 204.79 71.2976 202.585C67.4216 202.536 63.5549 202.361 59.6979 202.116C62.2404 205.542 65.1379 209.25 68.4191 213.143C61.0031 212.763 53.6154 212.109 46.2661 211.182C43.0329 207.083 40.1162 203.17 37.5066 199.482C36.576 198.203 35.6933 196.935 34.849 195.706V195.696ZM54.4307 221.154C61.8471 221.857 69.2829 222.306 76.7182 222.481C81.7455 227.838 87.4254 233.4 93.7769 238.884C85.5452 238.543 77.3325 237.899 69.1484 236.904C63.8332 231.663 58.921 226.345 54.4307 221.145V221.154ZM80.0761 247.061C88.4423 247.764 96.8759 248.144 105.261 248.164C105.904 248.183 106.566 248.183 107.209 248.183C111.594 248.183 115.968 248.096 120.353 247.91C122.608 247.823 124.872 247.705 127.127 247.569C131.53 247.296 135.953 246.934 140.386 246.486C144.741 246.057 149.078 245.52 153.424 244.915C157.674 244.31 161.925 243.637 166.127 242.866C167.259 244.017 168.41 245.12 169.562 246.193C171.711 248.291 173.918 250.311 176.182 252.341C179.77 255.512 183.378 258.556 187.023 261.415C185.565 261.62 184.078 261.825 182.601 262.02H182.581C180.988 261.259 179.434 260.469 177.889 259.659C171.145 256.195 164.592 252.341 158.193 248.115C158.174 248.135 158.174 248.115 158.174 248.115C153.789 248.818 149.385 249.393 144.981 249.921C151.909 254.916 159.037 259.532 166.425 263.699C164.391 263.855 162.356 264.011 160.313 264.128C159.852 264.148 159.402 264.177 158.941 264.196C159.056 264.265 159.181 264.333 159.296 264.372C165.225 267.211 171.423 269.661 177.707 271.661C178.839 271.525 179.991 271.417 181.113 271.251H181.161C185.901 273.505 190.679 275.574 195.572 277.467C190.64 276.657 185.728 275.691 180.873 274.501C177.995 273.798 175.146 273.037 172.306 272.207C170.377 271.642 168.458 271.056 166.549 270.432C161.148 268.656 155.996 266.694 151.016 264.538H150.997C149.385 263.865 147.812 263.162 146.257 262.42C139.09 259.132 132.384 255.463 126.1 251.599C121.034 251.94 115.94 252.165 110.855 252.253C116.966 256.556 123.538 260.693 130.571 264.538C120.152 264.245 109.723 263.435 99.3894 262.108H99.3704C99.3704 262.108 99.351 262.108 99.351 262.088C94.6403 258.868 90.1695 255.453 85.8327 251.911C83.885 250.34 81.9567 248.711 80.1052 247.071L80.0761 247.061ZM183.138 289.801C158.682 289.801 136.625 283.068 117.216 272.881C125.074 273.447 132.95 273.71 140.808 273.71C143.667 273.71 146.517 273.661 149.376 273.574H149.462C154.105 275.535 158.845 277.33 163.824 278.98C177.41 283.439 191.379 286.405 205.627 287.869C198.172 289.147 190.669 289.801 183.147 289.801H183.138ZM286.698 289.801C279.176 289.801 271.673 289.147 264.219 287.869C278.466 286.405 292.435 283.439 306.021 278.98C311 277.34 315.826 275.535 320.47 273.574C323.3 273.661 326.159 273.71 329.009 273.71C336.866 273.71 344.743 273.437 352.601 272.881C333.192 283.097 311.135 289.801 286.698 289.801ZM384.003 251.902C379.686 255.434 375.214 258.859 370.504 262.079C370.504 262.099 370.485 262.098 370.485 262.098H370.437C360.104 263.426 349.684 264.235 339.274 264.528C346.307 260.683 352.879 256.536 358.991 252.243C353.906 252.155 348.811 251.931 343.745 251.589C337.461 255.463 330.735 259.132 323.559 262.44C322.014 263.162 320.441 263.855 318.848 264.538C313.869 266.694 308.688 268.656 303.296 270.432C301.396 271.066 299.468 271.651 297.54 272.207C294.709 273.037 291.85 273.808 288.972 274.501C284.107 275.691 279.195 276.686 274.235 277.467C279.128 275.574 283.973 273.505 288.703 271.251C289.835 271.388 290.987 271.525 292.138 271.661C298.422 269.661 304.62 267.202 310.549 264.372C310.664 264.323 310.789 264.255 310.904 264.196C310.444 264.177 309.993 264.148 309.532 264.128C307.469 264.011 305.435 263.855 303.382 263.699C310.77 259.532 317.947 254.916 324.873 249.921C320.47 249.403 316.066 248.818 311.662 248.115C305.263 252.35 298.691 256.195 291.946 259.659C290.402 260.469 288.828 261.259 287.235 262.02C285.777 261.815 284.319 261.611 282.832 261.415C286.487 258.556 290.094 255.521 293.673 252.341C295.928 250.311 298.144 248.291 300.293 246.193C301.444 245.11 302.596 244.007 303.728 242.866C307.93 243.626 312.161 244.31 316.431 244.915C320.767 245.52 325.104 246.066 329.469 246.486C333.892 246.934 338.325 247.296 342.728 247.569C344.983 247.705 347.219 247.813 349.473 247.91C353.858 248.086 358.233 248.183 362.617 248.183C363.26 248.183 363.922 248.183 364.565 248.164C372.969 248.144 381.384 247.754 389.75 247.061C387.889 248.73 385.97 250.321 384.022 251.902H384.003ZM400.659 236.913C392.474 237.899 384.262 238.552 376.03 238.894C382.382 233.4 388.09 227.868 393.117 222.491C400.553 222.315 407.969 221.857 415.376 221.164C410.886 226.365 405.974 231.673 400.659 236.923V236.913ZM432.31 199.482C429.7 203.17 426.774 207.093 423.55 211.182C416.201 212.109 408.814 212.752 401.426 213.143C404.698 209.25 407.604 205.532 410.147 202.116C406.3 202.361 402.424 202.546 398.548 202.585C396.802 204.79 394.921 207.064 392.887 209.406C391.717 210.782 390.479 212.177 389.212 213.592C386.516 216.539 383.638 219.583 380.539 222.618C378.285 224.823 375.934 227.048 373.459 229.282C369.765 232.61 365.822 235.947 361.619 239.187C355.469 239.167 349.358 238.962 343.256 238.601C342.038 238.533 340.819 238.445 339.601 238.357C345.779 233.117 351.708 227.507 357.321 221.613C359.47 221.788 361.591 221.925 363.72 222.062C367.952 222.306 372.192 222.472 376.471 222.559C378.947 220.218 381.336 217.739 383.6 215.153C384.041 214.655 384.463 214.168 384.905 213.64C378.313 213.66 371.693 213.485 365.121 213.104C368.326 209.416 371.425 205.629 374.418 201.736C370.945 201.424 367.472 201.014 364.018 200.546C362.694 202.214 361.341 203.853 359.902 205.473C357.974 207.766 355.959 210.04 353.906 212.275C351.315 215.085 348.639 217.837 345.913 220.491C344.033 222.355 342.105 224.179 340.157 225.955C335.888 229.868 331.465 233.605 326.926 237.187C321.726 236.601 316.507 235.879 311.345 235.049C316.834 229.175 321.813 223.301 326.284 217.671C331.398 218.568 336.55 219.359 341.731 219.993H341.75C344.762 217.475 347.612 214.773 350.27 211.913C344.34 211.308 338.411 210.538 332.501 209.591C335.955 204.907 339.054 200.458 341.75 196.379C342.239 195.618 342.719 194.896 343.189 194.173C350.74 195.842 358.367 197.121 366.023 198.018C369.074 198.379 372.135 198.672 375.186 198.916C375.608 198.965 376.03 198.984 376.471 199.004C381.719 199.384 387.044 199.589 392.714 199.589C395.477 199.589 398.25 199.541 401.014 199.413H401.033C404.88 199.296 408.737 199.072 412.584 198.74C420.087 198.086 427.561 197.072 434.977 195.706C434.133 196.945 433.25 198.203 432.319 199.482H432.31Z" fill="#0090D6"/>
<path d="M262.742 69.3065C253.502 59.1584 242.498 54.0645 229.766 54.0645C217.035 54.0645 207.517 58.0751 200.772 66.135V17.209H171.549V144.462C181.19 142.774 188.137 144.14 192.656 145.623C201.032 148.414 205.099 153.009 216.449 156.415C220.795 157.664 224.518 158.249 227.003 158.572C227.886 158.63 228.807 158.66 229.776 158.66C242.642 158.66 253.656 153.654 262.751 143.652C271.847 133.591 276.366 121.17 276.366 106.396C276.366 91.6229 271.847 79.3764 262.751 69.3162L262.742 69.3065ZM248.84 127.59C246.777 129.659 244.494 131.347 241.98 132.596C242.037 131.864 242.066 130.732 241.778 129.425C241.011 125.697 238.574 123.375 237.519 122.418C232.452 117.735 228.567 120.438 221.535 116.047C220.393 115.344 216.958 113.08 214.099 108.865C210.952 104.239 210.069 99.6146 209.753 97.0872C213.302 96.6186 215.903 97.1748 217.649 97.7895C220.422 98.746 221.592 100.034 224.537 100.697C226.965 101.254 229.114 101.02 230.544 100.727C229.517 97.7019 228.03 95.721 226.802 94.4428C221.083 88.5684 210.933 87.6413 200.782 91.5934C202.096 88.2173 204.015 85.2798 206.529 82.7529C212.132 77.1711 219.193 74.4391 227.78 74.4391C236.367 74.4391 243.361 77.1711 248.859 82.7529C254.433 88.2758 257.264 95.7796 257.264 105.147C257.264 114.515 254.433 122.019 248.859 127.6L248.84 127.59Z" fill="white"/>
<path d="M79.942 56.7998V66.1379C73.2263 58.078 63.5262 54.0674 50.9485 54.0674C38.3703 54.0674 27.2122 59.1608 18.0017 69.3094C8.90635 79.3696 4.38745 91.7327 4.38745 106.389C4.38745 121.046 8.90635 133.585 18.0017 143.645C27.097 153.647 38.0728 158.653 50.9485 158.653C59.238 157.638 65.2151 155.13 69.1391 153.1C72.9957 151.031 72.9384 150.456 79.9517 146.182C92.5105 138.59 97.0294 137.946 98.9387 137.751C100.973 137.546 104.801 137.136 109.176 138.59V56.7998H79.9517H79.942ZM73.5046 124.022C69.2732 128.354 63.6704 130.569 56.8008 130.569C49.9312 130.569 44.2707 128.354 40.0397 124.022C35.7223 119.66 33.6019 113.786 33.6019 106.399C33.6019 99.0121 35.7223 93.0795 40.0397 88.7469C44.2707 84.3851 49.8739 82.1992 56.8008 82.1992C63.7278 82.1992 69.2732 84.3851 73.5046 88.7469C77.8219 93.0795 79.942 98.983 79.942 106.399C79.942 113.815 77.8219 119.66 73.5046 124.022Z" fill="white"/>
<path d="M125.774 150.503C125.947 150.591 126.177 150.727 126.398 150.815C128.931 152.035 131.54 152.796 136.779 154.338C144.32 156.553 150.662 157.86 154.96 158.67V17.2002H125.774V150.503Z" fill="white"/>
<path d="M358.742 56.7998V66.1379C352.026 58.078 342.355 54.0674 329.748 54.0674C317.141 54.0674 306.012 59.1608 296.801 69.3094C287.706 79.3696 283.187 91.7327 283.187 106.389C283.187 121.046 287.706 133.585 296.801 143.645C305.897 153.647 316.872 158.653 329.748 158.653C338.095 157.638 344.043 155.13 347.939 153.1C351.795 151.031 351.738 150.456 358.751 146.182C371.368 138.59 375.848 137.946 377.738 137.751C379.83 137.546 383.6 137.136 388.004 138.59V56.7998H358.751H358.742ZM352.333 124.022C348.073 128.354 342.47 130.569 335.543 130.569C328.616 130.569 323.099 128.354 318.839 124.022C314.522 119.66 312.402 113.786 312.402 106.399C312.402 99.0121 314.522 93.0795 318.839 88.7469C323.099 84.3851 328.674 82.1992 335.543 82.1992C342.412 82.1992 348.073 84.3851 352.333 88.7469C356.622 93.0795 358.742 98.983 358.742 106.399C358.742 113.815 356.622 119.66 352.333 124.022Z" fill="white"/>
<path d="M447.535 57.65C441.759 60.821 438.604 65.1049 437.702 66.3928C435.553 69.4569 434.402 72.3939 433.769 74.443V56.8008H404.583V150.496C404.755 150.584 404.986 150.721 405.206 150.809C407.739 152.028 410.349 152.789 415.587 154.331C423.08 156.546 429.422 157.854 433.769 158.663V111.113C433.769 102.136 436.829 95.8618 442.95 92.3C449.022 88.6018 455.72 87.3332 463.004 88.5142V54.049C460.103 53.932 454.004 54.0978 447.544 57.6398L447.535 57.65Z" fill="white"/>
</g>
</g>
<defs>
<clipPath id="clip0_1_22">
<rect width="463" height="352" fill="white"/>
</clipPath>
</defs>
</svg>
