<svg width="459" height="282" viewBox="0 0 459 282" fill="none" xmlns="http://www.w3.org/2000/svg">
<path d="M443.915 169.294C442.879 167.811 441.058 167.089 439.312 167.489C422.559 171.402 405.386 173.382 388.308 173.382C382.398 173.382 376.89 173.177 371.47 172.748C360.187 171.87 348.856 170.094 337.746 167.479C335.914 167.05 334.033 167.84 333.035 169.441C323.211 184.926 306.661 207.72 283.442 228.339C266.49 243.395 248.702 254.783 230.53 262.189C212.34 254.802 194.552 243.395 177.618 228.339C154.4 207.72 137.831 184.926 128.025 169.441C127.008 167.84 125.128 167.059 123.315 167.479C112.204 170.094 100.855 171.87 89.591 172.748C84.1509 173.177 78.6342 173.382 72.7532 173.382C55.6465 173.382 38.5015 171.402 21.75 167.489C20.0038 167.079 18.1617 167.801 17.1448 169.294C16.1086 170.806 16.0606 172.787 17.0296 174.339C17.9411 175.754 18.9101 177.266 19.9463 178.837C20.1669 179.179 20.3684 179.491 20.6083 179.823C30.0586 194.021 44.9679 213.741 64.7804 232.037C65.3752 232.574 65.9123 233.072 66.5071 233.657L66.5265 233.677H66.5455C94.7334 259.222 132.602 281.597 178.741 281.597C196.221 281.597 213.635 278.309 230.521 271.85C247.406 278.309 264.82 281.597 282.301 281.597C328.42 281.597 366.279 259.252 394.477 233.677C395.072 233.14 395.676 232.574 396.271 232.037C416.073 213.741 430.973 194.021 440.414 179.823C440.652 179.481 440.855 179.169 441.075 178.837C442.112 177.266 443.091 175.754 443.995 174.339C444.991 172.787 444.943 170.806 443.906 169.294H443.915ZM30.4616 178.496C37.8971 179.872 45.3807 180.877 52.8738 181.53C56.7211 181.872 60.597 182.096 64.4443 182.204C67.2074 182.34 69.9801 182.379 72.7435 182.379C78.404 182.379 83.7382 182.175 88.9864 181.794C89.4278 181.774 89.8498 181.745 90.2722 181.706C93.3038 181.462 96.3547 181.169 99.4154 180.808C107.072 179.911 114.728 178.622 122.278 176.964C122.739 177.686 123.228 178.408 123.718 179.169C126.414 183.238 129.493 187.678 132.967 192.361C127.056 193.328 121.127 194.099 115.179 194.704C117.836 197.582 120.715 200.285 123.718 202.783C128.898 202.149 134.05 201.368 139.184 200.461C143.654 206.091 148.634 211.965 154.122 217.84C148.97 218.669 143.741 219.391 138.541 219.976C133.983 216.425 129.58 212.658 125.31 208.745C123.363 206.969 121.434 205.144 119.554 203.281C116.81 200.626 114.152 197.875 111.562 195.065C109.499 192.84 107.494 190.586 105.546 188.293C104.126 186.673 102.754 185.004 101.43 183.345C97.9761 183.843 94.5221 184.224 91.0492 184.536C94.0137 188.429 97.1127 192.215 100.317 195.904C93.7452 196.284 87.1732 196.47 80.5819 196.44C81.0039 196.958 81.4263 197.455 81.8677 197.953C84.1223 200.519 86.492 203.017 88.9675 205.359C93.2174 205.271 97.4871 205.115 101.718 204.861C103.838 204.725 105.987 204.588 108.118 204.413C113.759 210.306 119.688 215.917 125.867 221.157C124.648 221.245 123.43 221.333 122.211 221.401C116.1 221.762 109.979 221.967 103.819 221.987C99.6169 218.728 95.6735 215.42 91.98 212.082C89.5045 209.858 87.1538 207.652 84.9186 205.418C81.8196 202.383 78.9221 199.368 76.2451 196.392C74.9597 194.977 73.7414 193.582 72.5707 192.206C70.5365 189.864 68.6563 187.59 66.9102 185.385C63.0342 185.336 59.1675 185.16 55.3105 184.916C57.853 188.342 60.7505 192.049 64.0316 195.943C56.6157 195.562 49.228 194.909 41.8786 193.982C38.6455 189.883 35.7288 185.97 33.1192 182.282C32.1885 181.003 31.3059 179.735 30.4616 178.505V178.496ZM50.0433 203.954C57.4597 204.657 64.8954 205.106 72.3308 205.281C77.3581 210.638 83.038 216.2 89.3895 221.684C81.1578 221.342 72.945 220.699 64.7609 219.703C59.4457 214.463 54.5335 209.145 50.0433 203.944V203.954ZM75.6886 229.861C84.0548 230.564 92.4885 230.944 100.874 230.964C101.517 230.983 102.178 230.983 102.821 230.983C107.206 230.983 111.581 230.896 115.966 230.71C118.22 230.623 120.485 230.505 122.739 230.369C127.143 230.095 131.566 229.734 135.998 229.285C140.354 228.856 144.691 228.32 149.037 227.715C153.287 227.11 157.537 226.436 161.74 225.665C162.872 226.817 164.023 227.92 165.174 228.993C167.323 231.091 169.53 233.111 171.794 235.14C175.383 238.312 178.99 241.356 182.636 244.215C181.178 244.42 179.69 244.625 178.213 244.82H178.194C176.601 244.059 175.047 243.269 173.502 242.458C166.758 238.994 160.205 235.14 153.805 230.915C153.786 230.934 153.786 230.915 153.786 230.915C149.401 231.618 144.998 232.193 140.594 232.72C147.521 237.716 154.65 242.332 162.037 246.499C160.003 246.654 157.969 246.811 155.926 246.928C155.465 246.947 155.014 246.976 154.553 246.996C154.668 247.064 154.793 247.133 154.908 247.172C160.838 250.011 167.035 252.461 173.32 254.461C174.452 254.324 175.603 254.217 176.726 254.051H176.774C181.513 256.305 186.291 258.374 191.184 260.267C186.253 259.457 181.341 258.491 176.486 257.301C173.608 256.598 170.758 255.837 167.918 255.007C165.99 254.441 164.071 253.856 162.162 253.231C156.76 251.456 151.608 249.494 146.629 247.338H146.61C144.998 246.664 143.424 245.962 141.87 245.22C134.703 241.932 127.997 238.263 121.713 234.399C116.646 234.74 111.552 234.964 106.467 235.052C112.579 239.356 119.151 243.493 126.183 247.338C115.764 247.045 105.335 246.235 95.0019 244.908H94.9829C94.9829 244.908 94.9635 244.908 94.9635 244.888C90.2528 241.668 85.782 238.253 81.4453 234.711C79.4976 233.14 77.5693 231.51 75.7177 229.871L75.6886 229.861ZM178.75 272.601C154.295 272.601 132.237 265.868 112.828 255.68C120.686 256.246 128.563 256.51 136.421 256.51C139.28 256.51 142.129 256.461 144.988 256.373H145.074C149.718 258.335 154.458 260.13 159.437 261.779C173.022 266.239 186.992 269.205 201.239 270.669C193.785 271.947 186.282 272.601 178.76 272.601H178.75ZM282.311 272.601C274.789 272.601 267.286 271.947 259.831 270.669C274.079 269.205 288.048 266.239 301.634 261.779C306.613 260.14 311.439 258.335 316.082 256.373C318.913 256.461 321.772 256.51 324.621 256.51C332.479 256.51 340.356 256.237 348.214 255.68C328.804 265.897 306.747 272.601 282.311 272.601ZM379.615 234.701C375.298 238.234 370.827 241.659 366.116 244.879C366.116 244.898 366.097 244.898 366.097 244.898H366.049C355.716 246.225 345.297 247.035 334.887 247.328C341.919 243.483 348.492 239.336 354.603 235.043C349.518 234.955 344.424 234.73 339.358 234.389C333.074 238.263 326.348 241.932 319.172 245.24C317.627 245.962 316.054 246.654 314.461 247.338C309.482 249.494 304.3 251.456 298.908 253.231C297.009 253.865 295.081 254.451 293.152 255.007C290.322 255.837 287.463 256.608 284.585 257.301C279.72 258.491 274.808 259.486 269.847 260.267C274.741 258.374 279.586 256.305 284.316 254.051C285.448 254.188 286.599 254.324 287.751 254.461C294.035 252.461 300.233 250.001 306.162 247.172C306.277 247.123 306.402 247.055 306.517 246.996C306.056 246.976 305.605 246.947 305.145 246.928C303.082 246.811 301.048 246.654 298.995 246.499C306.383 242.332 313.559 237.716 320.486 232.72C316.082 232.203 311.678 231.618 307.275 230.915C300.875 235.15 294.304 238.994 287.559 242.458C286.014 243.269 284.44 244.059 282.848 244.82C281.389 244.615 279.931 244.41 278.444 244.215C282.099 241.356 285.707 238.321 289.286 235.14C291.54 233.111 293.756 231.091 295.906 228.993C297.057 227.909 298.208 226.807 299.34 225.665C303.542 226.426 307.774 227.11 312.043 227.715C316.38 228.32 320.716 228.866 325.082 229.285C329.505 229.734 333.937 230.095 338.341 230.369C340.596 230.505 342.831 230.612 345.086 230.71C349.47 230.886 353.845 230.983 358.23 230.983C358.873 230.983 359.535 230.983 360.177 230.964C368.582 230.944 376.996 230.554 385.362 229.861C383.501 231.53 381.582 233.12 379.634 234.701H379.615ZM396.271 219.713C388.087 220.699 379.874 221.352 371.643 221.694C377.994 216.2 383.703 210.668 388.73 205.291C396.165 205.115 403.582 204.657 410.988 203.964C406.499 209.165 401.586 214.473 396.271 219.723V219.713ZM427.922 182.282C425.313 185.97 422.387 189.893 419.163 193.982C411.814 194.909 404.426 195.552 397.038 195.943C400.31 192.049 403.217 188.331 405.76 184.916C401.912 185.16 398.036 185.346 394.16 185.385C392.414 187.59 390.533 189.864 388.5 192.206C387.329 193.582 386.091 194.977 384.825 196.392C382.129 199.338 379.251 202.383 376.152 205.418C373.897 207.623 371.547 209.848 369.071 212.082C365.378 215.41 361.434 218.747 357.232 221.987C351.082 221.967 344.971 221.762 338.868 221.401C337.65 221.333 336.432 221.245 335.213 221.157C341.392 215.917 347.321 210.306 352.934 204.413C355.083 204.588 357.203 204.725 359.333 204.861C363.564 205.106 367.805 205.271 372.084 205.359C374.559 203.017 376.948 200.539 379.212 197.953C379.654 197.455 380.076 196.967 380.517 196.44C373.926 196.46 367.306 196.284 360.734 195.904C363.938 192.215 367.037 188.429 370.031 184.536C366.558 184.224 363.085 183.814 359.631 183.345C358.306 185.014 356.954 186.653 355.515 188.273C353.586 190.566 351.571 192.84 349.518 195.074C346.928 197.885 344.251 200.637 341.526 203.291C339.646 205.154 337.718 206.979 335.77 208.755C331.5 212.668 327.077 216.405 322.539 219.986C317.339 219.401 312.12 218.679 306.958 217.849C312.446 211.975 317.425 206.101 321.897 200.471C327.01 201.368 332.162 202.158 337.343 202.793H337.362C340.375 200.275 343.225 197.572 345.882 194.713C339.953 194.108 334.024 193.337 328.114 192.391C331.568 187.707 334.666 183.257 337.362 179.179C337.852 178.417 338.331 177.695 338.801 176.973C346.352 178.642 353.979 179.92 361.636 180.818C364.687 181.179 367.747 181.472 370.798 181.716C371.221 181.764 371.643 181.784 372.084 181.804C377.332 182.184 382.657 182.389 388.327 182.389C391.09 182.389 393.863 182.34 396.626 182.213H396.645C400.492 182.096 404.349 181.872 408.197 181.54C415.7 180.886 423.173 179.872 430.59 178.505C429.745 179.745 428.863 181.003 427.932 182.282H427.922Z" fill="#0090D6"/>
<path d="M258.354 52.1063C249.115 41.9582 238.11 36.8643 225.379 36.8643C212.647 36.8643 203.13 40.8749 196.385 48.9348V0.00878906H167.161V127.261C176.803 125.574 183.749 126.939 188.268 128.423C196.644 131.213 200.712 135.809 212.062 139.215C216.408 140.464 220.131 141.049 222.616 141.371C223.499 141.43 224.419 141.459 225.388 141.459C238.254 141.459 249.269 136.453 258.364 126.452C267.459 116.391 271.978 103.97 271.978 89.1961C271.978 74.4227 267.459 62.1762 258.364 52.116L258.354 52.1063ZM244.452 110.39C242.389 112.459 240.106 114.147 237.592 115.396C237.65 114.664 237.679 113.532 237.391 112.224C236.623 108.497 234.186 106.175 233.131 105.218C228.065 100.534 224.179 103.237 217.147 98.8466C216.005 98.144 212.57 95.8802 209.711 91.6645C206.565 87.0392 205.682 82.4144 205.365 79.887C208.915 79.4184 211.515 79.9746 213.261 80.5893C216.034 81.5458 217.204 82.8337 220.15 83.4972C222.577 84.0534 224.727 83.8193 226.156 83.5267C225.129 80.5017 223.642 78.5208 222.414 77.2426C216.696 71.3682 206.545 70.4411 196.395 74.3932C197.709 71.0171 199.628 68.0796 202.141 65.5527C207.745 59.9709 214.806 57.2389 223.393 57.2389C231.98 57.2389 238.974 59.9709 244.472 65.5527C250.046 71.0756 252.876 78.5794 252.876 87.947C252.876 97.3146 250.046 104.818 244.472 110.4L244.452 110.39Z" fill="white"/>
<path d="M75.5546 39.5996V48.9377C68.8389 40.8778 59.1388 36.8672 46.5611 36.8672C33.9828 36.8672 22.8247 41.9606 13.6143 52.1092C4.5189 62.1694 0 74.5325 0 89.1889C0 103.845 4.5189 116.384 13.6143 126.445C22.7096 136.447 33.6854 141.453 46.5611 141.453C54.8505 140.437 60.8276 137.93 64.7517 135.9C68.6082 133.831 68.5509 133.256 75.5643 128.982C88.123 121.39 92.6419 120.746 94.5512 120.551C96.5854 120.346 100.413 119.936 104.788 121.39V39.5996H75.5643H75.5546ZM69.1171 106.821C64.8857 111.154 59.283 113.369 52.4134 113.369C45.5438 113.369 39.8833 111.154 35.6522 106.821C31.3348 102.46 29.2145 96.5857 29.2145 89.199C29.2145 81.8119 31.3348 75.8793 35.6522 71.5467C39.8833 67.1849 45.4865 64.999 52.4134 64.999C59.3403 64.999 64.8857 67.1849 69.1171 71.5467C73.4345 75.8793 75.5546 81.7828 75.5546 89.199C75.5546 96.6148 73.4345 102.46 69.1171 106.821Z" fill="white"/>
<path d="M121.387 133.302C121.56 133.39 121.79 133.527 122.01 133.615C124.543 134.834 127.153 135.596 132.392 137.137C139.932 139.352 146.274 140.66 150.572 141.47V0H121.387V133.302Z" fill="white"/>
<path d="M354.354 39.5996V48.9377C347.639 40.8778 337.967 36.8672 325.36 36.8672C312.753 36.8672 301.624 41.9606 292.414 52.1092C283.319 62.1694 278.8 74.5325 278.8 89.1889C278.8 103.845 283.319 116.384 292.414 126.445C301.509 136.447 312.485 141.453 325.36 141.453C333.708 140.437 339.656 137.93 343.551 135.9C347.408 133.831 347.351 133.256 354.364 128.982C366.98 121.39 371.461 120.746 373.351 120.551C375.442 120.346 379.213 119.936 383.617 121.39V39.5996H354.364H354.354ZM347.945 106.821C343.685 111.154 338.083 113.369 331.155 113.369C324.228 113.369 318.712 111.154 314.452 106.821C310.134 102.46 308.014 96.5857 308.014 89.199C308.014 81.8119 310.134 75.8793 314.452 71.5467C318.712 67.1849 324.286 64.999 331.155 64.999C338.025 64.999 343.685 67.1849 347.945 71.5467C352.234 75.8793 354.354 81.7828 354.354 89.199C354.354 96.6148 352.234 102.46 347.945 106.821Z" fill="white"/>
<path d="M443.148 40.4498C437.372 43.6208 434.217 47.9047 433.314 49.1926C431.166 52.2567 430.014 55.1937 429.381 57.2428V39.6006H400.195V133.296C400.368 133.384 400.598 133.52 400.819 133.608C403.352 134.828 405.961 135.589 411.2 137.131C418.693 139.346 425.035 140.654 429.381 141.463V93.9133C429.381 84.936 432.441 78.6616 438.562 75.0998C444.634 71.4016 451.332 70.133 458.617 71.314V36.8488C455.715 36.7318 449.617 36.8976 443.157 40.4396L443.148 40.4498Z" fill="white"/>
</svg>
