<svg width="16" height="17" viewBox="0 0 16 17" fill="none" xmlns="http://www.w3.org/2000/svg">
<path fill-rule="evenodd" clip-rule="evenodd" d="M11.162 1.54089C9.59625 2.03164 9.156 3.78014 9.03975 5.03139C10.7437 5.48989 11.9998 7.04139 11.9998 8.89039C11.9998 11.0991 10.2087 12.8904 7.99975 12.8904C5.79075 12.8904 3.99975 11.0994 3.99975 8.89039C3.99975 5.58139 6.28225 2.41664 11.161 1.54039C10.1626 1.11039 9.08681 0.889103 7.99975 0.89014C3.581 0.89014 0 4.47214 0 8.89039C0 13.3081 3.581 16.8901 7.99975 16.8901C12.4175 16.8901 15.9995 13.3081 15.9995 8.89039C15.9995 5.59564 14.007 2.76689 11.162 1.54089Z" fill="white"/>
</svg>
