<svg width="16" height="16" viewBox="0 0 16 16" fill="none" xmlns="http://www.w3.org/2000/svg">
<path fill-rule="evenodd" clip-rule="evenodd" d="M8.72149 -0.0498042H7.27749C7.12674 -0.0498042 7.00449 0.0724458 7.00449 0.223696V5.75195C7.00449 5.9027 7.12674 6.02545 7.27749 6.02545H8.72149C8.87324 6.02545 8.99574 5.90245 8.99574 5.75195V0.223696C8.99571 0.187725 8.98859 0.152114 8.97478 0.118897C8.96098 0.0856807 8.94077 0.0555101 8.9153 0.03011C8.88983 0.00470988 8.8596 -0.0154216 8.82635 -0.0291338C8.79309 -0.042846 8.75746 -0.0498699 8.72149 -0.0498042ZM15.9522 6.04795L15.9395 6.0072C15.7732 5.4682 15.2227 5.1732 14.7107 5.34795L11.0775 6.59045C10.5655 6.76595 10.2845 7.34545 10.451 7.88445L10.4635 7.9252C10.63 8.46445 11.1805 8.75995 11.6925 8.58445L15.3257 7.34195C15.8377 7.1667 16.1185 6.5872 15.9522 6.04795ZM10.8925 11.1407C10.5765 10.6822 9.96624 10.5802 9.53124 10.9137L9.49849 10.9387C9.06249 11.2722 8.96599 11.9144 9.28224 12.3732L11.528 15.6267C11.844 16.0854 12.4545 16.1874 12.8892 15.8537L12.9222 15.8287C13.3582 15.4952 13.4545 14.8529 13.1385 14.3942L10.8925 11.1407ZM5.53649 7.92545L5.54899 7.8847C5.71549 7.3457 5.43449 6.7662 4.92249 6.5907L1.28924 5.3482C0.777242 5.1732 0.226742 5.4682 0.0604924 6.00745L0.0477424 6.0482C-0.118508 6.58745 0.162242 7.1667 0.674242 7.3422L4.30649 8.5847C4.81949 8.7602 5.36999 8.46445 5.53649 7.92545ZM6.50149 10.9387L6.46874 10.9137C6.03374 10.5802 5.42324 10.6822 5.10624 11.1407L2.86149 14.3942C2.54424 14.8529 2.64174 15.4952 3.07774 15.8287L3.10949 15.8537C3.54549 16.1872 4.15624 16.0854 4.47199 15.6267L6.71774 12.3732C7.03399 11.9144 6.93749 11.2722 6.50149 10.9387Z" fill="white"/>
</svg>
