<svg width="39" height="38" viewBox="0 0 39 38" fill="none" xmlns="http://www.w3.org/2000/svg">
<rect x="0.333008" width="38" height="38" rx="8" fill="#FD9302"/>
<path d="M31.3533 19C31.3533 17.7318 29.9369 16.7106 29.5663 15.5659C29.1792 14.3883 29.7145 12.7247 28.9981 11.7365C28.2734 10.74 26.5192 10.74 25.531 10.0153C24.5427 9.29886 23.9992 7.63531 22.8216 7.24822C21.6769 6.87768 20.2686 7.89885 19.0004 7.89885C17.7404 7.89885 16.3239 6.87768 15.1792 7.24822C14.0016 7.63531 13.4581 9.29886 12.4781 10.0153C11.4816 10.74 9.72745 10.74 9.01099 11.7365C8.29452 12.7247 8.82159 14.38 8.44275 15.5659C8.07215 16.7106 6.64746 17.7318 6.64746 19C6.64746 20.2682 8.07215 21.2894 8.44275 22.4341C8.82159 23.6117 8.29452 25.2753 9.01099 26.2635C9.72745 27.2518 11.4816 27.26 12.4781 27.9847C13.4581 28.7012 14.0016 30.3647 15.1792 30.7518C16.3239 31.1224 17.7404 30.1012 19.0004 30.1012C20.2686 30.1012 21.6769 31.1224 22.8216 30.7518C23.9992 30.3647 24.5427 28.7012 25.531 27.9847C26.5192 27.26 28.2734 27.2518 28.9981 26.2635C29.7145 25.2753 29.1792 23.6117 29.5663 22.4341C29.9369 21.2894 31.3533 20.2682 31.3533 19ZM24.6086 17.7318L22.1298 20.153L22.7145 23.5706C22.7804 23.9329 22.3933 24.2047 22.064 24.04L19.0004 22.4259L15.9369 24.04C15.6075 24.2047 15.2286 23.9329 15.2863 23.5706L15.871 20.153L13.3922 17.7318C13.1286 17.4765 13.2769 17.0235 13.6392 16.9741L17.0651 16.48L18.6051 13.367C18.7616 13.0377 19.2392 13.0377 19.4039 13.367L20.9357 16.48L24.3616 16.9741C24.7239 17.0235 24.8722 17.4765 24.6086 17.7318Z" fill="white"/>
</svg>
