<svg width="38" height="38" viewBox="0 0 38 38" fill="none" xmlns="http://www.w3.org/2000/svg">
<rect width="38" height="38" rx="8" fill="#FD9302"/>
<g clip-path="url(#clip0_47_646)">
<path d="M17.5234 20.9492C17.1838 20.9492 16.9082 21.2248 16.9082 21.5645V24.903H22.0925V21.5645C22.0925 21.2248 21.8169 20.9492 21.4773 20.9492H17.5234Z" fill="white"/>
<path d="M10.9326 20.9492C10.5931 20.9492 10.3174 21.2248 10.3174 21.5645V24.9633C10.5164 24.9236 10.7223 24.903 10.9326 24.903H15.5018V21.5645C15.5018 21.2248 15.2266 20.9492 14.8866 20.9492H10.9326Z" fill="white"/>
<path d="M9.61523 10.2307H25.4746V11.9966L22.3598 15.1114C22.1197 15.3516 22.1197 15.7412 22.3598 15.9814L23.4977 17.1192V20.8182C23.4977 21.158 23.7731 21.4334 24.1129 21.4334H28.0668C28.4066 21.4334 28.682 21.158 28.682 20.8182V17.1192L29.8199 15.9814C30.06 15.7412 30.06 15.3516 29.8199 15.1114L26.7051 11.9966V10.2307H29.3847C29.7245 10.2307 29.9999 9.9553 29.9999 9.61548C29.9999 9.27566 29.7245 9.00024 29.3847 9.00024H9.61523C9.27541 9.00024 9 9.27566 9 9.61548C9 9.9553 9.27541 10.2307 9.61523 10.2307ZM28.5146 15.5464L27.8119 16.2491H24.3677L23.665 15.5464L26.0898 13.1215L28.5146 15.5464Z" fill="white"/>
<path d="M28.0668 26.1337H10.9332C9.86725 26.1337 9 27.0009 9 28.0668C9 29.1329 9.86725 30 10.9332 30H28.0668C29.1327 30 29.9999 29.1328 29.9999 28.0668C29.9999 27.0009 29.1327 26.1337 28.0668 26.1337ZM10.9332 28.7696C10.5458 28.7696 10.2305 28.4544 10.2305 28.0668C10.2305 27.6794 10.5458 27.3641 10.9332 27.3641C11.3206 27.3641 11.6359 27.6794 11.6359 28.0668C11.6359 28.4544 11.3207 28.7696 10.9332 28.7696ZM19.5 28.7696C19.1126 28.7696 18.7973 28.4544 18.7973 28.0668C18.7973 27.6794 19.1126 27.3641 19.5 27.3641C19.8874 27.3641 20.2027 27.6794 20.2027 28.0668C20.2027 28.4544 19.8874 28.7696 19.5 28.7696ZM28.0668 28.7696C27.6794 28.7696 27.3641 28.4544 27.3641 28.0668C27.3641 27.6794 27.6794 27.3641 28.0668 27.3641C28.4542 27.3641 28.7695 27.6793 28.7695 28.0668C28.7695 28.4544 28.4542 28.7696 28.0668 28.7696Z" fill="white"/>
</g>
<defs>
<clipPath id="clip0_47_646">
<rect width="21" height="21" fill="white" transform="translate(9 9)"/>
</clipPath>
</defs>
</svg>
