<svg width="38" height="38" viewBox="0 0 38 38" fill="none" xmlns="http://www.w3.org/2000/svg">
<rect width="38" height="38" rx="8" fill="#FD9302"/>
<path d="M28.1912 14.3793H12.0355C11.6208 14.3793 11.2855 14.0433 11.2855 13.6293C11.2855 13.2153 11.6208 12.8793 12.0355 12.8793H25.2145V10.0668C25.2145 9.66702 25.0352 9.29427 24.7233 9.04452C24.4097 8.79327 24.004 8.70252 23.617 8.78952L9.5215 11.9545C8.92075 12.0895 8.5 12.6153 8.5 13.2318V27.934C8.5 28.6555 9.08725 29.2435 9.80875 29.2435H28.1912C28.9128 29.2435 29.5 28.6563 29.5 27.934V15.688C29.5 14.9665 28.9128 14.3793 28.1912 14.3793ZM25.8295 23.1483C25.1283 23.1483 24.5583 22.5775 24.5583 21.8763C24.5583 21.175 25.129 20.6043 25.8295 20.6043C26.5315 20.6043 27.1015 21.175 27.1015 21.8763C27.1015 22.5775 26.5315 23.1483 25.8295 23.1483Z" fill="white"/>
</svg>
