<svg width="38" height="38" viewBox="0 0 38 38" fill="none" xmlns="http://www.w3.org/2000/svg">
<rect width="38" height="38" rx="8" fill="#FD9302"/>
<g clip-path="url(#clip0_49_1021)">
<path d="M18.25 20.3125C18.25 20.0028 17.9965 19.75 17.6875 19.75H14.875V22C14.875 22.414 14.539 22.75 14.125 22.75C13.711 22.75 13.375 22.414 13.375 22V19.75H10.5625C10.2528 19.75 10 20.0028 10 20.3125V27.4375C10 27.7473 10.2528 28 10.5625 28H17.6875C17.9965 28 18.25 27.7473 18.25 27.4375V20.3125Z" fill="white"/>
<path d="M28 20.3125C28 20.0028 27.7465 19.75 27.4375 19.75H24.625V22C24.625 22.414 24.289 22.75 23.875 22.75C23.461 22.75 23.125 22.414 23.125 22V19.75H20.3125C20.0028 19.75 19.75 20.0028 19.75 20.3125V27.4375C19.75 27.7473 20.0028 28 20.3125 28H27.4375C27.7465 28 28 27.7473 28 27.4375V20.3125Z" fill="white"/>
<path d="M23.125 10.5625C23.125 10.2535 22.8715 10 22.5625 10H19.75V12.25C19.75 12.664 19.414 13 19 13C18.586 13 18.25 12.664 18.25 12.25V10H15.4375C15.1278 10 14.875 10.2535 14.875 10.5625V17.6875C14.875 17.9973 15.1278 18.25 15.4375 18.25H22.5625C22.8715 18.25 23.125 17.9973 23.125 17.6875V10.5625Z" fill="white"/>
</g>
<defs>
<clipPath id="clip0_49_1021">
<rect width="18" height="18" fill="white" transform="translate(10 10)"/>
</clipPath>
</defs>
</svg>
