<svg width="38" height="38" viewBox="0 0 38 38" fill="none" xmlns="http://www.w3.org/2000/svg">
<rect width="38" height="38" rx="8" fill="#FD9302"/>
<path d="M19 29.75C17.2117 29.7533 15.4658 29.2055 14 28.181C13.8367 28.0672 13.7254 27.8933 13.6904 27.6974C13.6554 27.5015 13.6997 27.2997 13.8135 27.1365C13.9272 26.9733 14.1012 26.8619 14.2971 26.8269C14.493 26.792 14.6947 26.8362 14.858 26.95C15.9451 27.7069 17.2188 28.1514 18.5408 28.2354C19.8628 28.3194 21.1826 28.0396 22.3567 27.4263C23.5309 26.8131 24.5146 25.8899 25.2011 24.7569C25.8875 23.624 26.2504 22.3247 26.2504 21C26.2504 19.6753 25.8875 18.376 25.2011 17.2431C24.5146 16.1101 23.5309 15.1869 22.3567 14.5737C21.1826 13.9604 19.8628 13.6806 18.5408 13.7646C17.2188 13.8486 15.9451 14.2931 14.858 15.05C14.7771 15.1063 14.686 15.1462 14.5898 15.1673C14.4935 15.1884 14.3941 15.1904 14.2971 15.1731C14.2001 15.1558 14.1075 15.1195 14.0245 15.0664C13.9415 15.0133 13.8698 14.9443 13.8135 14.8635C13.7571 14.7827 13.7173 14.6915 13.6961 14.5953C13.675 14.4991 13.6731 14.3996 13.6904 14.3026C13.7254 14.1067 13.8367 13.9328 14 13.819C15.1271 13.0343 16.4231 12.5259 17.7831 12.335C19.1432 12.144 20.5291 12.2759 21.8287 12.72C23.1283 13.1641 24.3051 13.9078 25.264 14.891C26.2228 15.8743 26.9368 17.0694 27.348 18.3798C27.7593 19.6902 27.8563 21.0789 27.6313 22.4337C27.4062 23.7886 26.8654 25.0714 26.0527 26.1784C25.2399 27.2855 24.1779 28.1856 22.9527 28.8061C21.7274 29.4266 20.3733 29.7499 19 29.75Z" fill="white"/>
<path d="M14 22.25H10C9.80109 22.25 9.61032 22.171 9.46967 22.0303C9.32902 21.8897 9.25 21.6989 9.25 21.5C9.25 21.3011 9.32902 21.1103 9.46967 20.9697C9.61032 20.829 9.80109 20.75 10 20.75H14C14.1989 20.75 14.3897 20.829 14.5303 20.9697C14.671 21.1103 14.75 21.3011 14.75 21.5C14.75 21.6989 14.671 21.8897 14.5303 22.0303C14.3897 22.171 14.1989 22.25 14 22.25Z" fill="white"/>
<path d="M14.68 19.25H9C8.80109 19.25 8.61032 19.171 8.46967 19.0303C8.32902 18.8897 8.25 18.6989 8.25 18.5C8.25 18.3011 8.32902 18.1103 8.46967 17.9697C8.61032 17.829 8.80109 17.75 9 17.75H14.68C14.8789 17.75 15.0697 17.829 15.2103 17.9697C15.351 18.1103 15.43 18.3011 15.43 18.5C15.43 18.6989 15.351 18.8897 15.2103 19.0303C15.0697 19.171 14.8789 19.25 14.68 19.25Z" fill="white"/>
<path d="M15 25.25H9C8.80109 25.25 8.61032 25.171 8.46967 25.0303C8.32902 24.8897 8.25 24.6989 8.25 24.5C8.25 24.3011 8.32902 24.1103 8.46967 23.9697C8.61032 23.829 8.80109 23.75 9 23.75H15C15.1989 23.75 15.3897 23.829 15.5303 23.9697C15.671 24.1103 15.75 24.3011 15.75 24.5C15.75 24.6989 15.671 24.8897 15.5303 25.0303C15.3897 25.171 15.1989 25.25 15 25.25Z" fill="white"/>
<path d="M28.6187 10.641L25.2467 8.48796C24.855 8.23907 24.3807 8.15562 23.9276 8.25591C23.4745 8.3562 23.0797 8.63204 22.8297 9.02296L22.2917 9.86596C22.0425 10.2573 21.9587 10.7315 22.0588 11.1844C22.159 11.6374 22.4348 12.0321 22.8257 12.282L26.1997 14.434C26.5911 14.682 27.0648 14.7651 27.5173 14.6651C27.9698 14.565 28.3643 14.29 28.6147 13.9L29.1527 13.057C29.4013 12.6655 29.4847 12.1915 29.3847 11.7387C29.2846 11.2858 29.0091 10.8911 28.6187 10.641Z" fill="white"/>
<path d="M23.8393 15.1619C23.705 15.1617 23.5732 15.1253 23.4578 15.0567C23.3423 14.9882 23.2474 14.8898 23.1829 14.772C23.1184 14.6542 23.0868 14.5212 23.0912 14.387C23.0957 14.2528 23.1361 14.1222 23.2083 14.0089L24.2833 12.3229C24.3363 12.2399 24.4051 12.1681 24.4859 12.1116C24.5666 12.0551 24.6577 12.0151 24.7539 11.9939C24.8501 11.9726 24.9495 11.9705 25.0465 11.9877C25.1435 12.0048 25.2362 12.041 25.3193 12.0939C25.4024 12.1469 25.4742 12.2158 25.5306 12.2965C25.5871 12.3772 25.6271 12.4683 25.6484 12.5645C25.6696 12.6607 25.6717 12.7602 25.6546 12.8572C25.6374 12.9542 25.6013 13.0469 25.5483 13.1299L24.4723 14.8149C24.4047 14.9216 24.3112 15.0093 24.2005 15.07C24.0898 15.1307 23.9655 15.1623 23.8393 15.1619Z" fill="white"/>
<path d="M19 15.25C17.8628 15.25 16.7511 15.5872 15.8055 16.2191C14.8599 16.8509 14.1229 17.7489 13.6877 18.7996C13.2525 19.8503 13.1386 21.0064 13.3605 22.1218C13.5824 23.2372 14.13 24.2617 14.9341 25.0659C15.7383 25.87 16.7628 26.4177 17.8782 26.6395C18.9936 26.8614 20.1498 26.7475 21.2004 26.3123C22.2511 25.8771 23.1491 25.1401 23.781 24.1945C24.4128 23.249 24.75 22.1372 24.75 21C24.7551 20.2435 24.6098 19.4935 24.3226 18.7936C24.0354 18.0937 23.6121 17.4578 23.0771 16.9229C22.5422 16.3879 21.9063 15.9646 21.2064 15.6774C20.5065 15.3902 19.7565 15.245 19 15.25ZM21.492 19.83L20.471 20.716C20.4898 20.8095 20.4995 20.9046 20.5 21C20.5051 21.3245 20.4065 21.6421 20.2185 21.9067C20.0305 22.1712 19.763 22.3688 19.4549 22.4708C19.1468 22.5727 18.8142 22.5736 18.5056 22.4734C18.1969 22.3732 17.9283 22.1771 17.7388 21.9136C17.5494 21.6501 17.449 21.333 17.4523 21.0085C17.4555 20.684 17.5623 20.3691 17.757 20.1094C17.9518 19.8498 18.2243 19.6592 18.5349 19.5652C18.8455 19.4712 19.178 19.4789 19.484 19.587L20.508 18.697C20.6582 18.5665 20.8542 18.5011 21.0527 18.515C21.2512 18.529 21.436 18.6213 21.5665 18.7715C21.697 18.9218 21.7624 19.1177 21.7485 19.3162C21.7345 19.5147 21.6422 19.6995 21.492 19.83Z" fill="white"/>
</svg>
