<svg width="39" height="38" viewBox="0 0 39 38" fill="none" xmlns="http://www.w3.org/2000/svg">
<rect x="0.333008" width="38" height="38" rx="8" fill="#FD9302"/>
<path d="M26.8678 11.995L19.6078 8.65L19.4953 8.605C19.1705 8.52246 18.8302 8.52246 18.5053 8.605L18.3928 8.65L11.1328 11.995C10.7899 12.1529 10.5026 12.4106 10.3086 12.7344C10.1146 13.0583 10.0228 13.4331 10.0453 13.81L10.3003 18.07C10.445 20.5202 11.2833 22.8788 12.7175 24.8706C14.1517 26.8625 16.1225 28.4056 18.4003 29.32C18.5912 29.4059 18.7985 29.4494 19.0078 29.4475C19.2068 29.4506 19.404 29.4096 19.5853 29.3275C21.8659 28.4154 23.8399 26.8732 25.2769 24.8812C26.7138 22.8891 27.5544 20.5294 27.7003 18.0775L27.9553 13.8175C27.9794 13.4394 27.8884 13.0629 27.6943 12.7376C27.5001 12.4122 27.212 12.1533 26.8678 11.995ZM22.9378 17.245L18.9328 21.745C18.8677 21.8196 18.7884 21.8805 18.6996 21.9242C18.6108 21.968 18.5142 21.9938 18.4153 22H18.3778C18.1894 22.0014 18.0073 21.9318 17.8678 21.805L15.1153 19.27C14.9691 19.1347 14.8827 18.9469 14.8749 18.7479C14.8672 18.5489 14.9388 18.3549 15.0741 18.2087C15.2093 18.0625 15.3971 17.9761 15.5962 17.9683C15.7952 17.9606 15.9891 18.0322 16.1353 18.1675L18.3253 20.185L21.8128 16.255C21.9467 16.1156 22.1292 16.0333 22.3223 16.0252C22.5154 16.0171 22.7041 16.0838 22.8492 16.2115C22.9943 16.3392 23.0845 16.5179 23.101 16.7105C23.1175 16.903 23.0591 17.0945 22.9378 17.245Z" fill="white"/>
</svg>
