<svg width="39" height="38" viewBox="0 0 39 38" fill="none" xmlns="http://www.w3.org/2000/svg">
<rect x="0.666992" width="38" height="38" rx="8" fill="#FD9302"/>
<g clip-path="url(#clip0_47_299)">
<path d="M29.9593 20.0154C30.1324 19.9097 30.2754 19.7614 30.3746 19.5846C30.4739 19.4077 30.526 19.2084 30.526 19.0056C30.526 18.8028 30.4739 18.6035 30.3746 18.4266C30.2754 18.2498 30.1324 18.1015 29.9593 17.9958C28.1345 16.8897 26.4496 15.5678 24.941 14.0586C23.4333 12.5502 22.1128 10.8657 21.008 9.04157C20.9027 8.86828 20.7547 8.72496 20.578 8.62538C20.4014 8.5258 20.2021 8.47329 19.9993 8.4729C19.7966 8.47251 19.5971 8.52426 19.4201 8.62316C19.2431 8.72207 19.0945 8.86482 18.9885 9.03771C17.8768 10.8569 16.5535 12.538 15.0461 14.0457C13.5381 15.5534 11.8568 16.877 10.0372 17.989C9.86438 18.0949 9.72166 18.2436 9.6228 18.4206C9.52393 18.5977 9.47223 18.7972 9.47266 18.9999C9.47309 19.2027 9.52564 19.402 9.62526 19.5786C9.72488 19.7552 9.86823 19.9032 10.0415 20.0085C11.8608 21.1099 13.541 22.426 15.0461 23.9285C16.5598 25.4399 17.8851 27.1288 18.9932 28.9584C19.0989 29.1315 19.2472 29.2746 19.424 29.3738C19.6008 29.4731 19.8002 29.5252 20.003 29.5252C20.2058 29.5252 20.4051 29.4731 20.582 29.3738C20.7588 29.2746 20.9071 29.1315 21.0128 28.9584C23.2351 25.3035 26.3034 22.2363 29.9593 20.0154Z" fill="white"/>
</g>
<defs>
<clipPath id="clip0_47_299">
<rect width="22" height="22" fill="white" transform="translate(9 8)"/>
</clipPath>
</defs>
</svg>
