<svg width="38" height="38" viewBox="0 0 38 38" fill="none" xmlns="http://www.w3.org/2000/svg">
<rect width="38" height="38" rx="8" fill="#FD9302"/>
<g clip-path="url(#clip0_5_161)">
<path d="M22.7671 20.1328L17.8671 15.2328C17.6908 15.0566 17.4716 14.9293 17.2312 14.8635C16.9907 14.7976 16.7373 14.7954 16.4957 14.8571L12.02 16.0285C11.7112 16.1075 11.438 16.2881 11.2444 16.5413C11.0508 16.7945 10.9481 17.1055 10.9529 17.4242C10.9806 20.943 10.3392 24.435 9.06286 27.7142C8.99935 27.8844 8.98609 28.0692 9.02467 28.2467C9.06325 28.4241 9.15204 28.5868 9.28046 28.7152C9.40889 28.8436 9.57152 28.9324 9.74899 28.971C9.92646 29.0096 10.1113 28.9963 10.2814 28.9328C13.561 27.6579 17.0529 27.018 20.5714 27.0471C20.8901 27.0519 21.2012 26.9492 21.4544 26.7556C21.7076 26.562 21.8882 26.2888 21.9671 25.98L23.1429 21.5042C23.2046 21.2627 23.2024 21.0092 23.1365 20.7688C23.0706 20.5284 22.9433 20.3092 22.7671 20.1328ZM18.3286 23.0614C17.9933 23.3966 17.5662 23.625 17.1012 23.7175C16.6362 23.81 16.1542 23.7625 15.7162 23.5811C15.2782 23.3996 14.9038 23.0924 14.6404 22.6982C14.377 22.304 14.2364 21.8405 14.2364 21.3664C14.2364 20.8923 14.377 20.4288 14.6404 20.0346C14.9038 19.6404 15.2782 19.3331 15.7162 19.1517C16.1542 18.9703 16.6362 18.9228 17.1012 19.0153C17.5662 19.1078 17.9933 19.3361 18.3286 19.6714C18.7774 20.1213 19.0295 20.7309 19.0295 21.3664C19.0295 22.0019 18.7774 22.6115 18.3286 23.0614Z" fill="white"/>
<path d="M28.5813 15.1414L22.8576 9.41771C22.2998 8.85991 21.3954 8.85991 20.8376 9.41771L18.8014 11.4539C18.2436 12.0117 18.2436 12.9161 18.8014 13.4739L24.5251 19.1975C25.0829 19.7554 25.9873 19.7554 26.5451 19.1975L28.5813 17.1614C29.1391 16.6036 29.1391 15.6992 28.5813 15.1414Z" fill="white"/>
</g>
<defs>
<clipPath id="clip0_5_161">
<rect width="20" height="20" fill="white" transform="translate(9 9)"/>
</clipPath>
</defs>
</svg>
