<svg width="38" height="38" viewBox="0 0 38 38" fill="none" xmlns="http://www.w3.org/2000/svg">
<rect width="38" height="38" rx="8" fill="#FD9302"/>
<path d="M8.22694 23.0027H8.23654C8.33658 23.0014 8.4325 22.9626 8.50536 22.8941C8.57823 22.8255 8.62275 22.7321 8.63014 22.6323C8.73339 21.4918 9.06934 20.3844 9.61725 19.3788C10.1652 18.3731 10.9134 17.4904 11.8157 16.7851L10.7865 15.7563C9.0465 17.6243 8.00034 20.0329 7.82294 22.5795C7.81975 22.6343 7.82787 22.6892 7.8468 22.7407C7.86572 22.7922 7.89504 22.8393 7.93294 22.879C7.97083 22.9187 8.01649 22.9501 8.06707 22.9714C8.11765 22.9927 8.17207 23.0034 8.22694 23.0027Z" fill="white"/>
<path d="M16.8002 24.2C17.1316 24.2 17.4002 23.9314 17.4002 23.6C17.4002 23.2686 17.1316 23 16.8002 23C16.4688 23 16.2002 23.2686 16.2002 23.6C16.2002 23.9314 16.4688 24.2 16.8002 24.2Z" fill="white"/>
<path d="M18.6003 15.1528V12.2096C15.9038 12.296 13.3297 13.3554 11.3535 15.192L12.4803 16.3172C13.8301 15.4551 15.3987 14.998 17.0003 15C17.5373 15.0004 18.073 15.0515 18.6003 15.1528Z" fill="white"/>
<path d="M19.4004 12.2096V15.3476C19.6958 15.4358 19.9862 15.5404 20.27 15.6608C20.4972 15.4376 20.7224 15.2172 20.9416 15.0036C21.1052 14.8419 21.3189 14.7406 21.5476 14.7164C21.7763 14.6921 22.0065 14.7463 22.2004 14.87C22.3944 14.9856 22.5433 15.1638 22.6228 15.3752C22.7022 15.5867 22.7074 15.8188 22.6376 16.0336C22.5508 16.3084 22.4548 16.6084 22.3552 16.9188C22.823 17.3046 23.2476 17.7399 23.6216 18.2172L26.6488 15.192C24.6723 13.3548 22.0975 12.2954 19.4004 12.2096Z" fill="white"/>
<path d="M27.2141 15.7563L24.0889 18.8799C24.8078 20.0078 25.2466 21.2912 25.3689 22.6231C25.3762 22.7235 25.4211 22.8175 25.4947 22.8862C25.5682 22.9549 25.665 22.9934 25.7657 22.9939L29.7721 22.9999C29.8266 23 29.8806 22.989 29.9307 22.9674C29.9808 22.9459 30.026 22.9143 30.0634 22.8747C30.1009 22.8351 30.1299 22.7882 30.1485 22.737C30.1672 22.6857 30.1752 22.6312 30.1721 22.5767C29.9972 20.0314 28.9529 17.6234 27.2141 15.7563Z" fill="white"/>
<path d="M21.778 15.5504C21.7391 15.5257 21.6944 15.5119 21.6484 15.5104C21.6206 15.5105 21.5931 15.5163 21.5676 15.5274C21.5421 15.5384 21.5191 15.5546 21.5 15.5748C17.8856 19.0948 15.5428 21.6064 14.9024 22.6496C14.7612 22.8754 14.6668 23.1273 14.6247 23.3903C14.5826 23.6533 14.5936 23.9221 14.6572 24.1808C14.7232 24.452 14.8428 24.7073 15.0091 24.9315C15.1753 25.1558 15.3848 25.3444 15.6252 25.4864C16.0997 25.7777 16.6697 25.871 17.2123 25.746C17.7549 25.6211 18.2267 25.2879 18.526 24.8184C19.4 23.4104 20.9972 18.56 21.8732 15.7916C21.8886 15.7466 21.8874 15.6977 21.87 15.6535C21.8525 15.6093 21.8199 15.5727 21.778 15.5504ZM16.8 25C16.5231 25 16.2524 24.9179 16.0222 24.764C15.792 24.6102 15.6125 24.3916 15.5066 24.1357C15.4006 23.8799 15.3729 23.5984 15.4269 23.3269C15.4809 23.0553 15.6142 22.8058 15.81 22.61C16.0058 22.4142 16.2553 22.2809 16.5269 22.2269C16.7984 22.1729 17.0799 22.2006 17.3357 22.3065C17.5916 22.4125 17.8102 22.5919 17.964 22.8222C18.1179 23.0524 18.2 23.3231 18.2 23.6C18.2 23.9713 18.0525 24.3274 17.7899 24.5899C17.5274 24.8525 17.1713 25 16.8 25Z" fill="white"/>
</svg>
