<svg width="39" height="38" viewBox="0 0 39 38" fill="none" xmlns="http://www.w3.org/2000/svg">
<rect x="0.666992" width="38" height="38" rx="8" fill="#FD9302"/>
<path d="M28.2563 16.4001C27.8916 16.3471 27.5435 16.2125 27.238 16.0064C26.9326 15.8002 26.6775 15.5279 26.4919 15.2095C26.3063 14.8911 26.1949 14.535 26.166 14.1676C26.1371 13.8002 26.1915 13.431 26.325 13.0876C26.4099 12.863 26.4224 12.6175 26.3608 12.3855C26.2991 12.1535 26.1664 11.9466 25.9813 11.7938C25.1638 11.1073 24.2333 10.5681 23.2313 10.2001C23.0031 10.1153 22.754 10.1047 22.5194 10.1698C22.2849 10.2349 22.0769 10.3723 21.925 10.5626C21.6964 10.8548 21.4043 11.0912 21.0708 11.2538C20.7372 11.4164 20.3711 11.5009 20 11.5009C19.629 11.5009 19.2628 11.4164 18.9293 11.2538C18.5957 11.0912 18.3036 10.8548 18.075 10.5626C17.9232 10.3723 17.7151 10.2349 17.4806 10.1698C17.246 10.1047 16.9969 10.1153 16.7688 10.2001C15.8436 10.5398 14.9785 11.0251 14.2063 11.6376C14.0116 11.7917 13.8714 12.004 13.8062 12.2436C13.7409 12.4831 13.7541 12.7373 13.8438 12.9688C13.988 13.3214 14.0476 13.7028 14.0177 14.0826C13.9879 14.4623 13.8695 14.8298 13.672 15.1555C13.4745 15.4812 13.2034 15.7561 12.8805 15.9581C12.5576 16.1601 12.1918 16.2837 11.8125 16.3188C11.5663 16.3451 11.335 16.4498 11.1527 16.6175C10.9704 16.7851 10.8468 17.0069 10.8 17.2501C10.6836 17.8261 10.625 18.4124 10.625 19.0001C10.6242 19.4921 10.6639 19.9833 10.7438 20.4688C10.7835 20.7198 10.9049 20.9507 11.089 21.1258C11.2731 21.3009 11.5099 21.4105 11.7625 21.4376C12.1501 21.4739 12.5234 21.6026 12.8511 21.8129C13.1788 22.0231 13.4513 22.3088 13.6459 22.646C13.8405 22.9832 13.9515 23.3621 13.9696 23.751C13.9877 24.1399 13.9124 24.5275 13.75 24.8813C13.6437 25.1115 13.6174 25.3705 13.6751 25.6174C13.7328 25.8642 13.8714 26.0847 14.0688 26.2438C14.8813 26.9178 15.8029 27.4483 16.7938 27.8126C16.9205 27.8564 17.0534 27.8797 17.1875 27.8813C17.3714 27.8809 17.5525 27.8364 17.7156 27.7516C17.8787 27.6668 18.0191 27.5441 18.125 27.3938C18.3478 27.0693 18.6464 26.804 18.9949 26.621C19.3434 26.438 19.7314 26.3429 20.125 26.3438C20.5064 26.3443 20.8825 26.4338 21.2232 26.6052C21.5639 26.7767 21.8598 27.0253 22.0875 27.3313C22.239 27.5349 22.4535 27.6826 22.6977 27.7516C22.9418 27.8206 23.202 27.8068 23.4375 27.7126C24.3436 27.3479 25.1871 26.8439 25.9375 26.2188C26.126 26.0629 26.2603 25.8513 26.3209 25.6144C26.3815 25.3774 26.3655 25.1273 26.275 24.9001C26.128 24.552 26.0639 24.1746 26.0878 23.7976C26.1117 23.4206 26.2228 23.0542 26.4125 22.7275C26.6023 22.4008 26.8653 22.1227 27.1809 21.9151C27.4966 21.7075 27.8561 21.5761 28.2313 21.5313C28.4745 21.4977 28.7007 21.3875 28.8771 21.2167C29.0536 21.0459 29.171 20.8233 29.2125 20.5813C29.3129 20.06 29.3673 19.5309 29.375 19.0001C29.3751 18.4401 29.3228 17.8815 29.2188 17.3313C29.1766 17.0946 29.0609 16.8772 28.8881 16.7101C28.7153 16.5429 28.4942 16.4344 28.2563 16.4001ZM23.125 19.0001C23.125 19.6181 22.9417 20.2223 22.5984 20.7362C22.255 21.2501 21.7669 21.6507 21.1959 21.8872C20.6249 22.1237 19.9965 22.1856 19.3904 22.065C18.7842 21.9444 18.2273 21.6468 17.7903 21.2098C17.3533 20.7727 17.0556 20.2159 16.9351 19.6097C16.8145 19.0035 16.8764 18.3752 17.1129 17.8042C17.3494 17.2331 17.75 16.7451 18.2639 16.4017C18.7778 16.0583 19.3819 15.8751 20 15.8751C20.8288 15.8751 21.6237 16.2043 22.2097 16.7903C22.7958 17.3764 23.125 18.1713 23.125 19.0001Z" fill="white"/>
</svg>
