<svg width="38" height="38" viewBox="0 0 38 38" fill="none" xmlns="http://www.w3.org/2000/svg">
<rect width="38" height="38" rx="8" fill="#FD9302"/>
<g clip-path="url(#clip0_47_511)">
<path d="M25.369 25.7169L23.147 27.0002C22.4003 27.4316 21.5984 27.6473 20.7968 27.6473C19.995 27.6473 19.1935 27.4317 18.4466 27.0002L13.3923 24.0828C13.1681 23.9533 13.0077 23.7434 12.9403 23.4918C12.873 23.2403 12.9072 22.9783 13.0367 22.7542C13.3323 22.2416 13.7968 21.8715 14.3446 21.712C14.9029 21.5495 15.4932 21.6234 16.0066 21.9201L17.4362 22.7454L13.0215 15.0985C12.8262 14.7599 12.7748 14.3643 12.8765 13.9846C12.9783 13.6044 13.2211 13.2876 13.5599 13.0926C13.8977 12.8971 14.2934 12.8454 14.6736 12.9472C15.0535 13.049 15.3705 13.2913 15.5663 13.6297L17.6081 17.1673C17.7211 16.8229 17.9528 16.5368 18.2675 16.3556C18.7999 16.0482 19.4474 16.1134 19.9056 16.4698C19.9915 16.0808 20.2338 15.7277 20.6048 15.5134C21.1997 15.171 21.9368 15.2922 22.3942 15.7635C22.498 15.4345 22.7172 15.1608 23.0166 14.9882C23.3324 14.8053 23.7023 14.7566 24.0576 14.8516C24.4134 14.9466 24.7103 15.1737 24.8935 15.491L27.0902 19.2954C28.3859 21.541 27.6137 24.4217 25.369 25.7169V25.7169ZM12.8149 11.8031C14.2287 10.9871 16.0429 11.4731 16.8592 12.8866C17.0236 13.171 17.1388 13.4784 17.2016 13.8001C17.2574 14.086 17.5342 14.2726 17.8202 14.2168C18.106 14.161 18.2926 13.8841 18.2368 13.5982C18.1516 13.1615 17.9953 12.7444 17.7724 12.3589C16.6655 10.4421 14.205 9.78298 12.2876 10.8897C10.3708 11.9966 9.71168 14.457 10.8179 16.3737C11.0406 16.7608 11.3237 17.1048 11.6593 17.396C11.7591 17.4827 11.8822 17.5251 12.0047 17.5251C12.1522 17.5251 12.2989 17.4636 12.4032 17.3434C12.5941 17.1235 12.5706 16.7904 12.3506 16.5995C12.1041 16.3856 11.896 16.1327 11.7318 15.8472C10.9158 14.4334 11.4018 12.6192 12.8149 11.8031V11.8031Z" fill="white"/>
</g>
<defs>
<clipPath id="clip0_47_511">
<rect width="18" height="18" fill="white" transform="translate(10 10)"/>
</clipPath>
</defs>
</svg>
