<svg width="40" height="40" viewBox="0 0 40 40" fill="none" xmlns="http://www.w3.org/2000/svg">
<rect width="40" height="40" rx="8" fill="#239FFF"/>
<g clip-path="url(#clip0_3_22)">
<path fill-rule="evenodd" clip-rule="evenodd" d="M29.9742 18.5773C29.8114 18.9 29.528 19.1457 29.1848 19.2612L24.4119 20.8204C24.2398 20.8763 24.0595 20.8983 23.8792 20.8837C23.6998 20.8699 23.5241 20.8204 23.364 20.7379C23.2039 20.6563 23.0604 20.5427 22.9445 20.4052C22.8276 20.2677 22.7393 20.1082 22.685 19.9368C22.5728 19.5903 22.6022 19.2135 22.7669 18.889C22.9316 18.5645 23.2177 18.3188 23.5636 18.2043L28.3403 16.645C28.6853 16.5378 29.0597 16.5717 29.3799 16.7385C29.701 16.9053 29.9438 17.1923 30.0552 17.536C30.1656 17.8798 30.137 18.2538 29.9742 18.5773ZM23.3815 24.0398L26.3292 28.1061C26.5426 28.4022 26.6309 28.7698 26.5739 29.13C26.5168 29.4903 26.32 29.8138 26.0256 30.0293V30.0412C25.8802 30.1475 25.7155 30.2236 25.5407 30.2658C25.3659 30.3079 25.1847 30.3143 25.0071 30.2868C24.8296 30.2584 24.6594 30.1952 24.5066 30.1017C24.353 30.0073 24.2196 29.8844 24.1147 29.7387L21.1643 25.6568C21.0585 25.511 20.9821 25.346 20.9398 25.1709C20.8966 24.9958 20.8892 24.8143 20.9177 24.6365C20.9453 24.4578 21.0079 24.2873 21.1017 24.1333C21.1956 23.9802 21.3188 23.8463 21.4642 23.74C21.6096 23.6337 21.7752 23.5567 21.95 23.5145C22.1257 23.4723 22.3069 23.465 22.4854 23.4925C22.663 23.5209 22.8341 23.5833 22.9877 23.6768C23.1414 23.7712 23.2757 23.894 23.3815 24.0398ZM20.4439 17.1978C20.317 17.3252 20.1652 17.4269 19.9996 17.4966C19.8349 17.5644 19.6582 17.6011 19.4807 17.602C19.3022 17.6011 19.1265 17.5644 18.9618 17.4966C18.7953 17.4269 18.6444 17.3252 18.5174 17.1978C18.3905 17.0703 18.2893 16.9191 18.2203 16.7523C18.1522 16.5854 18.1172 16.4076 18.1172 16.227V11.1826C18.0998 10.9928 18.1218 10.8013 18.1816 10.6207C18.2424 10.4401 18.3399 10.2733 18.4678 10.133C18.5966 9.99184 18.753 9.87909 18.9268 9.80209C19.1016 9.72509 19.2902 9.68475 19.4807 9.68475C19.6711 9.68475 19.8597 9.72509 20.0336 9.80209C20.2084 9.87909 20.3648 9.99184 20.4927 10.133C20.6215 10.2733 20.719 10.4401 20.7788 10.6207C20.8395 10.8013 20.8616 10.9928 20.8432 11.1826V16.227C20.8441 16.4076 20.8092 16.5854 20.7402 16.7523C20.6712 16.9191 20.5709 17.0703 20.4439 17.1978ZM14.8614 29.7231C14.7556 29.8688 14.6222 29.9926 14.4685 30.0861C14.3158 30.1805 14.1447 30.2438 13.9671 30.2713C13.7896 30.2997 13.6074 30.2923 13.4326 30.2502C13.2578 30.208 13.0922 30.1319 12.9468 30.0265V30.0293C12.6524 29.8138 12.4556 29.4903 12.3994 29.13C12.3424 28.7698 12.4307 28.4022 12.6442 28.1061L15.5946 24.0398C15.6995 23.894 15.8329 23.7703 15.9856 23.6768C16.1392 23.5823 16.3094 23.52 16.487 23.4916C16.6646 23.4632 16.8458 23.4705 17.0206 23.5127C17.1954 23.5548 17.3601 23.6309 17.5054 23.7373C17.7998 23.9527 17.9967 24.2753 18.0538 24.6356C18.1108 24.9958 18.0225 25.3643 17.8081 25.6595L14.8614 29.7231ZM16.0288 20.4043C15.9129 20.5418 15.7703 20.6545 15.6102 20.737C15.4502 20.8186 15.2754 20.869 15.096 20.8828C14.9166 20.8974 14.7353 20.8763 14.5642 20.8204L9.79124 19.2612C9.44808 19.1457 9.16472 18.9 9.00188 18.5773C8.83904 18.2538 8.8096 17.8798 8.92092 17.536C9.03224 17.1923 9.27512 16.9053 9.59528 16.7385C9.91636 16.5717 10.2908 16.5378 10.6358 16.645L15.4097 18.2043C15.7556 18.3179 16.0426 18.5645 16.2073 18.889C16.372 19.2135 16.4005 19.5903 16.2883 19.9368C16.2331 20.1082 16.1457 20.2668 16.0288 20.4043Z" fill="white"/>
</g>
<defs>
<clipPath id="clip0_3_22">
<rect width="23" height="22" fill="white" transform="translate(8 9)"/>
</clipPath>
</defs>
</svg>
