<svg width="40" height="40" viewBox="0 0 40 40" fill="none" xmlns="http://www.w3.org/2000/svg">
<rect width="40" height="40" rx="8" fill="#37AFE2"/>
<path d="M28.6772 11.512C25.92 12.6538 14.0978 17.5507 10.8313 18.8855C8.64052 19.7404 9.9229 20.5419 9.9229 20.5419C9.9229 20.5419 11.7929 21.1829 13.3958 21.6639C14.9987 22.1448 15.8537 21.6104 15.8537 21.6104L23.3873 16.5343C26.0588 14.7178 25.4177 16.2138 24.7766 16.8549C23.3873 18.2442 21.0899 20.4347 19.1664 22.198C18.3115 22.946 18.739 23.5873 19.113 23.9079C20.5023 25.0833 24.2957 27.4877 24.5096 27.6481C25.6384 28.4471 27.8586 29.5975 28.1963 27.1672L29.5322 18.7786C29.9596 15.9467 30.3871 13.3285 30.4405 12.5805C30.6007 10.764 28.6772 11.512 28.6772 11.512Z" fill="white"/>
</svg>
