<svg width="20" height="11" viewBox="0 0 20 11" fill="none" xmlns="http://www.w3.org/2000/svg">
<path d="M13.7446 0.787857C13.3566 0.395543 12.7244 0.390594 12.3304 0.776831L4.93869 8.08229L1.72547 4.7558C1.34223 4.35637 0.707761 4.34326 0.30837 4.7265C-0.0910637 5.10974 -0.104174 5.74421 0.279067 6.1436C0.280804 6.14538 0.282497 6.14716 0.284233 6.14894L4.20208 10.2091C4.38958 10.4004 4.64584 10.5087 4.91369 10.5098H4.92472C5.18749 10.5089 5.43945 10.4049 5.6263 10.2201L13.7355 2.20205C14.1273 1.81351 14.1313 1.18139 13.7446 0.787857Z" fill="#FD9302"/>
<path d="M10.2156 10.209C10.4026 10.3998 10.6581 10.5081 10.9252 10.5097H10.9363C11.199 10.5089 11.451 10.4049 11.6378 10.2201L19.7471 2.20199C20.1147 1.7881 20.0771 1.15463 19.6633 0.787063C19.2881 0.453833 18.7243 0.449448 18.344 0.776775L10.9553 8.08223L10.6917 7.80861C10.3085 7.40917 9.67401 7.39602 9.27458 7.77926C8.87515 8.16246 8.86199 8.79693 9.24523 9.19636C9.24697 9.19818 9.24871 9.19996 9.25044 9.20174L10.2156 10.209Z" fill="#FD9302"/>
</svg>
