<svg width="40" height="40" viewBox="0 0 40 40" fill="none" xmlns="http://www.w3.org/2000/svg">
<rect width="40" height="40" rx="8" fill="#E60000"/>
<g clip-path="url(#clip0_3_23)">
<path d="M20.1653 31C16.1732 31.0135 12.0185 27.5041 11.9998 21.8664C11.9886 18.1375 13.9407 14.5453 16.4369 12.4188C18.8751 10.3425 22.2052 9.01156 25.2306 9C25.6195 9 26.0271 9.03274 26.2758 9.11942C23.63 9.68377 21.5265 12.2205 21.5359 15.0961C21.5359 15.177 21.5415 15.2598 21.5546 15.3388C25.9804 16.4483 27.9886 19.2045 28.0017 23.0047C28.0148 26.8069 25.096 30.9827 20.1672 31H20.1653Z" fill="white"/>
</g>
<defs>
<clipPath id="clip0_3_23">
<rect width="16" height="22" fill="white" transform="translate(12 9)"/>
</clipPath>
</defs>
</svg>
