<svg width="49" height="48" viewBox="0 0 49 48" fill="none" xmlns="http://www.w3.org/2000/svg">
<path fill-rule="evenodd" clip-rule="evenodd" d="M34.8425 0.153075C34.3609 0.322694 33.8187 0.830143 33.5568 1.35664C33.3821 1.70779 33.3717 1.93829 33.3717 5.43452C33.3717 9.05477 33.3764 9.14887 33.5752 9.5155C33.6872 9.72189 33.9202 10.0259 34.0929 10.1909C34.6288 10.7027 35.0156 10.8116 36.4597 10.8568L37.7592 10.8974L37.7082 11.1446C37.5398 11.9602 36.9903 15.3141 37.0142 15.3795C37.0301 15.4228 38.6951 14.4278 40.7143 13.1682L44.3857 10.8783L45.4871 10.877C46.0929 10.8764 46.8043 10.8298 47.068 10.7734C47.7195 10.6342 48.2808 10.1921 48.5983 9.56841L48.8571 9.05965L48.8551 5.39427C48.8532 2.04187 48.8382 1.69644 48.6804 1.34988C48.4627 0.872641 47.7584 0.247829 47.275 0.103541C47.0078 0.0237974 45.2921 -0.00472253 41.0799 0.000624965C36.0781 0.00700443 35.1961 0.0284882 34.8425 0.153075ZM47.1199 1.8184L47.351 2.04862V5.34258C47.351 8.70334 47.3327 8.89285 46.9826 9.16069C46.8809 9.23846 46.3839 9.27599 45.428 9.27796L44.0229 9.28096L41.5887 10.7944C40.2499 11.6268 39.1394 12.2917 39.1209 12.272C39.1024 12.2523 39.2041 11.5712 39.347 10.7586L39.6066 9.28096H37.4968H35.387L35.156 9.05064L34.9249 8.82042V5.42139C34.9249 2.06063 34.9272 2.01991 35.1296 1.80517L35.3343 1.58808H41.1116H46.8888L47.1199 1.8184ZM22.7342 2.39846C21.7648 2.50119 19.9453 2.84652 19.0438 3.09879C15.3598 4.12964 12.1428 5.99901 9.45662 8.66956C6.7869 11.3236 4.93975 14.4254 3.91686 17.9719L3.60188 19.0639L2.91675 17.922C2.53992 17.2939 2.19501 16.7576 2.15039 16.7301C2.0892 16.6924 1.12674 17.1982 0.857419 17.4095C0.829554 17.4314 2.95507 21.0317 3.47329 21.8405C3.53787 21.9412 4.05016 21.6749 5.80242 20.6297C7.03796 19.8927 8.06189 19.2799 8.0778 19.2679C8.0986 19.2521 7.4179 18.0806 7.30776 17.9428C7.3006 17.934 6.85025 18.1964 6.3069 18.5261C5.76354 18.8559 5.29041 19.127 5.25558 19.1286C5.15457 19.1334 5.53742 17.8625 5.97732 16.7331C8.34543 10.6532 13.4589 6.1341 19.826 4.49439C22.9673 3.68542 26.5971 3.68467 29.7714 4.49252L30.7838 4.75014L31.01 4.03686C31.1755 3.51477 31.2065 3.30688 31.1256 3.26091C30.9259 3.14748 29.4954 2.80984 28.3637 2.60898C27.5077 2.45719 26.7775 2.40578 25.1818 2.38523C24.0427 2.3705 22.9413 2.37651 22.7342 2.39846ZM36.4509 3.86311L36.4782 4.63709L41.1144 4.66139L45.7506 4.68578V3.88741V3.08913H41.0871H36.4235L36.4509 3.86311ZM36.4509 6.95902L36.4782 7.733L39.5611 7.75777L42.6441 7.78244V6.98379V6.18504H39.5338H36.4235L36.4509 6.95902ZM44.2444 6.98248V7.77991H44.9975H45.7506V6.98248V6.18504H44.9975H44.2444V6.98248ZM23.299 7.84136C21.3735 8.14786 19.3708 9.11622 17.9131 10.4458C16.6122 11.6323 15.4927 13.5109 14.9921 15.3474L14.7406 16.2702L14.7366 20.1167L14.7326 23.9631L14.9774 24.4834C15.3334 25.2397 15.7467 25.6574 16.497 26.0191L17.1576 26.3376L17.4187 27.1466C17.5623 27.5915 17.8639 28.2798 18.0889 28.6759C18.5461 29.4809 19.7314 30.7426 20.4512 31.1903C20.7621 31.3837 20.8983 31.5306 20.8984 31.6728C20.8986 31.9079 21.1291 31.8506 17.5875 32.4963C16.31 32.7291 15.033 33.0062 14.7496 33.1118C13.2432 33.6736 12.0975 34.8667 11.5234 36.4719C11.3819 36.8675 11.2393 37.2226 11.2064 37.2612C11.1735 37.2997 10.5237 36.7054 9.76247 35.9407C7.89272 34.0624 7.87578 34.3298 10.0002 32.2L11.6219 30.5742L8.75285 27.7114L5.88375 24.8487L3.80446 26.9389C2.05088 28.7017 1.67886 29.1247 1.42911 29.639C0.966146 30.5923 0.820894 31.308 0.868527 32.4009C0.914183 33.4468 1.11272 34.1235 1.61738 34.9535C1.8146 35.2778 3.95564 37.472 7.808 41.2978C13.3074 46.7594 13.7401 47.1667 14.3472 47.454C16.0387 48.2543 18.099 48.1689 19.5822 47.2369C19.8378 47.0763 21.0206 46.059 22.2105 44.9763L24.3742 43.0077L23.7922 42.4213L23.2104 41.835H31.5152C36.0828 41.835 39.82 41.8025 39.82 41.7628C39.82 41.5114 37.8991 36.0194 37.6415 35.5346C37.2422 34.7829 36.2715 33.8091 35.5368 33.4234C34.7584 33.0146 34.2857 32.8931 31.5831 32.4073C28.4558 31.845 28.7109 31.9105 28.7178 31.672C28.722 31.5296 28.9381 31.3131 29.4362 30.9524C29.828 30.6686 30.335 30.2191 30.5629 29.9536L30.9773 29.4709L32.0803 29.4339C32.9713 29.4039 33.2561 29.3587 33.5612 29.199C34.0389 28.9488 34.417 28.5733 34.6755 28.0922C34.876 27.7192 34.8778 27.6647 34.8778 22.1806C34.8778 17.2086 34.8606 16.566 34.7089 15.8648C33.8715 11.996 31.1083 9.08057 27.3033 8.05123C26.7631 7.90506 26.2345 7.85177 25.0876 7.82785C24.2592 7.81059 23.4544 7.81669 23.299 7.84136ZM26.198 9.42093C29.2775 9.95615 31.8642 12.1335 32.8613 15.0298C33.2415 16.1339 33.3231 16.7944 33.3238 18.7723L33.3246 20.5237L32.948 20.3763C32.5808 20.2326 32.5715 20.2176 32.5715 19.7741V19.3192H31.6732C29.3874 19.3192 27.2326 18.3872 25.5184 16.6569L24.8196 15.9515L23.9978 16.7309C22.1288 18.5035 20.2187 19.3192 17.9372 19.3192H17.0389V19.7741C17.0389 20.2193 17.0309 20.2321 16.6536 20.3797L16.2683 20.5306L16.3113 18.3535C16.3592 15.9258 16.4159 15.6106 17.0449 14.2678C18.1771 11.8509 20.3872 10.0566 22.8825 9.52835C24.2286 9.24343 25.0274 9.21754 26.198 9.42093ZM43.8318 14.6503C43.7565 14.7673 43.1422 15.7815 42.4666 16.9042L41.2383 18.9455L41.6353 19.1896C41.8536 19.3239 42.1261 19.4924 42.2407 19.5641C42.3554 19.6359 42.4835 19.6945 42.5254 19.6945C42.5674 19.6945 42.8936 19.2056 43.2504 18.6081C43.6791 17.89 43.9226 17.564 43.9686 17.6465C44.0069 17.7151 44.1474 18.1723 44.2808 18.6625C45.8797 24.5375 44.7378 30.8503 41.1843 35.7815C40.8877 36.193 40.6265 36.5781 40.6036 36.6373C40.5673 36.7317 41.5656 37.6108 41.7111 37.6126C41.824 37.614 42.8696 36.1248 43.5106 35.0498C45.5244 31.6722 46.5271 28.0071 46.5307 24.01C46.5327 21.8516 46.2257 19.6712 45.6595 17.8231C45.5576 17.4903 45.4855 17.2068 45.4994 17.193C45.5209 17.1714 46.3435 17.6467 47.4152 18.2997L47.7147 18.4823L48.1103 17.8187C48.3277 17.4539 48.4895 17.1398 48.4697 17.1209C48.4241 17.0776 44.3954 14.6653 44.1499 14.5344C44.0031 14.4561 43.9424 14.4783 43.8318 14.6503ZM25.46 18.6889C26.6849 19.6958 28.4576 20.4949 29.9827 20.7278C30.3969 20.791 30.7888 20.8575 30.8535 20.8754C30.9437 20.9006 30.9709 21.4616 30.9698 23.28C30.9683 25.8298 30.9074 26.3132 30.4612 27.3156L30.2218 27.8535L27.5134 27.8785L24.8052 27.9034V28.6539V29.4044L26.8292 29.4513L28.8531 29.4982L28.4084 29.8059C27.7413 30.2676 26.8728 30.6484 26.0928 30.8214C25.16 31.0282 23.7228 30.9639 22.8754 30.6775C20.9677 30.0326 19.5023 28.542 18.857 26.5899C18.6208 25.8754 18.6069 25.7228 18.5666 23.4121C18.5203 20.7575 18.5072 20.8245 19.0744 20.8217C19.5279 20.8195 21.0651 20.4047 21.8441 20.0744C22.5682 19.7673 24.1981 18.7397 24.5139 18.3913C24.6125 18.2825 24.7301 18.1934 24.7753 18.1934C24.8204 18.1934 25.1286 18.4164 25.46 18.6889ZM17.0389 23.2758V24.6057L16.7947 24.3782C16.6603 24.2531 16.4909 24.0368 16.4181 23.8974C16.2593 23.5932 16.2446 22.8578 16.3918 22.5731C16.5261 22.3132 16.8594 21.9461 16.9612 21.9461C17.0039 21.9461 17.0389 22.5444 17.0389 23.2758ZM33.152 22.5137C33.4814 23.1258 33.3443 23.8861 32.8158 24.3782L32.5715 24.6057V23.2644V21.9232L32.7755 22.0582C32.8877 22.1324 33.0572 22.3375 33.152 22.5137ZM33.3246 26.688C33.3246 27.3145 33.298 27.4224 33.0935 27.6261C32.9114 27.8077 32.7652 27.8565 32.4038 27.8565H31.9453L32.1618 27.2232C32.2809 26.875 32.3795 26.5253 32.3808 26.4463C32.3828 26.3294 32.933 26.0427 33.254 25.9914C33.2929 25.9852 33.3246 26.2987 33.3246 26.688ZM9.03545 30.9986L8.61155 31.4212L6.82644 29.6403L5.04142 27.8595L5.46042 27.434L5.87952 27.0085L7.66943 28.7924L9.45944 30.5762L9.03545 30.9986ZM7.20948 32.873C6.7258 33.5833 6.66339 34.4988 7.04832 35.2381C7.33054 35.78 13.3264 41.6959 13.7872 41.8869C14.5117 42.1873 15.6389 42.0271 16.1468 41.5516C16.3391 41.3714 16.3453 41.3764 18.1249 43.1567L19.9101 44.9423L19.4177 45.3981C19.1469 45.6487 18.6809 45.9733 18.3822 46.1194C17.8811 46.3645 17.7553 46.385 16.7565 46.3842C14.9852 46.3828 15.4849 46.7762 8.7825 40.1085C2.50622 33.8648 2.67219 34.0574 2.42498 32.7322C2.21807 31.6233 2.60441 30.3931 3.45606 29.4492L3.89097 28.967L5.67166 30.7417L7.45245 32.5163L7.20948 32.873ZM24.8523 32.484C25.6138 32.4803 26.2116 32.427 26.5467 32.3329C26.8313 32.2528 27.0734 32.1966 27.0846 32.2077C27.0959 32.219 26.587 32.7432 25.9538 33.3727L24.8025 34.5175L23.6382 33.3544L22.474 32.1914L23.0748 32.3405C23.4722 32.4392 24.0738 32.4878 24.8523 32.484ZM23.0863 35.0559L24.7582 36.7201L26.4441 35.0417L28.1302 33.3634L31.0804 33.8956C33.4695 34.3265 34.1405 34.4809 34.6082 34.7076C35.2481 35.0179 35.8273 35.5306 36.1967 36.1137C36.4005 36.4355 37.6549 39.917 37.6549 40.161C37.6549 40.2045 34.043 40.2401 29.6286 40.2401H21.6023L20.1455 38.786C19.3442 37.9862 18.6518 37.3318 18.6067 37.3318C18.5617 37.3318 17.9257 37.8737 17.1935 38.5361C15.0642 40.4622 14.9887 40.5216 14.6661 40.5216C14.4248 40.5216 14.2131 40.362 13.4104 39.5748L12.4449 38.628L12.8095 37.5467C13.2226 36.3209 13.5919 35.6863 14.163 35.2199C14.8899 34.6263 15.4268 34.4582 18.3129 33.9199C19.8127 33.6404 21.124 33.4071 21.2271 33.4016C21.3514 33.395 21.9775 33.952 23.0863 35.0559ZM21.6289 43.4059L21.1375 43.9018L19.3471 42.1125L17.5567 40.3231L18.0659 39.8517L18.575 39.3805L20.3477 41.1453L22.1204 42.91L21.6289 43.4059Z" fill="#074C9C"/>
</svg>
