<svg width="48" height="48" viewBox="0 0 48 48" fill="none" xmlns="http://www.w3.org/2000/svg">
<path fill-rule="evenodd" clip-rule="evenodd" d="M6.92255 0.145452C5.11133 0.487742 3.55074 1.3561 2.27903 2.72923C1.08291 4.02087 0.326615 5.68306 0.108389 7.5C-0.0548686 8.8589 -0.0290299 11.0802 0.154454 11.4669C0.291583 11.7558 0.291583 11.8539 0.154454 12.5177C-0.264869 14.5476 0.217454 16.86 1.43149 18.6408C1.96384 19.4218 2.83481 20.225 4.23707 21.2281L5.42255 22.0761V23.9879V25.8997L5.0881 26.0592C4.62291 26.281 4.03849 26.8293 3.69223 27.369C3.08429 28.3164 3.09997 28.0217 3.09997 38.4881V48H9.68062H16.2613V45.6774V43.3548H16.8651H17.4689L19.1362 45.0201L20.8035 46.6854L21.605 45.9045C22.0457 45.4751 22.5082 45.0916 22.6326 45.0526C23.0104 44.934 23.4889 45.0812 23.7555 45.3978C23.9909 45.6777 24.0032 45.7493 24.0032 46.8462V48H26.3258H28.6484V46.8462C28.6484 45.7493 28.6606 45.6777 28.8961 45.3978C29.1626 45.0812 29.6412 44.934 30.019 45.0526C30.1433 45.0916 30.6059 45.4752 31.0469 45.9048L31.8487 46.6861L33.4625 45.0722L35.0764 43.4584L34.2951 42.6566C33.8655 42.2156 33.4819 41.753 33.4429 41.6287C33.3243 41.2509 33.4715 40.7723 33.7881 40.5058C34.068 40.2704 34.1396 40.2581 35.2365 40.2581H36.3903V39.4839V38.7097H39.185H41.9797L42.1013 39.0033C42.3707 39.6538 43.3488 40.2581 44.1322 40.2581C45.3314 40.2581 46.4548 39.1346 46.4548 37.9355C46.4548 37.1521 45.8505 36.174 45.2 35.9046L44.9064 35.7829V31.0528V26.3226H46.4548H48.0032V20.9032V15.4839H45.6806H43.358V13.9355V12.3871H44.9064H46.4548V6.19355V0H39.4871H32.5193V3.09677V6.19355H29.3375H26.1557L26.0341 5.89994C25.7647 5.24942 24.7866 4.64516 24.0032 4.64516C22.8041 4.64516 21.6806 5.76861 21.6806 6.96774C21.6806 7.75113 22.2849 8.72923 22.9354 8.99864L23.229 9.12029V11.5278V13.9355H21.6806H20.1322V18.5806V23.2258H22.8419H25.5516V25.5484V27.871H24.7774H24.0032V29.0248C24.0032 30.1216 23.9909 30.1933 23.7555 30.4731C23.4889 30.7898 23.0104 30.937 22.6326 30.8183C22.5082 30.7793 22.0456 30.3958 21.6046 29.9661L20.8029 29.1849L19.1891 30.7988L17.5752 32.4126L18.3564 33.2144C18.7861 33.6554 19.1696 34.1179 19.2086 34.2423C19.3273 34.6201 19.1801 35.0986 18.8634 35.3652C18.5822 35.6018 18.5152 35.6129 17.3712 35.6129H16.1733L16.1226 35.2984C15.7344 32.8901 15.3986 31.7588 14.6122 30.2091C14.296 29.5861 13.7345 28.6775 13.3644 28.1901C12.4275 26.9561 12.2314 26.6234 11.9547 25.7992C11.6578 24.9147 11.6468 24.6774 11.9027 24.6774C12.3487 24.6774 13.1827 24.26 13.654 23.801C14.4062 23.0683 14.6398 22.4593 14.7064 21.0571L14.7613 19.9026L15.9125 19.5192L17.0637 19.1357L17.002 18.0598C16.9052 16.3719 16.526 14.9003 15.7676 13.2689C15.5601 12.8224 15.3903 12.4451 15.3903 12.4305C15.3903 12.4157 15.8881 12.3891 16.4964 12.3712C17.6929 12.3361 17.8989 12.2578 18.3359 11.6724C18.5149 11.4326 18.5355 11.2676 18.5355 10.0645C18.5355 8.86142 18.5149 8.69642 18.3359 8.45661C18.0311 8.04823 17.687 7.82981 17.2583 7.77232L16.869 7.72006L16.7466 7.0349C16.4241 5.23055 15.6338 3.72 14.3317 2.41926C12.4432 0.532645 9.55849 -0.352645 6.92255 0.145452ZM10.5052 1.87471C11.7669 2.27903 12.9778 3.10529 13.7615 4.09684L14.1558 4.59561L13.7329 4.66781C13.2674 4.74735 12.9423 4.95271 12.6382 5.35955C12.4712 5.58281 12.4334 5.799 12.406 6.68419L12.3732 7.74194H11.6134H10.8536L10.8236 5.91C10.7907 3.90571 10.7684 3.82335 10.1272 3.34471C9.88742 3.16568 9.72242 3.14516 8.51933 3.14516C7.31623 3.14516 7.15123 3.16568 6.91142 3.34471C6.27029 3.82335 6.24794 3.90571 6.21503 5.91L6.18503 7.74194H5.42526H4.66549L4.63268 6.68419C4.60529 5.799 4.56745 5.58281 4.40042 5.35955C4.07768 4.92774 3.73926 4.72819 3.21494 4.66045L2.72255 4.59677L3.14507 4.0889C4.10816 2.9311 5.59771 2.01281 7.01933 1.70032C8.01562 1.48132 9.51087 1.55613 10.5052 1.87471ZM44.9064 6.19355V10.8387H39.4871H34.0677V6.19355V1.54839H39.4871H44.9064V6.19355ZM39.9305 4.99152L37.9062 7.36394L37.4595 6.9239C37.2137 6.68187 36.969 6.48387 36.9156 6.48387C36.791 6.48387 35.9064 7.37903 35.9064 7.50503C35.9064 7.63287 37.8678 9.58229 37.9887 9.57465C38.0411 9.57135 39.2268 8.23219 40.624 6.59884L43.164 3.62903L42.6078 3.12329C42.3018 2.84516 42.0298 2.61794 42.0032 2.61832C41.9766 2.61881 41.0439 3.68671 39.9305 4.99152ZM9.29352 6.19355V7.74194H8.51933H7.74513V6.19355V4.64516H8.51933H9.29352V6.19355ZM3.09997 6.96774V7.74194H2.36178H1.62358L1.68862 7.33065C1.72432 7.10439 1.80213 6.7561 1.86145 6.55645L1.96936 6.19355H2.53462H3.09997V6.96774ZM15.1319 6.89516C15.2222 7.281 15.2955 7.62948 15.2948 7.66935C15.2941 7.70923 14.9887 7.74194 14.6161 7.74194H13.9387V6.96774V6.19355H14.4532H14.9678L15.1319 6.89516ZM24.5398 6.43113C25.0199 6.91113 24.6797 7.74194 24.0032 7.74194C23.8147 7.74194 23.6163 7.65416 23.4666 7.50435C23.3168 7.35464 23.229 7.15626 23.229 6.96774C23.229 6.77923 23.3168 6.58084 23.4666 6.43113C23.6163 6.28132 23.8147 6.19355 24.0032 6.19355C24.1917 6.19355 24.3901 6.28132 24.5398 6.43113ZM32.5193 10.0645V12.3871H37.1645H41.8096V13.9355V15.4839H39.4871H37.1645V20.9032V26.3226H40.2613H43.358V31.058C43.358 35.7911 43.3579 35.7935 43.1537 35.8582C42.8473 35.9555 42.2355 36.5438 42.0996 36.872L41.9797 37.1613H39.185H36.3903V36.3871V35.6129H35.2365C34.1396 35.6129 34.068 35.6006 33.7881 35.3652C33.4715 35.0986 33.3243 34.6201 33.4429 34.2423C33.4819 34.1179 33.8655 33.6554 34.2951 33.2144L35.0764 32.4126L33.4625 30.7988L31.8487 29.1849L31.0469 29.9661C30.6059 30.3958 30.1433 30.7793 30.019 30.8183C29.6412 30.937 29.1626 30.7898 28.8961 30.4731C28.6606 30.1933 28.6484 30.1216 28.6484 29.0248V27.871H27.8742H27.1V25.5484V23.2258H28.2613H29.4226V19.2519V15.278L30.4865 14.0986L31.5505 12.9194L30.9945 12.4136C30.6888 12.1355 30.4169 11.9088 30.3903 11.9099C30.3637 11.911 29.95 12.3642 29.4709 12.9169L28.6 13.9219L26.6887 13.9287L24.7774 13.9355V11.5278V9.12029L25.0666 9.00039C25.3949 8.86452 25.9832 8.25271 26.0805 7.94623C26.1447 7.74377 26.1746 7.74194 29.3323 7.74194H32.5193V10.0645ZM17.0355 10.0645V10.8387H9.29352H1.55158V10.0645V9.29032H9.29352H17.0355V10.0645ZM5.76 12.5565C5.58532 12.9766 5.42255 13.6028 5.42255 13.8541C5.42255 14.039 5.373 14.129 5.2711 14.129C5.18778 14.129 4.89145 14.3577 4.61245 14.6371C3.52984 15.7217 3.63503 17.0628 4.90732 18.3967L5.43232 18.9471L5.4032 19.5425L5.37416 20.1377L4.64836 19.6307C4.24916 19.3518 3.65003 18.8445 3.31694 18.5034C1.95852 17.1123 1.25739 14.7361 1.65639 12.8757L1.7612 12.3871H3.79578C5.69574 12.3871 5.82571 12.3983 5.76 12.5565ZM14.0046 13.2097C14.7629 14.6247 15.3331 16.39 15.4081 17.555L15.4387 18.0295L14.3016 18.4099L13.1645 18.7904V19.4596V20.129L12.3661 20.1285C11.2781 20.1278 10.88 19.9991 10.3613 19.4805L9.92855 19.0476L9.27232 19.3651C8.91145 19.5397 8.6161 19.7115 8.6161 19.7467C8.6161 19.8847 9.291 20.6848 9.61742 20.9337C10.2998 21.4543 10.8024 21.6048 12.0237 21.6547L13.1572 21.701L13.0111 22.0508C12.8148 22.5205 12.5176 22.8278 12.0516 23.0429C11.7263 23.193 11.4135 23.2219 10.0919 23.2237L8.51933 23.2258V24V24.7742H9.34191C10.1347 24.7742 10.1645 24.7822 10.1645 24.9958C10.1645 25.3965 10.4551 26.3587 10.7918 27.0726L11.1226 27.7742L10.8614 27.7727C10.5319 27.7708 10.4703 27.7239 10.12 27.2078C9.558 26.3799 8.47258 25.7137 7.48442 25.5903L6.97094 25.5261V22.0485C6.97094 18.0712 7.01749 18.3167 6.08255 17.361C5.61862 16.8868 5.49426 16.6927 5.45187 16.3764C5.40716 16.0427 5.43716 15.9443 5.64832 15.7332C5.85629 15.5252 5.98665 15.4839 6.43433 15.4839H6.97094V14.5708C6.97094 13.5901 7.05639 13.2446 7.38871 12.8829C7.81858 12.4147 7.99065 12.3916 10.8851 12.4143L13.5896 12.4355L14.0046 13.2097ZM27.1 15.5402C27.1 15.5712 26.5713 16.184 25.9251 16.9022L24.7502 18.2079L24.3008 17.7652C24.0536 17.5217 23.8108 17.3226 23.7613 17.3226C23.6379 17.3226 22.7451 18.2107 22.7451 18.3334C22.7451 18.4425 24.6854 20.4194 24.7924 20.4194C24.8292 20.4194 25.5192 19.679 26.3258 18.7742C27.1324 17.8694 27.8108 17.129 27.8332 17.129C27.8558 17.129 27.8742 18.1524 27.8742 19.4032V21.6774H24.7774H21.6806V18.5806V15.4839H24.3903C25.8806 15.4839 27.1 15.5092 27.1 15.5402ZM46.0022 17.2551C45.9051 17.3776 45.0889 18.3376 44.1883 19.3884L42.5507 21.2988L42.1043 20.8591C41.8587 20.6173 41.6173 20.4194 41.5677 20.4194C41.4423 20.4194 40.5516 21.3084 40.5516 21.4335C40.5516 21.5659 42.5087 23.518 42.6339 23.5103C42.7091 23.5058 45.149 20.7074 46.2366 19.3784L46.4538 19.1129L46.4543 21.9435L46.4548 24.7742H42.5838H38.7129V20.9032V17.0323H42.4457H46.1785L46.0022 17.2551ZM7.6621 27.2091C8.1392 27.3521 8.76291 27.8837 9.00107 28.3507C9.10945 28.563 9.33029 29.5698 9.53497 30.7839C9.72697 31.9229 9.95255 33.0726 10.0362 33.3387C10.5663 35.0263 11.8861 36.3518 13.6196 36.9376C13.988 37.0621 14.6281 37.103 16.7209 37.1359L19.358 37.1774V39.492V41.8064L16.2371 41.8057C12.8781 41.8049 12.2879 41.7507 11.0624 41.3301C8.47849 40.4437 6.46123 38.3685 5.66691 35.7796C5.4391 35.0375 4.64768 30.0652 4.64894 29.3841C4.65 28.7574 4.85042 28.3163 5.36003 27.8191C6.054 27.142 6.78852 26.9474 7.6621 27.2091ZM12.5076 29.6486C12.8258 30.0446 13.724 31.8933 13.9714 32.6613C14.1086 33.0871 14.2852 33.7839 14.364 34.2097C14.6152 35.5677 14.6148 35.5161 14.3738 35.5161C13.9931 35.5161 12.8172 34.8551 12.4078 34.411C11.7187 33.6634 11.522 33.1389 11.1791 31.1343L10.8682 29.3169L11.6051 29.3797C12.194 29.4298 12.3751 29.4838 12.5076 29.6486ZM27.1 29.8376C27.1 30.7877 27.5948 31.5999 28.4687 32.0838C28.9158 32.3315 29.0868 32.3707 29.7129 32.3687C30.5275 32.3662 31.0009 32.1763 31.4987 31.6523L31.7845 31.3515L32.3449 31.9061L32.9054 32.4607L32.5779 32.8029C32.0389 33.366 31.8944 33.7341 31.8922 34.5484C31.8906 35.174 31.93 35.3457 32.1774 35.7925C32.6614 36.6665 33.4735 37.1613 34.4236 37.1613H34.8419V37.9355V38.7097H34.4236C33.4735 38.7097 32.6614 39.2045 32.1774 40.0785C31.9298 40.5255 31.8906 40.6965 31.8925 41.3226C31.895 42.1372 32.085 42.6106 32.6089 43.1085L32.9097 43.3942L32.3552 43.9546L31.8006 44.5151L31.4584 44.1876C30.8953 43.6486 30.5271 43.5041 29.7129 43.5019C29.0872 43.5003 28.9156 43.5397 28.4687 43.7871C27.5948 44.2711 27.1 45.0832 27.1 46.0334V46.4516H26.3258H25.5516V46.0334C25.5516 45.0832 25.0568 44.2711 24.1828 43.7871C23.7357 43.5395 23.5647 43.5003 22.9387 43.5022C22.124 43.5047 21.6506 43.6947 21.1528 44.2186L20.867 44.5194L20.306 43.9644C19.7222 43.3866 19.6465 43.2581 19.8903 43.2581C20.1457 43.2581 20.7941 42.5202 20.8635 42.1506L20.928 41.8064H21.7485C22.5478 41.8064 22.5796 41.8154 22.9681 42.148C23.9096 42.9537 25.4082 43.4244 26.7121 43.3239C28.6432 43.1749 30.3378 42.0256 31.1744 40.2975C32.1963 38.1861 31.7917 35.7813 30.1358 34.1255C28.2048 32.1945 25.2339 31.9916 23.0725 33.6431C22.7318 33.9034 22.4515 34.0275 22.0677 34.0876C21.775 34.1336 21.3915 34.256 21.2154 34.3598C21.0394 34.4635 20.8816 34.5484 20.8649 34.5484C20.8481 34.5484 20.8058 34.3696 20.7708 34.1511C20.6878 33.632 20.4771 33.2244 20.0737 32.8029L19.7462 32.4607L20.3066 31.9061L20.867 31.3515L21.1528 31.6523C21.6506 32.1763 22.124 32.3662 22.9387 32.3687C23.5647 32.3707 23.7357 32.3315 24.1828 32.0838C25.0568 31.5999 25.5516 30.7877 25.5516 29.8376V29.4194H26.3258H27.1V29.8376ZM27.9157 34.4342C28.7889 34.8429 29.3538 35.3985 29.7869 36.2748C30.1284 36.9658 30.1484 37.0573 30.1484 37.9355C30.1484 38.8137 30.1284 38.9052 29.7869 39.5961C29.1347 40.9157 27.9915 41.6802 26.5192 41.7811C26.0935 41.8102 25.7451 41.8102 25.7451 41.781C25.7451 41.7518 26.0251 41.5969 26.3674 41.4368C27.2265 41.0347 27.8071 40.47 28.215 39.6396C28.8761 38.2936 28.7797 37.1835 27.9279 36.3354C27.3157 35.7257 26.9491 35.6129 25.5818 35.6129H24.5214L24.2711 35.2304C23.9917 34.8038 23.9968 34.7937 24.6549 34.4622C25.6351 33.9683 26.897 33.9575 27.9157 34.4342ZM22.5907 35.7061C22.758 35.7698 22.9449 36.0157 23.1789 36.4803L23.5217 37.1613H25.0733C26.5916 37.1613 26.63 37.1664 26.8624 37.3989C27.3243 37.8607 27.1104 38.8025 26.3775 39.5355C25.7008 40.2122 25.4865 40.2581 23 40.2581H20.9064V38.4825V36.7068L21.4799 36.1599C22.0744 35.5929 22.1796 35.5499 22.5907 35.7061ZM44.6688 37.3989C44.8186 37.5486 44.9064 37.747 44.9064 37.9355C44.9064 38.124 44.8186 38.3224 44.6688 38.4721C44.5191 38.6219 44.3207 38.7097 44.1322 38.7097C43.9437 38.7097 43.7453 38.6219 43.5956 38.4721C43.4458 38.3224 43.358 38.124 43.358 37.9355C43.358 37.747 43.4458 37.5486 43.5956 37.3989C43.7453 37.2491 43.9437 37.1613 44.1322 37.1613C44.3207 37.1613 44.5191 37.2491 44.6688 37.3989ZM5.86781 39.4523C7.21636 41.213 9.35352 42.5742 11.6161 43.1136C11.9621 43.196 12.8004 43.2907 13.479 43.3238L14.7129 43.3841V44.9178V46.4516H9.68062H4.64836L4.65058 41.9758L4.65271 37.5L4.98542 38.1173C5.16832 38.4568 5.56539 39.0576 5.86781 39.4523Z" fill="#074C9C"/>
</svg>
