<svg width="48" height="49" viewBox="0 0 48 49" fill="none" xmlns="http://www.w3.org/2000/svg">
<path fill-rule="evenodd" clip-rule="evenodd" d="M12.4223 8.05019C4.90922 13.0506 0.944724 15.744 0.681761 16.0263C-0.0482524 16.8098 0.000683933 15.6706 0.000683933 31.8728C0.000683933 46.084 0.0039651 46.3454 0.187242 46.8355C0.424143 47.4687 1.02778 48.0702 1.67164 48.3148C2.15173 48.4973 2.47891 48.5 24.0001 48.5C45.5213 48.5 45.8485 48.4973 46.3286 48.3148C46.9724 48.0702 47.5761 47.4687 47.813 46.8355C47.9963 46.3454 47.9995 46.084 47.9995 31.8728C47.9995 15.8317 48.0397 16.8466 47.3749 16.07C46.8859 15.4986 24.3901 0.499719 24.0227 0.5C23.8388 0.500188 20.5399 2.64726 12.4223 8.05019ZM34.9454 9.67413C40.9651 13.6887 45.9746 17.0682 46.0777 17.184C46.2635 17.3926 46.2652 17.5272 46.2652 31.8201V46.2458L46.0055 46.5056C45.7472 46.7642 45.7382 46.7658 44.2959 46.7956L42.8459 46.8256L42.8213 33.5768L42.7965 20.328L42.5893 19.9405C42.3254 19.447 41.8964 19.0179 41.4029 18.754L41.0153 18.5468H24.0001H6.98489L6.59734 18.754C6.10385 19.0179 5.67486 19.447 5.41096 19.9405L5.20368 20.328L5.17894 33.5768L5.15428 46.8256L3.70428 46.7956C2.26197 46.7658 2.25297 46.7642 1.9947 46.5056L1.73502 46.2458V31.8124V17.3791L1.97567 17.1385C2.15238 16.9617 23.8328 2.41963 23.977 2.38119C23.9901 2.37763 28.9259 5.65955 34.9454 9.67413ZM20.9821 8.35141C19.3448 9.44079 18.1582 10.2917 18.0997 10.4183C17.9587 10.7237 17.967 14.3248 18.1093 14.592C18.3453 15.0352 18.2095 15.0251 24.0001 15.0251C29.7907 15.0251 29.6549 15.0352 29.8909 14.592C30.0373 14.3172 30.0412 10.7242 29.8955 10.4044C29.7467 10.0776 24.3638 6.49984 24.021 6.49984C23.8449 6.49984 22.8978 7.07687 20.9821 8.35141ZM26.1563 9.80997L28.2656 11.2342L28.2922 12.2889L28.3187 13.3436H24.0001H19.6815L19.7081 12.2889L19.7346 11.2342L21.8439 9.80997C23.004 9.02669 23.9743 8.38581 24.0001 8.38581C24.0259 8.38581 24.9962 9.02669 26.1563 9.80997ZM40.6736 20.321C40.8157 20.3945 40.9823 20.5652 41.0439 20.7004C41.129 20.8871 41.1559 24.0519 41.1559 33.8793V46.8125H39.82L38.4841 46.8126L38.5099 41.7679L38.5357 36.7232L38.262 36.1805L37.9882 35.6377L38.2596 35.1218L38.531 34.6059L38.5301 29.6701L38.5291 24.7343L38.3106 24.2649C38.0851 23.7807 37.6302 23.3148 37.1001 23.0251C36.8226 22.8734 36.3735 22.857 31.8434 22.8327L26.8902 22.806L26.4055 23.0279C25.8099 23.3006 25.3448 23.7531 25.0865 24.3114C24.8975 24.7197 24.8898 24.8968 24.863 29.4218C24.8336 34.3881 24.8527 34.6637 25.2705 35.3015L25.4987 35.65L25.2707 35.9859C24.8531 36.6012 24.8273 36.9819 24.8601 42.0547L24.8907 46.8126H24.0001H23.1095L23.1402 42.0547C23.1729 36.9819 23.1471 36.6012 22.7295 35.9859L22.5016 35.65L22.7297 35.3015C23.1475 34.6637 23.1666 34.3881 23.1373 29.4218C23.1103 24.872 23.1037 24.7216 22.9105 24.3041C22.6707 23.7855 22.191 23.2873 21.6942 23.0409C21.3459 22.868 21.0847 22.8593 16.2659 22.8593C11.6011 22.8593 11.1797 22.8723 10.9001 23.0251C10.37 23.3148 9.91507 23.7807 9.68961 24.2649L9.47108 24.7343L9.47015 29.6701L9.46921 34.6059L9.74061 35.1218L10.012 35.6377L9.73826 36.1805L9.46452 36.7232L9.4903 41.7679L9.51608 46.8126L8.18018 46.8125H6.84427L6.84755 33.8515C6.85121 19.9285 6.82777 20.5929 7.32332 20.3183C7.67066 20.1257 40.3013 20.1284 40.6736 20.321ZM21.0012 24.6411C21.4647 24.8807 21.4828 25.0903 21.4511 29.8651L21.422 34.2458L21.1622 34.5057L20.9023 34.7656L16.4304 34.7917C13.1838 34.8107 11.8861 34.7879 11.6944 34.7085C11.1416 34.4794 11.1567 34.622 11.1567 29.6281V25.048L11.4307 24.7739L11.7047 24.4999H16.2165C20.0514 24.4999 20.7692 24.5211 21.0012 24.6411ZM36.5695 24.7739L36.8436 25.048V29.6281C36.8436 34.622 36.8586 34.4794 36.3058 34.7085C36.1141 34.7879 34.8164 34.8107 31.5699 34.7917L27.0979 34.7656L26.838 34.5057L26.5782 34.2458L26.5491 29.8651C26.5293 26.8815 26.5529 25.3725 26.6228 25.1339C26.8103 24.4948 26.7043 24.5079 31.765 24.5037L36.2955 24.4999L36.5695 24.7739ZM17.5234 28.9326C17.086 29.2684 17.045 29.8403 17.4305 30.2259C17.702 30.4974 17.7147 30.4999 18.7961 30.4999C20.2121 30.4999 20.5224 30.3438 20.5284 29.6285C20.5306 29.373 20.4665 29.2078 20.3013 29.0426C20.0806 28.8218 20.0222 28.8125 18.8716 28.8154C18.0768 28.8174 17.622 28.857 17.5234 28.9326ZM32.9676 28.9186C32.6827 29.0842 32.5178 29.59 32.6372 29.9323C32.7981 30.3942 33.1193 30.4999 34.3618 30.4999C35.4415 30.4999 35.4543 30.4973 35.7258 30.2259C36.0751 29.8765 36.0859 29.4916 35.7571 29.1009L35.5144 28.8124L34.3275 28.8152C33.6588 28.8169 33.065 28.862 32.9676 28.9186ZM17.6587 31.4367C17.1427 31.6449 16.9974 32.3634 17.3864 32.7831C17.6124 33.0271 17.6368 33.0312 18.8438 33.0312C20.022 33.0312 20.0804 33.022 20.3013 32.801C20.6488 32.4536 20.6226 31.9058 20.243 31.5864C19.9692 31.356 19.9015 31.344 18.9071 31.3496C18.331 31.3529 17.7693 31.3921 17.6587 31.4367ZM33.0341 31.4494C32.5566 31.6899 32.4615 32.4076 32.8551 32.801C33.0757 33.0218 33.1341 33.0311 34.2847 33.0282C35.5336 33.0251 35.6815 32.985 35.8908 32.5921C36.0613 32.2718 36.02 31.9401 35.7738 31.6536C35.5511 31.3944 35.531 31.3903 34.391 31.3696C33.7083 31.3572 33.1522 31.3899 33.0341 31.4494ZM21.0012 36.6411C21.4647 36.8808 21.4828 37.0904 21.4511 41.8651L21.422 46.2459L21.1622 46.5057L20.9023 46.7656L16.4304 46.7918C13.1838 46.8107 11.8861 46.7879 11.6944 46.7085C11.1416 46.4795 11.1567 46.6221 11.1567 41.6282V37.048L11.4307 36.774L11.7047 36.5H16.2165C20.0514 36.5 20.7692 36.5211 21.0012 36.6411ZM36.5695 36.774L36.8436 37.048V41.6282C36.8436 46.6221 36.8586 46.4795 36.3058 46.7085C36.1141 46.7879 34.8164 46.8107 31.5699 46.7918L27.0979 46.7656L26.838 46.5057L26.5782 46.2459L26.5491 41.8651C26.5293 38.8816 26.5529 37.3726 26.6228 37.134C26.8103 36.4949 26.7043 36.5079 31.765 36.5037L36.2955 36.5L36.5695 36.774ZM17.5234 40.9327C17.086 41.2685 17.045 41.8404 17.4305 42.2259C17.702 42.4974 17.7147 42.5 18.7961 42.5C20.2121 42.5 20.5224 42.3439 20.5284 41.6286C20.5306 41.3731 20.4665 41.2078 20.3013 41.0426C20.0806 40.8218 20.0222 40.8126 18.8716 40.8155C18.0768 40.8174 17.622 40.857 17.5234 40.9327ZM32.9676 40.9187C32.6827 41.0843 32.5178 41.59 32.6372 41.9323C32.7981 42.3942 33.1193 42.5 34.3618 42.5C35.4415 42.5 35.4543 42.4974 35.7258 42.2259C36.0751 41.8765 36.0859 41.4916 35.7571 41.1009L35.5144 40.8125L34.3275 40.8153C33.6588 40.817 33.065 40.8621 32.9676 40.9187ZM17.6587 43.4367C17.1427 43.645 16.9974 44.3635 17.3864 44.7832C17.6124 45.0271 17.6368 45.0312 18.8438 45.0312C20.022 45.0312 20.0804 45.0221 20.3013 44.8011C20.6488 44.4536 20.6226 43.9059 20.243 43.5864C19.9692 43.356 19.9015 43.344 18.9071 43.3496C18.331 43.3529 17.7693 43.3921 17.6587 43.4367ZM33.0341 43.4495C32.5566 43.6899 32.4615 44.4076 32.8551 44.8011C33.0757 45.0219 33.1341 45.0311 34.2847 45.0282C35.5336 45.0251 35.6815 44.985 35.8908 44.5921C36.0613 44.2719 36.02 43.9402 35.7738 43.6537C35.5511 43.3945 35.531 43.3903 34.391 43.3696C33.7083 43.3572 33.1522 43.3899 33.0341 43.4495Z" fill="#074C9C"/>
</svg>
