<svg width="40" height="44" viewBox="0 0 40 44" fill="none" xmlns="http://www.w3.org/2000/svg">
<path fill-rule="evenodd" clip-rule="evenodd" d="M2.53161 0.159297C1.33187 0.44172 0.359998 1.45676 0.0962389 2.70307C-0.023504 3.26894 -0.035128 9.10805 0.0822217 9.7285C0.275297 10.7493 0.935892 11.6213 1.86272 12.0789L2.43204 12.36L5.93825 12.3876C8.32311 12.4065 9.58626 12.3844 9.88754 12.3185C10.8299 12.1127 11.7569 11.2749 12.15 10.2738C12.3311 9.81265 12.3419 9.64479 12.375 6.76787C12.4132 3.44469 12.3499 2.59973 12.0106 1.90345C11.7157 1.29807 11.0851 0.690125 10.4275 0.377027C9.91618 0.133677 9.78524 0.109856 8.78516 0.078238C7.48158 0.0371085 7.30936 0.0723257 7.13166 0.416785C7.01876 0.6358 7.01312 0.724742 7.0991 0.93296C7.15628 1.07126 7.27218 1.22155 7.35662 1.26688C7.44115 1.31221 7.92174 1.34931 8.42473 1.34931C9.5284 1.34931 9.89413 1.44845 10.3833 1.88005C11.0581 2.47557 11.0685 2.54284 11.0685 6.31913V9.61805L10.803 10.0893C10.6184 10.417 10.4122 10.6389 10.1261 10.8177L9.71464 11.0747L6.37449 11.1011C4.03006 11.1196 2.93246 11.0979 2.69246 11.0285C2.21862 10.8913 1.84093 10.5837 1.56187 10.1078L1.32495 9.70374L1.29888 6.46454C1.26931 2.79801 1.29734 2.56726 1.83973 2.0073C2.3534 1.47707 2.56827 1.40604 3.8163 1.3536C4.75954 1.31401 4.96894 1.28025 5.11971 1.14324C5.38202 0.90477 5.35988 0.466998 5.07407 0.241642C4.8739 0.0837219 4.73869 0.0649566 3.85613 0.0725827C3.31015 0.0773812 2.71409 0.116368 2.53161 0.159297ZM16.1399 0.228446C15.8737 0.31379 15.5226 0.466226 15.3597 0.567165C14.9109 0.845218 14.3702 1.47698 14.1163 2.01981L13.889 2.50608V6.23344V9.9608L14.1301 10.4839C14.4351 11.1456 15.0962 11.8055 15.7693 12.1203L16.2821 12.36H20H23.718L24.2308 12.1203C24.9039 11.8055 25.565 11.1456 25.87 10.4839L26.1111 9.9608V6.23344V2.50608L25.8838 2.01981C25.6123 1.43937 25.0628 0.81874 24.5574 0.521837C23.828 0.0932332 23.5487 0.0657278 19.9573 0.0696694C16.9812 0.0728398 16.5721 0.0898914 16.1399 0.228446ZM30.1492 0.15707C29.2998 0.357747 28.3787 1.10279 27.9903 1.90345C27.8753 2.14063 27.7426 2.60462 27.6956 2.93451C27.5914 3.66696 27.5839 8.71132 27.6861 9.50486C27.834 10.6546 28.5068 11.604 29.531 12.1081C30.0138 12.3458 30.1129 12.3616 31.2847 12.3889C32.4098 12.4151 32.5459 12.4023 32.7306 12.2523C32.9966 12.0364 33.0045 11.6068 32.7472 11.3484C32.5783 11.1788 32.4483 11.1562 31.4225 11.1176C30.3429 11.0769 30.2642 11.0617 29.8738 10.8177C29.588 10.639 29.3816 10.4168 29.1971 10.0893L28.9316 9.61805V6.23344C28.9316 2.90298 28.9346 2.84317 29.121 2.49383C29.3687 2.0294 29.9167 1.56618 30.3668 1.44065C30.6209 1.36979 31.6924 1.34794 34.017 1.36628C37.6801 1.39507 37.5474 1.37459 38.1604 2.0073C38.7027 2.56726 38.7308 2.79801 38.7012 6.46454L38.6751 9.70374L38.4382 10.1078C37.9715 10.9039 37.4787 11.1176 36.1099 11.1176C35.2694 11.1176 35.1235 11.1395 34.926 11.2952C34.6397 11.5209 34.6172 11.9763 34.8794 12.2392C35.0474 12.4076 35.1333 12.4165 36.3133 12.3892C37.5318 12.3609 37.5851 12.3518 38.1376 12.0789C39.0642 11.6212 39.7248 10.7491 39.9179 9.7285C40.0351 9.10848 40.0236 3.26903 39.9039 2.70307C39.718 1.82333 39.2433 1.11659 38.5116 0.62963C37.7034 0.0918622 37.4571 0.0629858 33.7641 0.0725827C31.9524 0.0773812 30.3257 0.11534 30.1492 0.15707ZM23.6752 1.52788C24.1922 1.76283 24.4285 1.99556 24.6686 2.50608C24.8692 2.93271 24.8701 2.94839 24.8705 6.1906C24.8707 8.07887 24.8353 9.57504 24.7862 9.75215C24.6711 10.1676 24.1442 10.764 23.7228 10.956C23.4047 11.1008 23.0973 11.1138 20 11.1138C16.9028 11.1138 16.5954 11.1008 16.2773 10.956C15.8559 10.764 15.329 10.1676 15.2139 9.75215C15.1647 9.5747 15.1298 8.08238 15.1307 6.1906C15.132 3.09791 15.1408 2.91515 15.3064 2.54892C15.5408 2.03069 15.7729 1.79377 16.2821 1.55299C16.7081 1.35162 16.7197 1.35102 20 1.35205C23.1283 1.353 23.3096 1.36174 23.6752 1.52788ZM6.69457 5.48026L5.55424 6.61226L5.06108 6.1229C4.6663 5.73123 4.51288 5.63363 4.29254 5.63363C3.93322 5.63363 3.67536 5.89386 3.67536 6.25657C3.67536 6.49598 3.79066 6.65185 4.46758 7.32766C5.60637 8.46454 5.49236 8.49085 7.2897 6.67755C8.50234 5.45429 8.71806 5.19766 8.71806 4.97882C8.71806 4.65415 8.4079 4.34834 8.07858 4.34834C7.88038 4.34834 7.62175 4.55981 6.69457 5.48026ZM15.6991 14.0774C15.2055 14.259 14.7632 14.6526 14.4829 15.1599L14.2308 15.6161L14.2066 20.0822L14.1824 24.5481L13.8647 24.4344C12.7599 24.0391 11.5016 24.5734 10.9669 25.6651C10.7274 26.1539 10.7266 26.1615 10.7266 27.8981C10.7266 29.6259 10.7283 29.642 10.9284 29.8046C11.1669 29.9984 11.5254 30.0168 11.7573 29.8472C11.9086 29.7365 11.9273 29.5798 11.9697 28.0692C12.0208 26.2507 12.0691 26.0502 12.5249 25.7678C12.8745 25.5512 13.3003 25.5528 13.6591 25.7722C14.1483 26.0712 14.1881 26.2892 14.1881 28.67C14.1881 30.5028 14.1692 30.8202 14.0543 30.9159C13.6567 31.2466 13.6098 31.8236 13.9605 32.0699C14.2254 32.2559 14.5195 32.2248 14.8442 31.9765C15.473 31.4957 15.4226 32.1723 15.4702 23.5607L15.5129 15.8171L15.8321 15.5238C16.0973 15.2801 16.2169 15.2305 16.5385 15.2305C16.8601 15.2305 16.9797 15.2801 17.2449 15.5238L17.5642 15.817L17.6069 22.6696C17.648 29.2555 17.656 29.5293 17.8125 29.7026C18.0249 29.9379 18.4877 29.9425 18.718 29.7115C18.8837 29.5454 18.8889 29.4258 18.8891 25.7914C18.8892 22.3917 18.9031 22.0153 19.0387 21.7488C19.4777 20.8857 20.5224 20.8857 20.9614 21.7488C21.097 22.0153 21.1109 22.3917 21.111 25.7914C21.1111 29.4258 21.1164 29.5454 21.2821 29.7115C21.5123 29.9424 21.9752 29.9379 22.1876 29.7027C22.3394 29.5347 22.3534 29.3182 22.3932 26.5109C22.4247 24.2884 22.4646 23.449 22.5453 23.3073C22.6969 23.0414 23.0889 22.8566 23.5013 22.8566C23.7776 22.8566 23.914 22.9166 24.168 23.1498L24.4872 23.443L24.5299 26.4828C24.5698 29.3178 24.5836 29.5346 24.7355 29.7027C24.9582 29.9491 25.3863 29.9405 25.6262 29.6846C25.8061 29.4926 25.812 29.4223 25.812 27.4694C25.812 25.5119 25.8177 25.444 26.0068 25.1626C26.4748 24.4665 27.3978 24.487 27.8303 25.2032C27.9837 25.4571 27.9914 25.7299 27.9914 30.8255V36.1809L27.5761 37.8499C27.1751 39.4619 27.1593 39.5728 27.1147 41.0846L27.0685 42.6502H20.842H14.6155V41.4976C14.6155 40.2616 14.5211 39.6303 14.2584 39.1099C14.1676 38.93 13.6857 38.236 13.1875 37.5675C12.6894 36.8991 12.2221 36.2173 12.149 36.0523C12.0462 35.8203 12.0086 35.3322 11.9827 33.8945C11.9522 32.1969 11.9352 32.0238 11.7856 31.8881C11.5573 31.6809 11.1415 31.6996 10.9141 31.9273C10.7388 32.103 10.7247 32.2077 10.6978 33.5336C10.6635 35.2167 10.7702 36.1478 11.0639 36.7287C11.181 36.9605 11.6883 37.7025 12.1912 38.3775C12.7471 39.1236 13.1503 39.7536 13.2195 39.9843C13.2969 40.2423 13.3334 40.879 13.3334 41.9721V43.5803L13.5586 43.7579C13.7824 43.9343 13.8303 43.9355 20.8941 43.9355H28.0044L28.181 43.7427C28.346 43.5627 28.3606 43.4188 28.4013 41.5791C28.4446 39.6213 28.4473 39.599 28.7979 38.1945C29.0148 37.3254 29.1844 36.3995 29.2382 35.7915C29.2897 35.2087 29.3137 32.8504 29.2966 30.0505C29.2699 25.6927 29.2545 25.2644 29.1108 24.8857C28.9024 24.3359 28.2511 23.6888 27.7258 23.5094C27.223 23.3377 26.5002 23.3308 26.1103 23.4941L25.8158 23.6174L25.7273 23.2878C25.5888 22.7724 25.1287 22.16 24.6648 21.8737C24.3127 21.6564 24.1381 21.6094 23.5922 21.5844C23.1393 21.5638 22.8435 21.5951 22.624 21.6872C22.347 21.8032 22.3077 21.8039 22.3077 21.6926C22.3077 21.4354 21.8834 20.7372 21.5357 20.4222C20.8314 19.7843 19.9609 19.6349 19.0317 19.9924C18.9006 20.0428 18.8889 19.8713 18.8889 17.9097V15.772L18.6209 15.2342C18.3436 14.6779 17.8924 14.2691 17.3235 14.0588C16.9522 13.9216 16.0961 13.9313 15.6991 14.0774Z" fill="#074C9C"/>
</svg>
