<svg width="24" height="28" viewBox="0 0 24 28" fill="none" xmlns="http://www.w3.org/2000/svg">
<path fill-rule="evenodd" clip-rule="evenodd" d="M11.0269 0.0508213C8.81872 0.315192 6.71303 1.47004 5.31458 3.18372C4.21844 4.52695 3.55559 6.03091 3.28536 7.78796C3.24362 8.059 3.21718 8.78767 3.2159 9.70249C3.21389 11.0799 3.22137 11.2001 3.32683 11.4861C3.56053 12.1198 3.99823 12.6329 4.53688 12.9043C4.94092 13.1078 5.29334 13.176 5.94106 13.176H6.45199L6.54948 13.6273C6.71648 14.4002 7.08563 15.2073 7.5689 15.8564C7.81518 16.187 8.43825 16.8211 8.66796 16.9747C8.81017 17.0698 8.81399 17.0858 8.81399 17.5857V18.0991L8.29626 18.1C6.50355 18.1033 4.95276 18.5702 3.55134 19.5286C2.86167 20.0002 1.82978 21.0694 1.36356 21.7955C0.473388 23.1818 0.0787475 24.5053 0.0168859 26.3115C-0.0143901 27.2239 -0.0100359 27.289 0.0978105 27.5185C0.173107 27.6788 0.28175 27.8015 0.418111 27.8805L0.624458 28H12H23.3755L23.5819 27.8805C23.7183 27.8015 23.8269 27.6788 23.9022 27.5185C24.01 27.289 24.0144 27.2239 23.9831 26.3115C23.9356 24.9237 23.7257 23.9704 23.2238 22.8621C22.5477 21.3694 21.2576 19.9533 19.8374 19.1449C18.6212 18.4526 17.2174 18.0991 15.6848 18.0991H15.186V17.5857C15.186 17.0858 15.1898 17.0698 15.332 16.9747C15.5617 16.8211 16.1848 16.187 16.4311 15.8564C16.9144 15.2073 17.2835 14.4002 17.4505 13.6273L17.548 13.176H18.0589C18.34 13.176 18.6986 13.1513 18.856 13.121C19.6672 12.9651 20.3728 12.3281 20.6674 11.4861C20.8954 10.8342 20.8453 8.30034 20.5807 7.10157C19.8191 3.65135 17.2727 1.01422 13.9382 0.222145C13.0411 0.00908445 11.9245 -0.0566663 11.0269 0.0508213ZM13.3275 1.77215C14.7453 2.05496 15.9124 2.68047 16.9644 3.72137C18.1797 4.92397 18.8598 6.3025 19.1434 8.13804C19.1775 8.3592 19.1725 8.37512 19.0816 8.33398C19.0272 8.30937 18.6621 8.27491 18.2703 8.2574L17.5579 8.22557L17.4397 7.73326C17.0195 5.98359 15.9609 4.63143 14.4161 3.87109C13.4419 3.39163 12.4473 3.20828 11.4487 3.32402C10.6958 3.41133 10.2192 3.55508 9.53084 3.90249C8.01616 4.66704 6.9669 6.0186 6.56015 7.72899L6.44206 8.22557L5.72972 8.2574C5.33789 8.27491 4.97357 8.30909 4.92005 8.33333C4.83073 8.37386 4.82569 8.35554 4.85829 8.11004C5.07945 6.44696 5.83109 4.9225 7.01198 3.7421C8.19197 2.56253 9.57491 1.89523 11.3097 1.66828C11.6712 1.62102 12.8822 1.68332 13.3275 1.77215ZM12.9415 5.05405C14.232 5.36153 15.3446 6.42349 15.8056 7.78796C15.9527 8.22316 15.9536 8.23465 15.9721 9.88027L15.9907 11.535H13.914C11.6329 11.535 11.5855 11.541 11.3653 11.8596C11.0892 12.2589 11.1974 12.7981 11.6027 13.0428L11.8235 13.176H13.8736H15.9237L15.8447 13.4632C15.8012 13.6211 15.6722 13.9473 15.558 14.188C14.5885 16.2315 12.1178 17.0512 10.1381 15.9863C9.14167 15.4503 8.40862 14.4746 8.12114 13.3016C8.01701 12.8767 8.01207 12.7299 8.02768 10.5392L8.04414 8.22557L8.1932 7.78796C8.72298 6.23231 9.99414 5.16646 11.5752 4.9522C11.8615 4.91342 12.574 4.96653 12.9415 5.05405ZM6.41264 10.7008L6.39793 11.5076H5.86693C5.39599 11.5076 5.31633 11.4932 5.16256 11.3802C4.93524 11.2132 4.82261 10.9789 4.82261 10.6728C4.82261 10.3925 4.92913 10.2088 5.20265 10.017C5.35542 9.90992 5.44617 9.89395 5.90277 9.89395H6.4273L6.41264 10.7008ZM18.9601 10.1516C19.1629 10.3759 19.1971 10.4857 19.1689 10.8239C19.1514 11.0337 19.0286 11.2398 18.8374 11.3802C18.6837 11.4932 18.604 11.5076 18.1331 11.5076H17.6021L17.5874 10.6959L17.5727 9.88421L18.1621 9.90276L18.7516 9.9213L18.9601 10.1516ZM11.0312 18.018C11.2796 18.0626 11.7156 18.0991 12 18.0991C12.4634 18.0991 13.2788 17.9928 13.5067 17.9027C13.5834 17.8724 13.593 17.9412 13.593 18.521C13.593 19.349 13.515 19.6352 13.1869 20.0111C12.8101 20.4428 12.605 20.533 12 20.533C11.395 20.533 11.1899 20.4428 10.8131 20.0111C10.485 19.6352 10.407 19.349 10.407 18.521C10.407 17.9412 10.4166 17.8724 10.4933 17.9027C10.5408 17.9215 10.7828 17.9734 11.0312 18.018ZM8.928 19.8906C9.31366 20.8804 9.79932 21.4715 10.5415 21.8541C10.7744 21.9742 11.0187 22.087 11.0843 22.1046C11.2023 22.1364 11.2035 22.147 11.2035 23.1184C11.2035 24.0464 11.21 24.1099 11.323 24.2809C11.5168 24.5742 11.7091 24.6906 12 24.6906C12.2909 24.6906 12.4832 24.5742 12.677 24.2809C12.79 24.1099 12.7965 24.0464 12.7965 23.1184C12.7965 22.147 12.7977 22.1364 12.9157 22.1046C12.9813 22.087 13.2256 21.9742 13.4585 21.8541C14.1898 21.4771 14.6966 20.8604 15.0724 19.8906C15.1285 19.7457 15.1449 19.7401 15.5168 19.7406C16.7673 19.7421 17.8014 19.9606 18.7112 20.4157C20.4962 21.3084 21.7127 22.8257 22.1911 24.7561C22.284 25.1307 22.4059 25.9813 22.4072 26.2632C22.4076 26.3523 22.2968 26.359 20.8187 26.359H19.2298L19.2124 25.001C19.1952 23.6562 19.1938 23.641 19.0623 23.4423C18.7262 22.9341 18.0107 22.9563 17.7 23.4846C17.6132 23.6324 17.6002 23.8047 17.5854 25.0051L17.5688 26.359H12H6.43123L6.41455 25.0051C6.39873 23.7161 6.39225 23.6419 6.27973 23.4554C6.10838 23.1716 5.86815 23.055 5.52507 23.0889C5.29642 23.1116 5.2129 23.1508 5.06172 23.3065C4.9544 23.417 4.85718 23.586 4.82914 23.7106C4.80259 23.8284 4.78034 24.4724 4.77965 25.1419L4.77838 26.359H3.18001H1.58159L1.61695 25.9624C1.7617 24.3396 2.30009 23.0488 3.3126 21.8972C3.799 21.3439 4.47629 20.8319 5.22973 20.4479C6.19578 19.9554 7.03763 19.7681 8.37703 19.7477C8.86725 19.7402 8.86964 19.7408 8.928 19.8906Z" fill="white"/>
</svg>
