<svg width="32" height="28" viewBox="0 0 32 28" fill="none" xmlns="http://www.w3.org/2000/svg">
<path fill-rule="evenodd" clip-rule="evenodd" d="M8.01484 0.123688C7.90278 0.191691 7.75527 0.338524 7.68696 0.45008C7.56521 0.648864 7.56271 0.776036 7.56252 6.87812L7.56227 13.1033L7.11526 13.2102C6.23692 13.42 5.18064 14.0147 4.56481 14.646C4.33031 14.8865 4.24862 14.9317 4.04917 14.9317H3.81217L3.81192 14.3251C3.81173 13.8296 3.78898 13.6813 3.68748 13.5157C3.61916 13.4041 3.47166 13.2573 3.35959 13.1893C3.17427 13.0768 3.04321 13.0656 1.90586 13.0656C0.768521 13.0656 0.637455 13.0768 0.452137 13.1893C0.167255 13.3621 0 13.6615 0 13.9984C0 14.3354 0.167255 14.6347 0.452137 14.8076C0.620329 14.9097 0.767521 14.9313 1.29647 14.9315L1.93712 14.9317V20.5313V26.1308L1.29647 26.1311C0.767521 26.1312 0.620329 26.1528 0.452137 26.2549C0.167255 26.4278 0 26.7271 0 27.0641C0 27.401 0.167255 27.7004 0.452137 27.8732C0.637455 27.9857 0.768521 27.9969 1.90586 27.9969C3.04321 27.9969 3.17427 27.9857 3.35959 27.8732C3.47166 27.8052 3.61916 27.6584 3.68748 27.5468C3.78898 27.3812 3.81173 27.2329 3.81192 26.7374L3.81217 26.1308H4.18118C4.44518 26.1308 4.79663 26.209 5.41559 26.4055C5.89154 26.5566 7.21245 26.9771 8.35098 27.3401L10.421 28L17.32 27.9831L24.219 27.9662L24.6432 27.7662C25.1422 27.5309 25.723 27.0059 25.9536 26.5818C26.2287 26.0759 26.3315 25.6127 26.2942 25.0477C26.2759 24.7708 26.2412 24.4813 26.2171 24.4043L26.1732 24.2643L28.7587 24.264C31.2284 24.2639 31.3533 24.2583 31.5479 24.1402C31.6599 24.0722 31.8074 23.9253 31.8757 23.8138C31.9985 23.6134 32 23.4767 32 12.1319C32 0.787172 31.9985 0.650481 31.8757 0.45008C31.8074 0.338524 31.6599 0.191691 31.5479 0.123688C31.3465 0.00149315 31.2092 0 19.7814 0C8.35354 0 8.21616 0.00149315 8.01484 0.123688ZM16.0002 4.80585C16.0004 7.62951 16.0054 7.75364 16.1247 7.94838C16.193 8.05993 16.3405 8.20677 16.4526 8.27477C16.6486 8.39379 16.773 8.39846 19.7501 8.39846C22.7272 8.39846 22.8516 8.39379 23.0476 8.27477C23.1597 8.20677 23.3072 8.05993 23.3755 7.94838C23.4948 7.75364 23.4998 7.62951 23.5 4.80585L23.5002 1.86608H26.8128H30.1254V12.1319V22.3978L22.5158 22.3967C14.2211 22.3955 14.403 22.4029 13.7366 22.0429C13.3164 21.8159 12.877 21.3858 12.6336 20.9631C12.5263 20.7769 12.4383 20.6036 12.438 20.5779C12.4377 20.5522 13.5413 20.5309 14.8906 20.5305C17.4916 20.5298 17.6754 20.5128 18.2455 20.2228C18.6001 20.0423 19.1548 19.5203 19.3571 19.1767C19.597 18.7692 19.7501 18.2061 19.7501 17.7315C19.7501 17.2568 19.597 16.6938 19.3571 16.2863C19.1616 15.9542 18.6034 15.4222 18.2768 15.2565C17.6695 14.9486 17.5005 14.9317 15.0329 14.9317H12.7134L12.4348 14.646C11.8189 14.0147 10.7627 13.42 9.88433 13.2102L9.43732 13.1033V7.48473V1.86608H12.7187H16L16.0002 4.80585ZM21.6252 4.19923V6.53237H19.7501H17.8751V4.19923V1.86608H19.7501H21.6252V4.19923ZM9.40007 15.0546C10.154 15.2466 10.5807 15.5032 11.2297 16.1552C11.5452 16.4721 11.8686 16.7464 11.9485 16.7648C12.0283 16.7832 13.2518 16.8052 14.6673 16.8138C17.1566 16.8288 17.2467 16.8336 17.4135 16.9576C17.7234 17.188 17.8366 17.3951 17.8366 17.7315C17.8366 18.0678 17.7234 18.275 17.4135 18.5053C17.2461 18.6299 17.1497 18.6346 14.1019 18.6647C11.2128 18.6934 10.9492 18.7048 10.7909 18.8081C10.6963 18.8699 10.5641 19.0099 10.4971 19.1192C10.2405 19.5382 10.3989 20.709 10.8356 21.6201C11.3956 22.7882 12.4009 23.6483 13.7187 24.0863L14.1562 24.2318L18.98 24.2636C23.7291 24.2949 23.8063 24.2974 23.9762 24.4237C24.286 24.654 24.3993 24.8611 24.3993 25.1975C24.3993 25.534 24.286 25.7411 23.9762 25.9714C23.8048 26.0988 23.756 26.0998 17.3548 26.1184C12.6903 26.1318 10.8369 26.1175 10.6561 26.0665C10.5186 26.0278 9.18019 25.6064 7.68183 25.1302C4.99895 24.2775 4.94882 24.2643 4.38487 24.2643H3.81217V20.5313V16.7982H4.41006C4.74663 16.7982 5.06758 16.7664 5.14439 16.7255C5.21945 16.6855 5.51996 16.4109 5.81216 16.1152C6.40842 15.5119 6.85112 15.2463 7.57489 15.0575C8.16966 14.9024 8.79824 14.9014 9.40007 15.0546Z" fill="white"/>
</svg>
