<svg width="27" height="28" viewBox="0 0 27 28" fill="none" xmlns="http://www.w3.org/2000/svg">
<path fill-rule="evenodd" clip-rule="evenodd" d="M6.54941 1.08372C5.96067 1.67979 4.61635 3.06848 3.56202 4.16975C1.99091 5.8108 1.62998 6.20569 1.56142 6.35864C1.4302 6.6513 1.44497 6.73084 1.69006 7.0514C1.8072 7.2046 4.13674 9.65329 6.86678 12.493L11.8305 17.6561H12.1084H12.3863L15.1386 14.8204L17.8909 11.9847H18.1266C18.9168 11.9847 19.6399 11.7593 20.2699 11.3165C20.6937 11.0186 21.2915 10.4277 21.5335 10.0675L21.6114 9.95159L23.7989 9.95038C26.0225 9.94917 26.6097 9.92555 26.7873 9.83018C27.0147 9.70805 26.9998 9.98887 26.9998 5.83688V2.07635L26.9033 1.96913C26.7308 1.7773 26.6823 1.77238 24.8132 1.75687L23.0902 1.74256L22.936 1.89676C22.7693 2.06351 22.7068 2.22616 22.7056 2.49682C22.7044 2.77343 22.7374 2.76287 21.833 2.77657L21.0262 2.7888L20.8878 2.97496C20.8118 3.07732 20.7369 3.22421 20.7215 3.30132C20.694 3.43865 20.6907 3.44129 20.5575 3.4303C20.1164 3.39385 19.6202 3.17359 18.4121 2.47816C17.7351 2.08844 16.5309 1.45914 15.9666 1.20018C15.2461 0.869569 14.714 0.749437 13.969 0.749187C13.2474 0.748938 13.0109 0.814033 11.0653 1.54849L10.1594 1.89048L9.23462 0.945223L8.30982 0H7.96484H7.61985L6.54941 1.08372ZM8.80228 2.63874C8.649 2.72292 8.60273 2.72902 8.02959 2.74029C7.53762 2.74996 7.38774 2.74118 7.25322 2.69478C6.90322 2.57407 6.89587 2.5989 7.4537 2.01711L7.95137 1.49805L8.45836 2.02363L8.96534 2.54918L8.80228 2.63874ZM14.5919 2.10845C14.7108 2.12689 14.8808 2.16724 14.9698 2.19816C15.4158 2.35307 17.3476 3.3346 18.0857 3.78128C18.5837 4.08265 19.23 4.40913 19.5628 4.52744C19.7329 4.58786 20.047 4.66787 20.261 4.70518C20.475 4.74249 20.6547 4.77851 20.6605 4.78525C20.6663 4.79196 20.678 5.74924 20.6866 6.91254L20.7023 9.02763L20.5071 9.30235C20.1602 9.79087 19.7004 10.1831 19.158 10.4533C18.8052 10.6292 18.4742 10.6828 17.956 10.6483C17.1161 10.5923 16.5609 10.3117 15.8728 9.59537L15.5094 9.2171L13.8949 8.65289C12.0378 8.00386 11.3541 7.7509 11.0786 7.61086C10.6812 7.4088 10.411 6.9704 10.4537 6.59684C10.4935 6.24742 10.7624 5.87479 11.0445 5.77813C11.3133 5.686 11.6775 5.7776 13.8091 6.47335C15.6581 7.07687 16.4371 7.3121 16.5867 7.3121C16.7605 7.3121 16.9446 7.17371 17.0384 6.97257C17.0995 6.84135 17.1117 6.7653 17.0995 6.59027C17.0855 6.38989 17.0734 6.36206 16.953 6.25395C16.7746 6.09387 16.5248 5.99888 14.619 5.36655L12.9728 4.82035L12.0684 3.88176C11.571 3.36553 11.164 2.93404 11.164 2.92291C11.164 2.89959 12.4543 2.40971 13.0077 2.22295C13.56 2.03651 13.9474 2.00851 14.5919 2.10845ZM25.7975 5.84968V8.63185H24.8872H23.9769V5.84968V3.06752H24.8872H25.7975V5.84968ZM6.27515 3.65459C6.75438 3.95018 7.25556 4.07373 7.98658 4.07648C8.64272 4.07898 8.95882 4.00546 9.51022 3.72225L9.90027 3.5219L10.3432 3.98082C10.5868 4.23321 10.7862 4.44829 10.7862 4.45878C10.7862 4.46926 10.6277 4.5569 10.4341 4.65353C10.0701 4.83512 9.82697 5.04774 9.50575 5.4651C9.40926 5.59044 9.33922 5.64362 9.23101 5.67362C9.01697 5.73294 8.62637 5.92723 8.35895 6.10732C7.70514 6.54768 7.24721 7.20684 7.05293 7.98731C6.94977 8.4016 6.93534 9.06497 7.02053 9.47416C7.223 10.4463 7.8229 11.2322 8.70795 11.6847C9.17103 11.9214 9.47683 11.9946 10.0133 11.9969C10.8492 12.0005 11.5225 11.7254 12.1346 11.1302C12.478 10.7963 12.8493 10.2323 12.9779 9.84933C12.9995 9.78488 13.034 9.74443 13.06 9.75295C13.0847 9.76101 13.4372 9.88125 13.8434 10.0201L14.582 10.2727L14.5823 10.9236C14.5826 11.6965 14.625 11.8945 14.9337 12.5662L15.1272 12.9871L14.6014 13.534L14.0756 14.0808L13.6933 13.8906C13.483 13.786 13.1718 13.6563 13.0018 13.6024C12.7164 13.5119 12.6477 13.5044 12.1087 13.5044C11.5699 13.5044 11.5008 13.512 11.2156 13.6023C11.0455 13.6562 10.7374 13.7888 10.5307 13.897L10.1551 14.0937L7.54387 11.3823L4.93265 8.67087L5.09101 8.35709C5.17812 8.18452 5.29942 7.89885 5.36053 7.72229C5.46354 7.42485 5.47289 7.36011 5.488 6.84042C5.51366 5.95726 5.41762 5.48047 5.09953 4.91198L4.93993 4.62681L5.46667 4.07901C5.75638 3.77772 6.01178 3.53121 6.03428 3.53121C6.05678 3.53121 6.16516 3.58671 6.27515 3.65459ZM22.7059 6.36688V8.63185H22.3281H21.9502V6.36688V4.10191H22.3281H22.7059V6.36688ZM4.14076 5.89427C4.30695 6.43565 4.28651 7.08571 4.08865 7.55016L4.01672 7.71898L3.50197 7.18562L2.98726 6.65223L3.49682 6.12611C3.77709 5.83673 4.01631 5.6 4.0284 5.6C4.04052 5.6 4.09105 5.73244 4.14076 5.89427ZM18.0943 6.74386C17.9508 6.82248 17.8063 7.02415 17.7743 7.19019C17.7268 7.43666 17.9003 7.77191 18.126 7.86982C18.4979 8.03115 18.913 7.8008 19.008 7.38041C19.0536 7.17852 18.8712 6.82526 18.6702 6.72621C18.5143 6.64938 18.2519 6.65744 18.0943 6.74386ZM9.25609 7.23185C9.31679 7.57944 9.60131 8.04613 9.96671 8.3974C10.2504 8.67016 10.5755 8.84693 11.2499 9.09511C11.8018 9.29825 11.7941 9.29332 11.7688 9.42448C11.6845 9.86221 11.0742 10.4711 10.5746 10.6159C10.2992 10.6957 9.72168 10.6877 9.45515 10.6002C9.00959 10.4541 8.62616 10.0923 8.3809 9.58677L8.23779 9.29172L8.25091 8.75669C8.26342 8.2463 8.26895 8.21071 8.37111 7.9841C8.44341 7.82363 8.55447 7.66597 8.71331 7.49833C8.92034 7.27971 9.14555 7.09862 9.21081 7.09823C9.22287 7.09816 9.24324 7.1583 9.25609 7.23185ZM16.1551 11.4675C16.3005 11.546 16.4195 11.6188 16.4196 11.6294C16.4197 11.6399 16.3419 11.7282 16.2467 11.8255C16.0527 12.024 16.0547 12.0247 15.9431 11.7172C15.8592 11.4856 15.8199 11.2949 15.8596 11.3117C15.8767 11.3189 16.0097 11.389 16.1551 11.4675ZM12.686 14.8721C12.8301 14.9104 12.9899 14.9645 13.0411 14.9923L13.1342 15.043L12.642 15.5648C12.3712 15.8518 12.1309 16.0866 12.1079 16.0866C12.0611 16.0866 11.1297 15.1049 11.1297 15.0556C11.1297 15.0184 11.1726 14.9985 11.4904 14.8888C11.8085 14.7789 12.3087 14.7719 12.686 14.8721ZM8.05528 16.9113C7.55414 17.0308 6.90817 17.3519 6.45797 17.7051C6.17691 17.9256 5.74611 18.3633 5.49573 18.6828L5.37591 18.8357L2.81853 18.8646L0.261101 18.8935L0.130636 19.0506L0.000171754 19.2076L0.000103053 23.0129L0 26.8182L0.149529 26.9454L0.299059 27.0726H2.12072H3.94235L4.06811 26.9281C4.23254 26.7391 4.25951 26.6566 4.25951 26.3425V26.0808L5.02382 26.0669C5.65742 26.0554 5.81155 26.0424 5.92505 25.9904C6.11748 25.9024 6.21311 25.7978 6.23716 25.6491C6.28068 25.3798 6.27553 25.385 6.47456 25.4093C6.89326 25.4605 7.35563 25.666 8.33009 26.2344C8.96974 26.6074 10.4102 27.36 11.0122 27.6357C11.77 27.9827 11.8633 28 12.9725 28H13.9113L14.2466 27.8886C14.9983 27.639 22.077 25.0047 22.6751 24.7521C23.0932 24.5755 23.2701 24.4756 23.5359 24.2661C23.925 23.9594 24.2202 23.5416 24.3798 23.0718C24.492 22.7416 24.5061 22.2242 24.4126 21.8661C24.1844 20.992 23.5569 20.3804 22.7072 20.2038C22.1658 20.0912 21.8995 20.1473 18.9789 20.9889C17.8145 21.3245 17.6698 21.3588 17.6392 21.3071C17.3135 20.7567 16.9184 20.3069 16.5797 20.1007C16.3685 19.9722 15.528 19.6562 13.6742 19.0083L12.145 18.4739L11.8521 18.1788C11.1134 17.4348 10.4283 17.0691 9.50726 16.9271C9.11477 16.8666 8.28076 16.8575 8.05528 16.9113ZM9.29061 18.2097C9.63883 18.2727 10.1229 18.4581 10.4221 18.6429C10.548 18.7207 10.7824 18.9336 11.0095 19.1764L11.3873 19.5806L13.0877 20.1831C15.0384 20.8744 15.7937 21.159 15.9942 21.2786C16.2913 21.4557 16.5219 21.8466 16.5224 22.174C16.5229 22.443 16.3522 22.7725 16.1331 22.9252C15.7371 23.2012 15.7339 23.2006 13.1736 22.3649C10.8415 21.6037 10.4567 21.4916 10.299 21.5275C10.1662 21.5578 9.96385 21.7441 9.90511 21.89C9.87959 21.9535 9.85871 22.0966 9.85871 22.2082C9.85871 22.6082 10.0155 22.6907 12.086 23.3793C15.1307 24.3919 15.2121 24.4143 15.7327 24.3873C16.6469 24.3397 17.348 23.8025 17.655 22.9145L17.7299 22.6978L19.0757 22.3121C22.0896 21.4483 22.1922 21.423 22.4464 21.4789C22.7874 21.5539 22.9895 21.7151 23.1165 22.0133C23.2812 22.4001 23.2308 22.7259 22.9572 23.0419C22.7568 23.2733 22.6262 23.3505 22.0189 23.5966C21.0436 23.9918 14.0584 26.6065 13.7232 26.7019C13.5152 26.761 12.6237 26.7683 12.2976 26.7135C12.1748 26.6929 11.9043 26.6016 11.6965 26.5107C11.1545 26.2737 9.54312 25.4366 8.75948 24.985C7.73853 24.3966 7.27147 24.2069 6.60396 24.1092L6.28621 24.0628V21.9249V19.7871L6.45508 19.5508C6.65356 19.2733 7.1275 18.7876 7.35988 18.6236C7.94096 18.2137 8.56907 18.079 9.29061 18.2097ZM2.98853 22.9707V25.7529H2.07823H1.16793V22.9707V20.1885H2.07823H2.98853V22.9707ZM5.01523 22.4713V24.7541H4.65455H4.29386V22.4713V20.1885H4.65455H5.01523V22.4713ZM8.33009 20.9414C8.09743 21.0816 7.96941 21.289 7.96941 21.5255C7.96941 21.7416 8.03498 21.8948 8.18685 22.0332C8.57986 22.3915 9.18151 22.0802 9.18151 21.5186C9.18151 21.3027 9.13088 21.2084 8.9199 21.0311C8.81839 20.9457 8.75309 20.9218 8.59579 20.9121C8.48622 20.9053 8.36829 20.9184 8.33009 20.9414Z" fill="white"/>
</svg>
