<svg width="28" height="28" viewBox="0 0 28 28" fill="none" xmlns="http://www.w3.org/2000/svg">
<path fill-rule="evenodd" clip-rule="evenodd" d="M14.9926 0.0723068C14.8722 0.149701 14.7208 0.34966 14.6603 0.511387C14.6012 0.669538 14.6164 1.00147 14.6903 1.16466C14.7267 1.24492 14.8144 1.36705 14.8853 1.43604C15.0327 1.57956 15.3329 1.6826 16.1209 1.8601C18.7029 2.4417 21.0846 3.82665 22.9234 5.81565C24.623 7.65416 25.6338 9.58326 26.2114 12.0907C26.2911 12.4365 26.374 12.7664 26.3958 12.8237C26.5436 13.2135 27.06 13.4582 27.4838 13.3393C27.583 13.3114 27.7163 13.2311 27.8235 13.1344L28 12.9753V12.3866C28 11.7335 27.9809 11.616 27.7305 10.7288C26.8353 7.55674 24.86 4.71847 22.1389 2.69409C20.5217 1.49105 18.7311 0.643752 16.7812 0.158964C16.1685 0.00667896 16.1159 -0.000545465 15.6218 2.67668e-05C15.1654 0.000563234 15.0911 0.00907518 14.9926 0.0723068ZM4.83963 1.57184C4.34124 1.66307 3.88502 1.90184 3.35003 2.35143C2.94283 2.69366 1.41225 4.24795 1.01581 4.7218C0.501553 5.33655 0.205825 5.86358 0.0533944 6.43702C-0.00147052 6.64339 -0.00682145 6.82607 0.0054857 8.06431L0.0193625 9.45912L0.148106 9.97771C0.471195 11.2789 0.878865 12.3567 1.60242 13.8224C2.12556 14.8821 2.43599 15.4228 3.08077 16.3974C5.14006 19.5102 7.563 22.0494 10.4358 24.1056C13.1338 26.0368 16.1404 27.4724 18.4102 27.9133C18.8803 28.0046 18.9156 28.0063 20.1542 27.9954L21.4184 27.9844L21.7216 27.8823C22.1237 27.7469 22.465 27.5823 22.8109 27.3569C23.302 27.0368 25.5903 24.7128 25.9353 24.1837C26.2558 23.6921 26.4582 22.998 26.4191 22.5246C26.3725 21.962 26.1127 21.3047 25.7728 20.8896C25.5049 20.5625 21.9986 17.0689 21.7572 16.8887C21.5162 16.7087 21.1033 16.5099 20.7941 16.4252C20.478 16.3386 19.7953 16.3405 19.4742 16.4289C18.8126 16.6109 18.5528 16.8098 17.0986 18.2475C16.6455 18.6954 16.2535 19.0619 16.2276 19.0619C16.1418 19.0619 15.3272 18.5974 14.8189 18.2587C13.8549 17.6164 12.9925 16.8933 11.982 15.8799C10.6561 14.5504 9.68611 13.304 9.11384 12.1947L8.88511 11.7513L9.80383 10.8151C10.8442 9.75486 11.1414 9.40329 11.3431 8.99418C11.5618 8.5506 11.6394 8.18512 11.6163 7.70738C11.5797 6.94889 11.3673 6.49393 10.7202 5.78865C10.1928 5.21381 7.79277 2.82857 7.29171 2.38137C6.57258 1.73947 6.20276 1.57263 5.45473 1.55274C5.20948 1.54623 4.9327 1.55482 4.83963 1.57184ZM5.67883 3.40963C5.74197 3.43621 5.95405 3.60115 6.15014 3.77622C7.00012 4.53496 9.474 7.04806 9.68482 7.3669C9.79616 7.53528 9.85873 7.78746 9.82887 7.94718C9.78164 8.1995 9.50197 8.53118 8.32365 9.73215C7.63024 10.4389 7.11581 10.9921 7.07646 11.0733C7.03715 11.1545 7.00369 11.3168 6.99541 11.4664C6.96748 11.9719 7.19322 12.5693 7.77896 13.5399C8.50366 14.7407 9.26724 15.6887 10.6088 17.0532C12.273 18.7458 13.685 19.8203 15.3365 20.6508C15.7695 20.8686 15.9781 20.9536 16.124 20.9719C16.3507 21.0003 16.7056 20.9523 16.8789 20.8699C17.0056 20.8096 17.4902 20.3656 18.804 19.1059C19.3037 18.6268 19.6963 18.2794 19.7894 18.2339C19.9807 18.1405 20.3007 18.1554 20.5586 18.2698C20.8751 18.4101 24.3594 21.9415 24.5161 22.2807C24.614 22.4925 24.6136 22.8128 24.5152 23.0317C24.4369 23.2061 23.9546 23.7505 23.0787 24.6534C22.0524 25.7112 21.6741 26.0019 21.0961 26.1769C20.025 26.501 18.1637 26.1707 16.1722 25.303C13.2684 24.0377 10.7106 22.3014 8.40285 20.0289C5.58601 17.2551 3.46497 14.074 2.33318 10.9257C1.65382 9.03592 1.53125 7.42605 1.99304 6.45845C2.12799 6.17573 2.64111 5.61169 3.82152 4.44856C4.84858 3.43649 4.95349 3.36128 5.33801 3.36128C5.46233 3.36128 5.61569 3.38302 5.67883 3.40963ZM15.0983 5.00537C14.8171 5.07154 14.5516 5.31116 14.4432 5.59656C14.3932 5.72835 14.39 6.06557 14.4377 6.18667C14.5108 6.37254 14.6886 6.56964 14.8528 6.64707C14.9446 6.69027 15.2568 6.78902 15.5468 6.86645C16.211 7.04388 16.6096 7.18432 17.0832 7.40774C18.5603 8.10476 19.8521 9.39006 20.5827 10.8897C20.854 11.4467 20.982 11.8029 21.1529 12.4771C21.3073 13.0862 21.406 13.2913 21.6195 13.4464C22.0289 13.7437 22.6679 13.6065 22.9263 13.1658C23.0679 12.9243 23.0561 12.5588 22.8855 11.8999C22.2034 9.2661 20.4605 7.08965 18.0593 5.87323C17.4209 5.54978 16.8092 5.31942 16.1403 5.15054C15.5579 5.00348 15.2743 4.96399 15.0983 5.00537Z" fill="white"/>
</svg>
