<svg width="20" height="20" viewBox="0 0 20 20" fill="none" xmlns="http://www.w3.org/2000/svg">
<path fill-rule="evenodd" clip-rule="evenodd" d="M10.6313 2.41587C10.3378 2.56297 10.3116 2.97789 10.5845 3.15629C10.6265 3.18375 10.8324 3.24424 11.0421 3.29073C11.6836 3.43296 12.0003 3.53759 12.5749 3.79731C13.3981 4.16932 14.126 4.68643 14.8055 5.38194C15.7863 6.3859 16.4295 7.59285 16.7295 8.99225C16.8105 9.36999 16.8305 9.41693 16.9477 9.50393C17.135 9.64296 17.3682 9.62977 17.5202 9.47149C17.657 9.32905 17.6662 9.23615 17.5837 8.83187C16.9838 5.89323 14.7556 3.46382 11.8716 2.60388C11.5431 2.50594 10.91 2.36356 10.8032 2.36365C10.7659 2.36365 10.6885 2.38716 10.6313 2.41587ZM4.85377 3.3158C4.47054 3.43812 4.15225 3.70411 3.25522 4.65164C2.61265 5.33043 2.4365 5.67237 2.3768 6.35698C2.29194 7.33014 2.62079 8.56225 3.34597 9.98833C3.65284 10.5918 3.79029 10.8258 4.17878 11.4058C5.6451 13.5953 7.567 15.3411 9.838 16.5465C11.125 17.2296 12.2124 17.5804 13.2031 17.632C13.9035 17.6686 14.5255 17.4732 14.9928 17.0699C15.0476 17.0226 15.3913 16.678 15.7565 16.3041C16.3613 15.6851 16.4319 15.6019 16.547 15.3728C16.773 14.9229 16.7736 14.5217 16.549 14.0618C16.4282 13.8145 16.3974 13.7805 15.3151 12.7001C14.2647 11.6515 14.193 11.5863 13.9791 11.4847C13.5211 11.2672 13.0502 11.2883 12.6058 11.5461C12.5313 11.5894 12.1919 11.8993 11.8516 12.2348L11.233 12.8449L10.9351 12.6875C9.62027 11.9928 7.89163 10.2565 7.24918 8.98512L7.13429 8.75781L7.70932 8.17937C8.32233 7.56271 8.46968 7.37685 8.56866 7.09555C8.70224 6.7159 8.67532 6.3506 8.48544 5.96667C8.38751 5.76867 8.28632 5.65864 7.26871 4.6437C6.11046 3.48844 6.0172 3.41064 5.66514 3.30634C5.45088 3.24287 5.06839 3.24731 4.85377 3.3158ZM5.52422 4.1841C5.71156 4.27192 7.64432 6.2095 7.727 6.39232C7.88245 6.7361 7.81706 6.84947 6.99544 7.66062C6.62971 8.02171 6.30705 8.36323 6.27845 8.41957C6.19446 8.58499 6.23011 8.88735 6.36813 9.18031C6.7527 9.99659 7.37577 10.8195 8.32529 11.7653C9.10453 12.5414 9.90578 13.1424 10.716 13.5586C11.0548 13.7327 11.1008 13.7484 11.2694 13.747C11.3873 13.746 11.4908 13.7258 11.5579 13.6906C11.6155 13.6605 11.9655 13.3372 12.3356 12.9723C12.7058 12.6074 13.0546 12.2855 13.1107 12.2569C13.2602 12.1809 13.522 12.2056 13.6729 12.3099C13.8845 12.4562 15.7032 14.3058 15.7752 14.4479C15.8629 14.6209 15.8627 14.8163 15.7748 14.9888C15.7102 15.1156 14.7464 16.124 14.4147 16.4119C13.9352 16.8279 13.2615 16.8782 12.1562 16.5803C11.3487 16.3626 10.1023 15.7598 9.07525 15.0902C6.89084 13.6661 4.89308 11.3587 3.88304 9.09309C3.23368 7.63657 3.0736 6.51977 3.41465 5.82531C3.47612 5.70015 3.65876 5.49582 4.18393 4.96462C4.61974 4.52382 4.92203 4.24217 5.00722 4.19755C5.17461 4.10991 5.35597 4.10519 5.52422 4.1841ZM10.4883 5.19847C10.2837 5.32288 10.2114 5.59197 10.3302 5.78639C10.4142 5.92379 10.4874 5.96082 10.849 6.04886C11.6786 6.25083 12.3439 6.63019 12.9107 7.22441C13.4442 7.78372 13.8067 8.45622 13.9662 9.18258C14.028 9.464 14.0715 9.55839 14.1777 9.64171C14.4199 9.83186 14.8087 9.69169 14.8647 9.39408C14.9072 9.16778 14.6825 8.38982 14.425 7.87187C13.7576 6.52974 12.5476 5.5632 11.0943 5.21142C10.7314 5.12359 10.6155 5.12112 10.4883 5.19847Z" fill="#004495"/>
<path d="M5.52422 4.1841C5.71156 4.27192 7.64432 6.2095 7.727 6.39232C7.88245 6.7361 7.81706 6.84947 6.99544 7.66062C6.62971 8.02171 6.30705 8.36323 6.27845 8.41957C6.19446 8.58499 6.23011 8.88735 6.36813 9.18031C6.7527 9.99659 7.37577 10.8195 8.32529 11.7653C9.10453 12.5414 9.90578 13.1424 10.716 13.5586C11.0548 13.7327 11.1008 13.7484 11.2694 13.747C11.3873 13.746 11.4908 13.7258 11.5579 13.6906C11.6155 13.6605 11.9655 13.3372 12.3356 12.9723C12.7058 12.6074 13.0546 12.2855 13.1107 12.2569C13.2602 12.1809 13.522 12.2056 13.6729 12.3099C13.8845 12.4562 15.7032 14.3058 15.7752 14.4479C15.8629 14.6209 15.8627 14.8163 15.7748 14.9888C15.7102 15.1156 14.7464 16.124 14.4147 16.4119C13.9352 16.8279 13.2615 16.8782 12.1562 16.5803C11.3487 16.3626 10.1023 15.7598 9.07525 15.0902C6.89084 13.6661 4.89308 11.3587 3.88304 9.09309C3.23368 7.63657 3.0736 6.51977 3.41465 5.82531C3.47612 5.70015 3.65876 5.49582 4.18393 4.96462C4.61974 4.52382 4.92203 4.24217 5.00722 4.19755C5.17461 4.10991 5.35597 4.10519 5.52422 4.1841Z" fill="#004495"/>
</svg>
