<svg width="20" height="20" viewBox="0 0 20 20" fill="none" xmlns="http://www.w3.org/2000/svg">
<path fill-rule="evenodd" clip-rule="evenodd" d="M10.6313 2.41587C10.3378 2.56297 10.3116 2.97789 10.5845 3.15629C10.6265 3.18375 10.8324 3.24424 11.0421 3.29073C11.6836 3.43296 12.0003 3.53759 12.5749 3.79731C13.3981 4.16932 14.126 4.68643 14.8055 5.38194C15.7863 6.3859 16.4295 7.59285 16.7295 8.99225C16.8105 9.36999 16.8305 9.41694 16.9477 9.50393C17.135 9.64296 17.3682 9.62977 17.5202 9.47149C17.657 9.32905 17.6662 9.23615 17.5837 8.83187C16.9838 5.89323 14.7556 3.46382 11.8716 2.60388C11.5431 2.50594 10.91 2.36356 10.8032 2.36365C10.7659 2.36365 10.6885 2.38716 10.6313 2.41587ZM4.85377 3.3158C4.47054 3.43812 4.15225 3.70411 3.25522 4.65164C2.61265 5.33043 2.4365 5.67237 2.3768 6.35698C2.29194 7.33014 2.62079 8.56225 3.34597 9.98833C3.65284 10.5918 3.79029 10.8258 4.17878 11.4058C5.64509 13.5953 7.567 15.3411 9.838 16.5465C11.125 17.2296 12.2124 17.5804 13.2031 17.632C13.9035 17.6686 14.5255 17.4732 14.9928 17.0699C15.0476 17.0226 15.3913 16.678 15.7565 16.3041C16.3613 15.6851 16.4319 15.6019 16.547 15.3728C16.773 14.9229 16.7736 14.5217 16.549 14.0618C16.4282 13.8145 16.3974 13.7805 15.3151 12.7001C14.2647 11.6515 14.193 11.5863 13.9791 11.4847C13.5211 11.2672 13.0502 11.2883 12.6058 11.5461C12.5313 11.5894 12.1919 11.8993 11.8516 12.2348L11.233 12.8449L10.9351 12.6875C9.62027 11.9928 7.89163 10.2565 7.24918 8.98512L7.13429 8.75781L7.70932 8.17937C8.32233 7.56271 8.46968 7.37685 8.56866 7.09555C8.70224 6.7159 8.67532 6.3506 8.48544 5.96667C8.38751 5.76867 8.28632 5.65864 7.26871 4.6437C6.11046 3.48844 6.0172 3.41064 5.66514 3.30634C5.45088 3.24287 5.06839 3.24731 4.85377 3.3158ZM5.52422 4.1841C5.71156 4.27192 7.64432 6.2095 7.72699 6.39232C7.88245 6.7361 7.81706 6.84947 6.99544 7.66062C6.62971 8.02171 6.30705 8.36323 6.27845 8.41957C6.19446 8.58499 6.23011 8.88735 6.36813 9.18031C6.7527 9.99659 7.37577 10.8195 8.32529 11.7653C9.10453 12.5414 9.90578 13.1424 10.716 13.5586C11.0548 13.7327 11.1008 13.7484 11.2694 13.747C11.3873 13.746 11.4908 13.7258 11.5579 13.6906C11.6155 13.6605 11.9655 13.3372 12.3356 12.9723C12.7058 12.6074 13.0546 12.2855 13.1107 12.257C13.2602 12.1809 13.522 12.2056 13.6729 12.3099C13.8845 12.4562 15.7032 14.3058 15.7752 14.4479C15.8629 14.6209 15.8627 14.8163 15.7748 14.9888C15.7102 15.1156 14.7464 16.124 14.4147 16.4119C13.9352 16.8279 13.2615 16.8782 12.1562 16.5803C11.3487 16.3626 10.1023 15.7598 9.07525 15.0902C6.89084 13.6661 4.89308 11.3587 3.88304 9.09309C3.23368 7.63657 3.0736 6.51977 3.41465 5.82531C3.47612 5.70015 3.65876 5.49582 4.18393 4.96462C4.61974 4.52382 4.92203 4.24217 5.00722 4.19755C5.17461 4.10991 5.35597 4.10519 5.52422 4.1841ZM10.4883 5.19847C10.2837 5.32288 10.2114 5.59197 10.3302 5.7864C10.4142 5.92379 10.4874 5.96082 10.849 6.04886C11.6786 6.25083 12.3439 6.63019 12.9107 7.22441C13.4442 7.78372 13.8067 8.45622 13.9662 9.18258C14.028 9.464 14.0715 9.55839 14.1777 9.64171C14.4199 9.83186 14.8087 9.69169 14.8647 9.39408C14.9072 9.16778 14.6825 8.38982 14.425 7.87187C13.7576 6.52974 12.5476 5.5632 11.0943 5.21142C10.7314 5.12359 10.6155 5.12112 10.4883 5.19847Z" fill="#222222"/>
<rect width="20" height="20" rx="6" fill="#7C50A0"/>
<path fill-rule="evenodd" clip-rule="evenodd" d="M8.9559 3.01676C7.40974 3.14984 6.1875 3.50848 5.3093 4.08673C4.38043 4.69836 3.80439 5.83077 3.59183 7.46314C3.4757 8.35494 3.46844 10.0586 3.57733 10.8702C3.85894 12.9698 4.78155 14.2492 6.41251 14.8019L6.64118 14.8794L6.6412 15.6748C6.6412 16.308 6.64983 16.499 6.68348 16.6108C6.75844 16.86 6.93053 17.0005 7.16008 17C7.40311 16.9994 7.65415 16.7736 8.45177 15.8381L8.8943 15.3191L9.96463 15.3171C11.104 15.315 11.3919 15.294 12.227 15.1523C12.6733 15.0765 13.5102 14.8565 13.8348 14.7297C15.0469 14.2558 15.8697 13.2856 16.2143 11.9238C16.4636 10.9387 16.5699 9.13797 16.4517 7.90099C16.2977 6.28836 15.848 5.13819 15.0849 4.4053C14.3703 3.71881 13.1239 3.26894 11.3399 3.05354C10.9445 3.00582 9.36608 2.98146 8.9559 3.01676ZM11.2706 4.04111C12.8381 4.23404 13.9722 4.65123 14.4848 5.22343C14.991 5.78841 15.2999 6.62636 15.4468 7.83258C15.5063 8.32085 15.5144 9.69706 15.4613 10.2955C15.3711 11.3119 15.2448 11.826 14.9448 12.3963C14.626 13.0025 14.0965 13.4863 13.4696 13.7439C13.2086 13.8511 12.4437 14.0513 11.9636 14.1379C11.2734 14.2625 10.8388 14.2991 9.95385 14.3073L9.12222 14.315L8.83329 14.6656C8.38973 15.2038 7.49249 16.2596 7.35502 16.405C7.27086 16.4941 7.21001 16.535 7.16183 16.535C7.01447 16.535 7.01544 16.5439 7.01544 15.2015V13.959L6.84911 13.9038C6.37165 13.7453 5.93374 13.4832 5.59951 13.1557C5.02389 12.5919 4.7072 11.8864 4.54285 10.8018C4.47069 10.3257 4.47113 8.38633 4.54354 7.80787C4.64128 7.02673 4.77781 6.52768 5.03461 6.01273C5.37148 5.33722 5.77094 4.94646 6.46102 4.61746C7.10714 4.3094 7.99698 4.09346 8.99748 4.00192C9.39511 3.96555 10.8622 3.99083 11.2706 4.04111ZM9.79196 5.54701C9.75903 5.57955 9.74575 5.6276 9.7514 5.69394C9.76213 5.81991 9.83983 5.86126 10.0668 5.8618C10.1594 5.86202 10.3524 5.88211 10.4957 5.90641C11.4854 6.07425 12.2693 6.63424 12.7198 7.49532C12.9615 7.95729 13.0843 8.42579 13.1272 9.04928C13.1536 9.43396 13.1723 9.47455 13.3229 9.47455C13.4352 9.47455 13.4883 9.39666 13.4883 9.23187C13.4883 9.01381 13.4354 8.58665 13.3729 8.29936C13.0217 6.68657 11.7714 5.60308 10.1607 5.51598C9.87753 5.50065 9.83534 5.50421 9.79196 5.54701ZM7.43546 5.9309C7.1322 6.00693 6.62499 6.45562 6.46457 6.78987C6.39313 6.93874 6.37786 7.00426 6.37786 7.16211C6.37786 7.34245 6.39219 7.38654 6.6226 7.91468C7.06508 8.92898 7.50945 9.69668 8.0166 10.3229C8.39402 10.7889 9.00247 11.3445 9.5519 11.7249C10.086 12.0947 10.9835 12.5858 11.5201 12.8019C11.9216 12.9636 12.108 12.9756 12.3609 12.8561C12.7212 12.6859 13.1888 12.1274 13.2501 11.7942C13.2823 11.6188 13.228 11.4959 13.0377 11.3134C12.7427 11.0306 12.2526 10.6719 11.8714 10.4599C11.7477 10.3911 11.6762 10.3698 11.5664 10.3692C11.338 10.3678 11.2439 10.4253 11.024 10.7005C10.8233 10.9517 10.8011 10.9693 10.6335 11.0088C10.464 11.0487 9.9984 10.8654 9.59522 10.6C9.07854 10.2598 8.57945 9.60103 8.31702 8.91275C8.19393 8.58999 8.23751 8.46449 8.56794 8.18979C8.83989 7.96374 8.90046 7.84872 8.8818 7.594C8.87207 7.46144 8.84382 7.39111 8.70824 7.16205C8.50904 6.8255 8.35801 6.61139 8.07634 6.2663C7.79437 5.92083 7.69113 5.86681 7.43546 5.9309ZM10.1132 6.45157C10.0407 6.50179 10.0271 6.65589 10.0899 6.71779C10.1113 6.73897 10.2364 6.77115 10.3679 6.7893C11.4901 6.9443 12.1405 7.6394 12.2274 8.77671C12.2477 9.04285 12.2855 9.11879 12.3976 9.11879C12.4333 9.11879 12.4875 9.09416 12.518 9.06406C12.5876 8.99534 12.593 8.74365 12.5321 8.39919C12.3619 7.4358 11.7148 6.74201 10.7681 6.50808C10.3928 6.41534 10.1908 6.39791 10.1132 6.45157ZM10.3558 7.42209C10.3253 7.45219 10.3004 7.50525 10.3004 7.54001C10.3004 7.65579 10.361 7.69813 10.5805 7.73578C11.0421 7.8149 11.2647 8.04872 11.3243 8.51723C11.3514 8.73052 11.4055 8.81776 11.5105 8.81776C11.6013 8.81776 11.6864 8.7245 11.6864 8.62505C11.6864 8.47541 11.6003 8.12608 11.5294 7.98791C11.4362 7.80628 11.2318 7.59551 11.0707 7.51494C10.9247 7.4419 10.6403 7.36839 10.5013 7.36776C10.4478 7.36752 10.3888 7.38955 10.3558 7.42209Z" fill="white"/>
</svg>
