<svg width="24" height="24" viewBox="0 0 24 24" fill="none" xmlns="http://www.w3.org/2000/svg">
<path d="M6.95964 4.84798V8.01598H5.32764V4.84798C5.32764 4.51198 5.61564 4.22398 5.95164 4.22398H6.28764C6.67164 4.17598 6.95964 4.46398 6.95964 4.84798Z" fill="white"/>
<path d="M20.2076 4.12798C20.1116 3.26398 19.3916 2.59198 18.4796 2.59198H12.6716C11.9036 2.59198 11.1836 3.11998 10.9916 3.88798L9.83956 8.44798H3.50356C3.11956 8.44798 2.78356 8.59198 2.54356 8.87998C1.34356 10.272 1.39156 12.288 1.63156 13.584C2.49556 12.816 3.59956 12.384 4.75156 12.384C5.99956 12.384 7.19956 12.864 8.11156 13.776C8.78356 14.448 9.21556 15.264 9.40756 16.176H11.5196C11.3756 14.4 11.9516 12.576 13.3436 11.184C14.5436 9.98398 16.0796 9.35998 17.7596 9.35998C18.8636 9.35998 19.9196 9.64798 20.8316 10.176L20.2076 4.12798ZM15.3116 8.39998H11.2316L12.2876 4.22398C12.3356 4.03198 12.4796 3.88798 12.6716 3.88798H15.2636V8.39998H15.3116ZM16.5116 8.39998V3.88798H18.5276C18.7196 3.88798 18.9116 4.03198 18.9596 4.27198L19.3916 8.39998H16.5116Z" fill="white"/>
<path d="M7.72777 14.16C6.04777 12.48 3.35977 12.48 1.72777 14.16C0.0477735 15.84 0.0477735 18.528 1.72777 20.16C3.35977 21.792 6.09577 21.792 7.72777 20.16C9.40777 18.48 9.40777 15.792 7.72777 14.16ZM6.14377 18.576C5.37577 19.392 4.07977 19.392 3.26377 18.576C2.44777 17.76 2.44777 16.512 3.26377 15.696C4.07977 14.88 5.37577 14.88 6.14377 15.696C6.95977 16.512 6.95977 17.808 6.14377 18.576Z" fill="white"/>
<path d="M21.8398 11.568C19.5838 9.31198 15.9358 9.31198 13.6798 11.568C11.4238 13.824 11.4238 17.472 13.6798 19.728C15.9358 21.984 19.5838 21.984 21.8398 19.728C24.0958 17.472 24.0958 13.776 21.8398 11.568ZM20.0638 17.952C18.8158 19.2 16.7038 19.2 15.4558 17.952C14.1598 16.656 14.1598 14.592 15.4558 13.344C16.7518 12.048 18.8158 12.048 20.0638 13.344C21.3598 14.592 21.3598 16.656 20.0638 17.952Z" fill="white"/>
<path d="M4.70378 17.664C4.99539 17.664 5.23178 17.4276 5.23178 17.136C5.23178 16.8444 4.99539 16.608 4.70378 16.608C4.41218 16.608 4.17578 16.8444 4.17578 17.136C4.17578 17.4276 4.41218 17.664 4.70378 17.664Z" fill="white"/>
<path d="M17.7596 16.848C18.4223 16.848 18.9596 16.3107 18.9596 15.648C18.9596 14.9853 18.4223 14.448 17.7596 14.448C17.0968 14.448 16.5596 14.9853 16.5596 15.648C16.5596 16.3107 17.0968 16.848 17.7596 16.848Z" fill="white"/>
</svg>
