<svg width="24" height="24" viewBox="0 0 24 24" fill="none" xmlns="http://www.w3.org/2000/svg">
<g clip-path="url(#clip0_1739_913)">
<path d="M23.5296 7.58653C23.2478 7.48758 22.9343 7.57758 22.7478 7.81078C21.6904 9.13256 20.1132 9.89062 18.4204 9.89062H16.9616C16.6396 9.1335 16.1481 8.46309 15.5156 7.92V7.26562C15.5156 3.25931 12.2563 0 8.25 0C7.95141 0 7.68534 0.188578 7.58653 0.470391C7.48767 0.752156 7.57763 1.06561 7.81078 1.25217C9.13256 2.30958 9.89062 3.88687 9.89062 5.57958V7.03847C9.13345 7.36041 8.46309 7.85194 7.92 8.48438H7.26558C3.25931 8.48438 0 11.7437 0 15.75C0 16.0486 0.188625 16.3147 0.470391 16.4135C0.752109 16.5123 1.06561 16.4223 1.25217 16.1892C2.30958 14.8674 3.88683 14.1094 5.57958 14.1094H7.03842C7.36041 14.8665 7.85194 15.5369 8.48438 16.08V16.7344C8.48438 20.7407 11.7437 24 15.75 24C16.0486 24 16.3147 23.8114 16.4135 23.5296C16.5123 23.2478 16.4224 22.9344 16.1892 22.7478C14.8674 21.6904 14.1094 20.1131 14.1094 18.4204V16.9616C14.8665 16.6396 15.5369 16.1481 16.08 15.5156H16.7344C20.7407 15.5156 24 12.2563 24 8.25C24 7.95141 23.8114 7.68534 23.5296 7.58653ZM12 13.875C10.9661 13.875 10.125 13.0339 10.125 12C10.125 10.9661 10.9661 10.125 12 10.125C13.0339 10.125 13.875 10.9661 13.875 12C13.875 13.0339 13.0339 13.875 12 13.875Z" fill="white"/>
</g>
<defs>
<clipPath id="clip0_1739_913">
<rect width="24" height="24" fill="white"/>
</clipPath>
</defs>
</svg>
