<svg width="24" height="24" viewBox="0 0 24 24" fill="none" xmlns="http://www.w3.org/2000/svg">
<path d="M22.5652 19.6804C22.4267 20.4165 21.7409 21.2465 20.8974 21.699C20.053 22.1519 19.3092 22.0884 19.0886 21.5443C16.2117 18.6845 17 15 8 13.5L12.9142 4C14.1811 4.11814 16.3441 4.50779 18.3532 5.77075C20.1273 6.88609 21.413 8.45538 22.1745 10.4351C23.1235 12.9024 23.255 16.0129 22.5652 19.6804Z" fill="white"/>
<path d="M10.38 4.32872L6.5102 11.8942L5.98354 12.9238C5.1116 12.5913 4.36939 11.91 3.91845 10.9993C3.33642 9.82388 3.33137 8.45265 3.90498 7.33131L5.33962 4.52661C5.8034 3.61986 6.57378 3.01969 7.44313 2.78261C8.31257 2.54551 9.28094 2.67152 10.1409 3.21729L10.7506 3.60427L10.38 4.32872Z" fill="white"/>
</svg>
