<svg width="24" height="24" viewBox="0 0 24 24" fill="none" xmlns="http://www.w3.org/2000/svg">
<path d="M12 24C18.6274 24 24 18.6274 24 12C24 5.37258 18.6274 0 12 0C5.37258 0 0 5.37258 0 12C0 18.6274 5.37258 24 12 24Z" fill="#6F3FAA"/>
<path d="M18.9313 8.10681V8.08909C18.7704 7.43727 18.3504 6.76363 17.7994 6.19636C17.1558 5.5309 16.3363 5.00863 15.5535 4.83954H15.5372C13.203 4.39227 10.805 4.39227 8.47081 4.83954H8.45445C7.00081 5.15454 5.42308 6.67363 5.07127 8.08909V8.10681C4.63901 10.0692 4.63901 12.1022 5.07127 14.0645V14.0809C5.32217 15.09 6.1949 16.1509 7.20127 16.7918C7.52992 17.006 7.88768 17.1718 8.26354 17.2841V18.8632C8.26407 18.9894 8.30216 19.1126 8.37296 19.217C8.44376 19.3215 8.54406 19.4025 8.66108 19.4497C8.7781 19.497 8.90654 19.5083 9.03002 19.4823C9.15351 19.4563 9.26645 19.3941 9.35445 19.3036L10.9554 17.64C11.3017 17.6591 11.6508 17.67 11.9972 17.67C13.1828 17.6696 14.3658 17.5573 15.5304 17.3345H15.5467C16.9963 17.0182 18.5754 15.4991 18.9244 14.0836V14.0673C19.3594 12.1045 19.3617 10.0706 18.9313 8.10681ZM17.6644 13.7727C17.4299 14.6959 16.2326 15.8455 15.2794 16.0568C14.0414 16.294 12.7814 16.3968 11.5213 16.3636C11.509 16.3629 11.4967 16.3649 11.4854 16.3697C11.474 16.3744 11.4639 16.3817 11.4558 16.3909L10.2872 17.5909L9.04354 18.8659C9.02364 18.8869 8.9979 18.9015 8.96963 18.9077C8.94136 18.914 8.91187 18.9115 8.88498 18.9008C8.85809 18.8901 8.83505 18.8715 8.81882 18.8476C8.8026 18.8236 8.79395 18.7953 8.79399 18.7664V16.1482C8.79402 16.1271 8.78667 16.1067 8.77322 16.0905C8.75977 16.0743 8.74106 16.0634 8.72036 16.0595C8.52154 16.0123 8.32987 15.939 8.15036 15.8414C7.34036 15.4091 6.52354 14.5227 6.33536 13.7727C5.94557 11.9989 5.94557 10.1616 6.33536 8.38772C6.56854 7.46863 7.77263 6.32181 8.71899 6.10909C10.8862 5.69442 13.1123 5.69442 15.2794 6.10909C15.8044 6.22636 16.4044 6.6259 16.8735 7.11681C17.2594 7.51636 17.5554 7.97727 17.6644 8.39181C18.0536 10.1643 18.0536 12.0002 17.6644 13.7727Z" fill="white"/>
<path d="M15.3137 13.9091C15.1366 14.3134 14.832 14.6486 14.4464 14.8636C14.3255 14.915 14.1999 14.9547 14.0714 14.9823C13.9255 14.9386 13.7864 14.9086 13.6624 14.8555C12.6287 14.4532 11.6664 13.8873 10.8124 13.1795C10.5587 12.9632 10.3204 12.7295 10.0992 12.48C9.55295 11.851 9.09425 11.151 8.73553 10.3991C8.56099 10.0432 8.41372 9.675 8.26372 9.30818C8.12735 8.97409 8.32917 8.62636 8.53644 8.37681C8.73933 8.14538 8.98889 7.95949 9.26872 7.83136C9.36718 7.78187 9.47987 7.76841 9.58722 7.79332C9.69458 7.81823 9.78982 7.87993 9.85644 7.96772C10.2048 8.35916 10.5119 8.78551 10.7728 9.24C10.855 9.37215 10.8831 9.53086 10.8514 9.68321C10.8196 9.83556 10.7305 9.96984 10.6024 10.0582C10.5342 10.1059 10.466 10.1605 10.4074 10.2136C10.3495 10.2564 10.2997 10.3091 10.2601 10.3691C10.2259 10.4253 10.2051 10.4886 10.1995 10.5541C10.1938 10.6196 10.2033 10.6856 10.2274 10.7468C10.4905 11.4709 10.8901 12.075 11.4874 12.4991C11.6895 12.642 11.9073 12.7614 12.1364 12.855C12.2861 12.9364 12.4543 12.9777 12.6246 12.975C12.9219 12.9395 13.0201 12.6109 13.2274 12.4418C13.3225 12.3639 13.4402 12.3188 13.5631 12.3131C13.6859 12.3075 13.8073 12.3416 13.9092 12.4105C14.1301 12.5468 14.3428 12.7009 14.5555 12.8509C14.7659 12.9945 14.9685 13.1493 15.1624 13.3145C15.253 13.3804 15.3178 13.4759 15.3454 13.5845C15.3731 13.6931 15.3618 13.8079 15.3137 13.9091Z" fill="white"/>
<path d="M12.3913 7.37453H12.2168C12.2727 7.37181 12.3313 7.37453 12.3913 7.37453Z" fill="white"/>
<path d="M15.409 11.4614C15.2727 11.4614 15.2059 11.3454 15.1963 11.2186C15.1786 10.9691 15.1649 10.7182 15.1309 10.47C15.0719 10.0513 14.9261 9.64947 14.7027 9.29044C14.4731 8.91642 14.1675 8.59475 13.8058 8.34623C13.444 8.09771 13.0342 7.92788 12.6027 7.84772C12.4063 7.81226 12.2059 7.80408 12.0081 7.78363C11.8827 7.76999 11.7177 7.76181 11.6904 7.60635C11.6863 7.57616 11.6887 7.54545 11.6975 7.51626C11.7062 7.48708 11.7211 7.4601 11.7411 7.43712C11.7611 7.41414 11.7858 7.3957 11.8135 7.38303C11.8412 7.37036 11.8713 7.36374 11.9018 7.36363C11.9345 7.36174 11.9672 7.36174 11.9999 7.36363C12.596 7.36867 13.1816 7.52064 13.7049 7.80607C14.2282 8.0915 14.673 8.50158 14.9999 8.99999C15.258 9.40172 15.4333 9.85097 15.5154 10.3214C15.5672 10.6159 15.5863 10.9186 15.6095 11.2186C15.6141 11.248 15.6125 11.2781 15.6047 11.3068C15.5968 11.3355 15.583 11.3622 15.564 11.3852C15.545 11.4081 15.5214 11.4268 15.4947 11.4399C15.468 11.4531 15.4388 11.4604 15.409 11.4614Z" fill="white"/>
<path d="M14.6714 10.8245C14.6706 10.865 14.6651 10.9053 14.655 10.9445C14.6431 10.984 14.6193 11.0188 14.587 11.0442C14.5546 11.0696 14.5151 11.0845 14.474 11.0867C14.4329 11.089 14.3921 11.0785 14.3571 11.0567C14.3222 11.0349 14.2948 11.0029 14.2787 10.965C14.2636 10.9099 14.2568 10.853 14.2582 10.7959C14.2614 10.4909 14.201 10.1886 14.0809 9.90818C14.0537 9.84818 14.0237 9.78682 13.9896 9.72818C13.7944 9.39174 13.5047 9.12004 13.1564 8.94682C12.9463 8.84761 12.7231 8.77874 12.4937 8.74227C12.3928 8.72591 12.2918 8.71636 12.1909 8.70273C12.1647 8.70141 12.139 8.69472 12.1154 8.68306C12.0918 8.67141 12.0709 8.65504 12.0539 8.63498C12.0369 8.61491 12.0242 8.59157 12.0165 8.5664C12.0089 8.54123 12.0066 8.51476 12.0096 8.48864C12.0096 8.46191 12.0153 8.43549 12.0262 8.41111C12.0371 8.38673 12.0531 8.36494 12.0731 8.34717C12.093 8.3294 12.1165 8.31605 12.142 8.308C12.1675 8.29995 12.1944 8.29738 12.2209 8.30045C12.6213 8.31591 13.0136 8.41827 13.3705 8.60045C13.8063 8.81976 14.1618 9.17098 14.3864 9.60409C14.5129 9.85698 14.5976 10.1287 14.6373 10.4086C14.6447 10.4451 14.6501 10.482 14.6537 10.5191C14.6605 10.6009 14.6632 10.6827 14.67 10.7836C14.67 10.7932 14.6714 10.8055 14.6714 10.8245Z" fill="white"/>
<path d="M13.7371 10.6364C13.7293 10.6709 13.7115 10.7024 13.6857 10.7267C13.6599 10.751 13.6275 10.767 13.5925 10.7727H13.5625C13.5178 10.7756 13.4734 10.7639 13.436 10.7393C13.3986 10.7147 13.3703 10.6785 13.3552 10.6364C13.3468 10.614 13.3413 10.5906 13.3389 10.5668C13.3317 10.475 13.318 10.3839 13.298 10.2941C13.2574 10.1122 13.1541 9.95048 13.0061 9.83726C12.9346 9.7859 12.8548 9.74716 12.7702 9.72272C12.6625 9.69135 12.5493 9.69953 12.443 9.67362C12.3904 9.66431 12.3437 9.63454 12.313 9.59083C12.2823 9.54713 12.2702 9.49305 12.2793 9.44044C12.2895 9.39005 12.3176 9.34508 12.3586 9.31396C12.3995 9.28283 12.4503 9.26769 12.5016 9.27135C13.1261 9.31635 13.5925 9.61635 13.7125 10.2859C13.7249 10.3481 13.7335 10.4109 13.7384 10.4741C13.7461 10.5279 13.7456 10.5826 13.7371 10.6364Z" fill="white"/>
</svg>
