<svg width="24" height="24" viewBox="0 0 24 24" fill="none" xmlns="http://www.w3.org/2000/svg">
<g clip-path="url(#clip0_1649_10827)">
<path d="M10.5856 -3.55628L-3.55642 10.5857C-4.3341 11.3634 -4.3341 12.6366 -3.55642 13.4143L10.5856 27.5563C11.3633 28.334 12.6365 28.334 13.4141 27.5563L27.5561 13.4143C28.3338 12.6366 28.3338 11.3634 27.5561 10.5857L13.4141 -3.55628C12.6365 -4.33396 11.3633 -4.33396 10.5856 -3.55628ZM18.6564 6.34308L18.6566 11.3428L16.6568 11.3426L16.6568 8.75716L8.75702 16.6569L11.3433 16.656L11.3427 18.6567L6.34298 18.6565C5.79061 18.6565 5.34256 18.2084 5.34318 17.6567L5.34318 12.6572L7.34211 12.6565L7.34298 15.2428L15.2428 7.343L12.6565 7.34387L12.6571 5.34324L17.6566 5.34324C18.2083 5.34266 18.6566 5.79091 18.6564 6.34308Z" fill="white"/>
</g>
<defs>
<clipPath id="clip0_1649_10827">
<rect width="24" height="24" rx="12" fill="white"/>
</clipPath>
</defs>
</svg>
