<svg width="24" height="24" viewBox="0 0 24 24" fill="none" xmlns="http://www.w3.org/2000/svg">
<g clip-path="url(#clip0_1651_11214)">
<path d="M21.9999 0H2.0001C0.900293 0 0 0.900293 0 2.0001V21.9999C0 23.0997 0.900293 24 2.0001 24H21.9999C23.0997 24 24 23.0997 24 21.9999V2.0001C24 0.900293 23.0997 0 21.9999 0ZM20.7069 12.7068L17.1717 16.2423L15.7578 14.8281L17.586 12.9999H6.41402L8.24344 14.8281L6.82834 16.2423L3.29314 12.7068C2.90256 12.3162 2.90256 11.6826 3.29314 11.2929L6.82834 7.7577L8.24227 9.17068L6.41408 11.0001H17.5861L15.7567 9.17191L17.1718 7.7577L20.707 11.2929C21.0975 11.6826 21.0975 12.3165 20.7069 12.7068Z" fill="white"/>
</g>
<defs>
<clipPath id="clip0_1651_11214">
<rect width="24" height="24" fill="white"/>
</clipPath>
</defs>
</svg>
