<svg width="24" height="24" viewBox="0 0 24 24" fill="none" xmlns="http://www.w3.org/2000/svg">
<path d="M16.6702 10.87C16.6802 10.75 16.6902 10.63 16.6902 10.5C16.6902 10.37 16.6802 10.25 16.6702 10.13L17.5002 9.52C18.0002 9.15 18.1502 8.46 17.8402 7.92L17.1002 6.6C16.7902 6.04 16.1102 5.82 15.5402 6.09L14.6202 6.52C14.4302 6.39 14.2502 6.28 14.0502 6.18L13.9502 5.11C13.8902 4.48 13.3702 4 12.7402 4H11.2602C10.6302 4 10.1102 4.48 10.0502 5.11L9.95019 6.18C9.75019 6.28 9.57019 6.39 9.38019 6.52L8.46019 6.09C7.89019 5.82 7.21019 6.05 6.90019 6.6L6.16019 7.92C5.85019 8.46 6.00019 9.15 6.50019 9.52L7.33019 10.13C7.32019 10.25 7.31019 10.37 7.31019 10.5C7.31019 10.63 7.32019 10.75 7.33019 10.87L6.50019 11.48C6.00019 11.85 5.85019 12.54 6.16019 13.08L6.90019 14.4C7.21019 14.95 7.89019 15.18 8.46019 14.91L9.38019 14.48C9.57019 14.61 9.75019 14.72 9.95019 14.82L10.0502 15.89C10.1102 16.52 10.6302 17 11.2602 17H12.7402C13.3702 17 13.8902 16.52 13.9502 15.89L14.0502 14.82C14.2502 14.72 14.4302 14.61 14.6202 14.48L15.5402 14.91C16.1102 15.18 16.7902 14.96 17.1002 14.4L17.8402 13.08C18.1502 12.54 18.0002 11.85 17.5002 11.48L16.6702 10.87ZM14.5002 10.5C14.5002 11.88 13.3802 13 12.0002 13C10.6202 13 9.50019 11.88 9.50019 10.5C9.50019 9.12 10.6202 8 12.0002 8C13.3802 8 14.5002 9.12 14.5002 10.5Z" fill="white"/>
<path d="M21 18H3C1.346 18 0 19.346 0 21C0 22.654 1.346 24 3 24H21C22.654 24 24 22.654 24 21C24 19.346 22.654 18 21 18ZM4 22C3.449 22 3 21.551 3 21C3 20.449 3.449 20 4 20C4.551 20 5 20.449 5 21C5 21.551 4.551 22 4 22ZM9 22C8.449 22 8 21.551 8 21C8 20.449 8.449 20 9 20C9.551 20 10 20.449 10 21C10 21.551 9.551 22 9 22ZM15 22C14.449 22 14 21.551 14 21C14 20.449 14.449 20 15 20C15.551 20 16 20.449 16 21C16 21.551 15.551 22 15 22ZM20 22C19.449 22 19 21.551 19 21C19 20.449 19.449 20 20 20C20.551 20 21 20.449 21 21C21 21.551 20.551 22 20 22Z" fill="white"/>
</svg>
