<svg width="24" height="24" viewBox="0 0 24 24" fill="none" xmlns="http://www.w3.org/2000/svg">
<path d="M23.2969 1.40619C22.9086 1.40619 22.5938 1.721 22.5938 2.10931V3.76883C22.5781 3.75805 22.5624 3.74727 22.5467 3.73639C21.9503 3.3253 21.2745 2.85941 20.4727 2.85941C19.738 2.85941 19.1506 3.31016 18.6324 3.70789C18.2751 3.98216 17.9057 4.26566 17.6484 4.26566C17.3912 4.26566 17.0217 3.98211 16.6644 3.70789C16.1462 3.3102 15.5589 2.85941 14.8242 2.85941C14.0895 2.85941 13.5022 3.31016 12.984 3.70789C12.6267 3.98211 12.2572 4.26566 12 4.26566C11.7428 4.26566 11.3733 3.98211 11.016 3.70789C10.4978 3.3102 9.91045 2.85941 9.17578 2.85941C8.44111 2.85941 7.85377 3.31016 7.33556 3.70789C6.97823 3.98216 6.60881 4.26566 6.35156 4.26566C6.09431 4.26566 5.72484 3.98211 5.36752 3.70789C4.84931 3.3102 4.26202 2.85941 3.52734 2.85941C2.72555 2.85941 2.04966 3.3253 1.45331 3.73639C1.43756 3.74727 1.42191 3.758 1.40625 3.76883V2.10931C1.40625 1.721 1.09144 1.40619 0.703125 1.40619C0.314812 1.40619 0 1.721 0 2.10931V21.8907C0 22.279 0.314812 22.5938 0.703125 22.5938H23.2969C23.6852 22.5938 24 22.279 24 21.8907V2.10931C24 1.721 23.6852 1.40619 23.2969 1.40619ZM13.2372 17.2684C13.5118 16.9939 13.957 16.9939 14.2316 17.2684C14.5062 17.543 14.5062 17.9882 14.2316 18.2628L12.5206 19.9737C12.3833 20.111 12.2034 20.1797 12.0235 20.1797C12.0196 20.1797 12.0157 20.1792 12.0118 20.1791C12.0079 20.1792 12.0039 20.1797 12 20.1797C11.8201 20.1797 11.6401 20.111 11.5029 19.9737L9.79195 18.2628C9.51736 17.9882 9.51736 17.543 9.79195 17.2684C10.0665 16.9939 10.5117 16.9939 10.7863 17.2684L11.2969 17.7791V9.47825L10.7862 9.98891C10.6489 10.1262 10.469 10.1949 10.2891 10.1949C10.1092 10.1949 9.92916 10.1262 9.79191 9.98891C9.51731 9.71436 9.51731 9.26914 9.79191 8.99455L11.2969 7.49569L11.5028 7.28361C11.6431 7.14336 11.8279 7.07521 12.0117 7.07825C12.1956 7.07521 12.3803 7.14336 12.5206 7.28361L12.7031 7.49569L14.2315 8.99455C14.5061 9.2691 14.5061 9.71431 14.2315 9.98891C14.0942 10.1262 13.9143 10.1949 13.7344 10.1949C13.5545 10.1949 13.3745 10.1262 13.2372 9.98891L12.7031 9.45481V17.8025L13.2372 17.2684Z" fill="white"/>
<path d="M14.2315 9.98891C14.5061 9.71431 14.5061 9.2691 14.2315 8.99455L12.7031 7.49569V9.45481L13.2372 9.98891C13.3745 10.1262 13.5545 10.1949 13.7344 10.1949C13.9143 10.1949 14.0942 10.1262 14.2315 9.98891Z" fill="white"/>
<path d="M10.7862 9.98891L11.2969 9.47825V7.49569L9.79191 8.99455C9.51731 9.26914 9.51731 9.71436 9.79191 9.98891C9.92916 10.1262 10.1092 10.1949 10.2891 10.1949C10.469 10.1949 10.6489 10.1262 10.7862 9.98891Z" fill="white"/>
</svg>
