<svg width="25" height="24" viewBox="0 0 25 24" fill="none" xmlns="http://www.w3.org/2000/svg">
<path d="M5.59998 9C5.59998 9.91925 5.78104 10.8295 6.13282 11.6788C6.4846 12.5281 7.00022 13.2997 7.65023 13.9497C8.30024 14.5998 9.07191 15.1154 9.92119 15.4672C10.7705 15.8189 11.6807 16 12.6 16C13.5192 16 14.4295 15.8189 15.2788 15.4672C16.128 15.1154 16.8997 14.5998 17.5497 13.9497C18.1997 13.2997 18.7154 12.5281 19.0671 11.6788C19.4189 10.8295 19.6 9.91925 19.6 9C19.6 8.08075 19.4189 7.1705 19.0671 6.32122C18.7154 5.47194 18.1997 4.70026 17.5497 4.05025C16.8997 3.40024 16.128 2.88463 15.2788 2.53284C14.4295 2.18106 13.5192 2 12.6 2C11.6807 2 10.7705 2.18106 9.92119 2.53284C9.07191 2.88463 8.30024 3.40024 7.65023 4.05025C7.00022 4.70026 6.4846 5.47194 6.13282 6.32122C5.78104 7.1705 5.59998 8.08075 5.59998 9Z" stroke="#B3A59E" stroke-width="2"/>
<path d="M7.95109 15L7.31422 17.323C6.68588 19.6148 6.37171 20.7607 6.79095 21.3881C6.93788 21.6079 7.13498 21.7844 7.3637 21.9008C8.01633 22.2331 9.02398 21.7081 11.0393 20.658C11.7099 20.3086 12.0452 20.1339 12.4014 20.0959C12.5335 20.0818 12.6665 20.0818 12.7986 20.0959C13.1548 20.1339 13.4901 20.3086 14.1607 20.658C16.176 21.7081 17.1837 22.2331 17.8363 21.9008C18.065 21.7844 18.2621 21.6079 18.409 21.3881C18.8283 20.7607 18.5141 19.6148 17.8858 17.323L17.2489 15" stroke="#B3A59E" stroke-width="2" stroke-linecap="round"/>
</svg>
