<svg width="12" height="12" viewBox="0 0 12 12" fill="none" xmlns="http://www.w3.org/2000/svg">
<path d="M9.3116 3.84184C9.23167 3.76417 9.11953 3.72887 9.00979 3.74692C8.89985 3.7649 8.8049 3.83392 8.7539 3.93297C8.57849 4.27373 8.3557 4.58687 8.09357 4.86369C8.1197 4.66373 8.13285 4.46256 8.13285 4.26086C8.13285 3.87384 8.08099 3.47556 7.97863 3.07696C7.64212 1.76772 6.7597 0.660507 5.5577 0.0392488C5.45306 -0.0148215 5.32837 -0.0129231 5.22541 0.0443113C5.12245 0.101569 5.05502 0.206546 5.04578 0.323968C4.95208 1.51375 4.33924 2.59619 3.36346 3.29444C3.35055 3.30374 3.33773 3.31316 3.32491 3.32254C3.29835 3.34197 3.27332 3.36034 3.24993 3.37576C3.24628 3.3782 3.24264 3.38069 3.23908 3.38324C2.62539 3.82262 2.11903 4.40833 1.77466 5.07721C1.42474 5.75758 1.24731 6.48768 1.24731 7.24717C1.24731 7.63408 1.29918 8.03235 1.40149 8.43102C1.94137 10.5324 3.8324 12 6.00014 12C8.62071 12 10.7527 9.86786 10.7527 7.24717C10.7527 5.95483 10.2409 4.74545 9.3116 3.84184Z" fill="white"/>
</svg>
