<svg width="36" height="36" viewBox="0 0 36 36" fill="none" xmlns="http://www.w3.org/2000/svg">
<circle cx="18" cy="18" r="18" fill="url(#paint0_linear_6_466)"/>
<g clip-path="url(#clip0_6_466)">
<path d="M21.4615 11.0769H14.5385C12.6 11.0769 11.0769 12.6 11.0769 14.5384V21.4615C11.0769 23.4 12.6 24.9231 14.5385 24.9231H21.4615C23.4 24.9231 24.9231 23.4 24.9231 21.4615V14.5384C24.9231 12.6 23.4 11.0769 21.4615 11.0769ZM23.5385 21.4615C23.5385 22.6384 22.6385 23.5384 21.4615 23.5384H14.5385C13.3615 23.5384 12.4615 22.6384 12.4615 21.4615V14.5384C12.4615 13.3615 13.3615 12.4615 14.5385 12.4615H21.4615C22.6385 12.4615 23.5385 13.3615 23.5385 14.5384V21.4615Z" fill="white"/>
<path d="M18 14.5383C16.0615 14.5383 14.5385 16.0614 14.5385 17.9999C14.5385 19.9383 16.0615 21.4614 18 21.4614C19.9385 21.4614 21.4615 19.9383 21.4615 17.9999C21.4615 16.0614 19.9385 14.5383 18 14.5383ZM18 20.0768C16.8231 20.0768 15.9231 19.1768 15.9231 17.9999C15.9231 16.8229 16.8231 15.9229 18 15.9229C19.1769 15.9229 20.0769 16.8229 20.0769 17.9999C20.0769 19.1768 19.1769 20.0768 18 20.0768Z" fill="white"/>
<path d="M21.4615 15.2308C21.8439 15.2308 22.1538 14.9209 22.1538 14.5385C22.1538 14.1561 21.8439 13.8462 21.4615 13.8462C21.0792 13.8462 20.7692 14.1561 20.7692 14.5385C20.7692 14.9209 21.0792 15.2308 21.4615 15.2308Z" fill="white"/>
</g>
<defs>
<linearGradient id="paint0_linear_6_466" x1="4.15385" y1="32.5385" x2="31.5" y2="5.53846" gradientUnits="userSpaceOnUse">
<stop stop-color="#FFD754"/>
<stop offset="0.336538" stop-color="#FF5A3F"/>
<stop offset="0.697115" stop-color="#F04C5B"/>
<stop offset="1" stop-color="#D03B9C"/>
</linearGradient>
<clipPath id="clip0_6_466">
<rect width="13.8462" height="13.8462" fill="white" transform="translate(11.0769 11.0769)"/>
</clipPath>
</defs>
</svg>
