<svg width="25" height="24" viewBox="0 0 25 24" fill="none" xmlns="http://www.w3.org/2000/svg">
<path d="M12.3287 4.29598C12.367 4.20248 12.4323 4.1225 12.5162 4.06621C12.6001 4.00992 12.6989 3.97986 12.8 3.97986C12.901 3.97986 12.9998 4.00992 13.0837 4.06621C13.1676 4.1225 13.2329 4.20248 13.2712 4.29598L15.197 8.92782C15.233 9.01449 15.2923 9.08954 15.3682 9.1447C15.4442 9.19986 15.5339 9.23301 15.6275 9.24048L20.6281 9.64104C21.0804 9.67729 21.2634 10.2419 20.919 10.5364L17.1092 13.8007C17.038 13.8616 16.9849 13.9409 16.9559 14.03C16.9268 14.119 16.9227 14.2143 16.9442 14.3055L18.1088 19.1857C18.1322 19.2836 18.126 19.3862 18.0911 19.4807C18.0562 19.5751 17.9941 19.657 17.9127 19.7162C17.8312 19.7753 17.7341 19.809 17.6335 19.813C17.5329 19.817 17.4334 19.791 17.3475 19.7385L13.0655 17.1239C12.9855 17.0751 12.8936 17.0493 12.8 17.0493C12.7063 17.0493 12.6144 17.0751 12.5344 17.1239L8.25239 19.7394C8.16653 19.7919 8.06702 19.8179 7.96643 19.8139C7.86584 19.8099 7.76868 19.7763 7.68722 19.7171C7.60577 19.6579 7.54367 19.576 7.50877 19.4816C7.47387 19.3871 7.46773 19.2845 7.49114 19.1866L8.65567 14.3055C8.67727 14.2143 8.6733 14.119 8.6442 14.0299C8.6151 13.9409 8.562 13.8616 8.49073 13.8007L4.68086 10.5364C4.60414 10.471 4.54855 10.3843 4.52114 10.2873C4.49373 10.1903 4.49573 10.0873 4.52688 9.99144C4.55803 9.89556 4.61693 9.81109 4.69613 9.74871C4.77533 9.68633 4.87126 9.64886 4.97177 9.64104L9.97245 9.24048C10.066 9.23301 10.1557 9.19986 10.2317 9.1447C10.3076 9.08954 10.3669 9.01449 10.4029 8.92782L12.3287 4.29598Z" stroke="#B3A59E" stroke-width="2" stroke-linecap="round" stroke-linejoin="round"/>
</svg>
