<svg width="16" height="16" viewBox="0 0 16 16" fill="none" xmlns="http://www.w3.org/2000/svg">
<g clip-path="url(#clip0_9_13)">
<path d="M15.4367 9.26202C15.914 5.24402 15.2073 2.70735 13.9327 1.56002L13.9333 1.55935C11.876 -0.399984 4.92799 -0.689984 2.46666 1.64735C1.36133 2.79068 0.971992 4.46868 0.929325 6.54602C0.886659 8.62402 0.835992 12.5167 4.46333 13.5727H4.46666L4.46333 15.1854C4.46333 15.1854 4.43866 15.8387 4.85599 15.97C5.33333 16.1247 5.54932 15.8214 7.03399 14.048C9.51666 14.2634 11.4233 13.77 11.64 13.698C12.1413 13.53 14.978 13.1547 15.4367 9.26202ZM7.27866 12.9134C7.27866 12.9134 5.70733 14.8727 5.21866 15.3814C5.05866 15.5467 4.88333 15.5314 4.88599 15.2034C4.88599 14.988 4.89799 12.526 4.89799 12.526C1.82266 11.6447 2.00399 8.33002 2.03733 6.59602C2.07066 4.86135 2.38799 3.44068 3.32399 2.48402C5.48333 0.45935 11.5747 0.912016 13.1267 2.37068C15.024 4.05268 14.3487 8.80468 14.3527 8.96668C13.9627 12.216 11.664 12.422 11.2413 12.5627C11.0607 12.6227 9.38399 13.054 7.27866 12.9134Z" fill="#7459F7"/>
<path d="M8.14801 2.86475C7.89134 2.86475 7.89134 3.26475 8.14801 3.26808C10.1393 3.28341 11.7793 4.67141 11.7973 7.21741C11.7973 7.48608 12.1907 7.48275 12.1873 7.21408C12.166 4.47075 10.3747 2.88008 8.14801 2.86475Z" fill="#7459F7"/>
<path d="M10.7673 6.79536C10.7613 7.06069 11.154 7.07336 11.1573 6.80469C11.19 5.29202 10.2573 4.04602 8.50467 3.91469C8.248 3.89602 8.22133 4.29936 8.47733 4.31802C9.99733 4.43336 10.798 5.47069 10.7673 6.79536Z" fill="#7459F7"/>
<path d="M10.3473 8.51591C10.018 8.32524 9.68268 8.44391 9.54401 8.63124L9.25401 9.00657C9.10668 9.19724 8.83134 9.17191 8.83134 9.17191C6.82201 8.64057 6.28468 6.53791 6.28468 6.53791C6.28468 6.53791 6.26001 6.25324 6.44401 6.10057L6.80668 5.80057C6.98801 5.65657 7.10268 5.30991 6.91801 4.96924C6.42468 4.07791 6.09334 3.77057 5.92468 3.53457C5.74734 3.31257 5.48068 3.26257 5.20334 3.41257H5.19734C4.62068 3.74991 3.98934 4.38124 4.19134 5.03124C4.53601 5.71657 5.16934 7.90124 7.18801 9.55191C8.13668 10.3326 9.63801 11.1326 10.2753 11.3172L10.2813 11.3266C10.9093 11.5359 11.52 10.8799 11.846 10.2859V10.2812C11.9907 9.99391 11.9427 9.72191 11.7313 9.54391C11.3567 9.17857 10.7913 8.77524 10.3473 8.51591Z" fill="#7459F7"/>
<path d="M8.77934 5.40278C9.42 5.44012 9.73067 5.77478 9.764 6.46212C9.776 6.73078 10.166 6.71212 10.154 6.44345C10.1113 5.54612 9.64334 5.04612 8.80067 4.99945C8.544 4.98412 8.52 5.38745 8.77934 5.40278Z" fill="#7459F7"/>
</g>
<defs>
<clipPath id="clip0_9_13">
<rect width="16" height="16" fill="white"/>
</clipPath>
</defs>
</svg>
