<svg width="22" height="21" viewBox="0 0 22 21" fill="none" xmlns="http://www.w3.org/2000/svg">
<path d="M21.1765 10.1424C21.1765 9.05533 19.9624 8.18004 19.6447 7.19886C19.3129 6.18945 19.7718 4.76355 19.1577 3.91649C18.5365 3.0624 17.0329 3.0624 16.1859 2.44122C15.3388 1.8271 14.8729 0.401206 13.8635 0.0694186C12.8824 -0.248194 11.6753 0.627093 10.5882 0.627093C9.50826 0.627093 8.29412 -0.248194 7.31293 0.0694186C6.30352 0.401206 5.83766 1.8271 4.99766 2.44122C4.14353 3.0624 2.63999 3.0624 2.02588 3.91649C1.41176 4.76355 1.86354 6.18238 1.53882 7.19886C1.22116 8.18004 0 9.05533 0 10.1424C0 11.2294 1.22116 12.1047 1.53882 13.0859C1.86354 14.0953 1.41176 15.5212 2.02588 16.3683C2.63999 17.2153 4.14353 17.2224 4.99766 17.8435C5.83766 18.4577 6.30352 19.8835 7.31293 20.2153C8.29412 20.533 9.50826 19.6577 10.5882 19.6577C11.6753 19.6577 12.8824 20.533 13.8635 20.2153C14.8729 19.8835 15.3388 18.4577 16.1859 17.8435C17.0329 17.2224 18.5365 17.2153 19.1577 16.3683C19.7718 15.5212 19.3129 14.0953 19.6447 13.0859C19.9624 12.1047 21.1765 11.2294 21.1765 10.1424ZM15.3953 9.05533L13.2706 11.1306L13.7718 14.06C13.8283 14.3706 13.4965 14.6036 13.2141 14.4624L10.5882 13.0788L7.96237 14.4624C7.68 14.6036 7.35528 14.3706 7.4047 14.06L7.90589 11.1306L5.78118 9.05533C5.55529 8.83651 5.68234 8.44824 5.99293 8.40589L8.92943 7.98238L10.2494 5.31412C10.3835 5.03179 10.7929 5.03179 10.9341 5.31412L12.247 7.98238L15.1835 8.40589C15.4941 8.44824 15.6212 8.83651 15.3953 9.05533Z" fill="white"/>
</svg>
