<svg width="24" height="22" viewBox="0 0 24 22" fill="none" xmlns="http://www.w3.org/2000/svg">
<path d="M7.93341 12.4573C6.11604 13.3636 4.38278 14.2253 2.18741 14.8642V10.6078C2.18741 10.2765 2.35141 9.96682 2.62529 9.78055L4.26478 8.66572C4.40482 8.57051 4.65796 8.49259 4.82729 8.49259H7.45941V6.94224H10.4211V8.49259H12.6905C13.0589 8.49259 13.3574 8.79118 13.3574 9.15949V10.0811C11.2711 10.7935 9.58953 11.6315 7.93341 12.4573ZM7.45941 5.41129V6.21577H10.4211V5.41129C10.4211 4.99914 10.087 4.66506 9.67486 4.66506H8.20557C7.79349 4.66506 7.45941 4.99914 7.45941 5.41129ZM5.73929 3.06576C5.95239 3.06576 6.15514 3.02192 6.33957 2.94333C6.54882 3.23318 6.88741 3.42365 7.2722 3.42365C7.39776 3.42365 7.51643 3.39855 7.62957 3.36141C7.62776 3.38227 7.62329 3.40235 7.62329 3.42365C7.62329 3.8182 7.9431 4.13796 8.33761 4.13796C8.73212 4.13796 9.05192 3.81816 9.05192 3.42365C9.05192 3.02914 8.73212 2.70933 8.33761 2.70933C8.33745 2.70933 8.33729 2.70937 8.33714 2.70937C8.39278 2.5742 8.42443 2.42659 8.42443 2.27137C8.42443 1.63498 7.90855 1.11906 7.27216 1.11906C7.25098 1.11906 7.23125 1.12416 7.21039 1.12529C7.03098 0.477922 6.44376 0 5.73929 0C4.89271 0 4.20643 0.686274 4.20643 1.53286C4.20643 2.37945 4.89271 3.06576 5.73929 3.06576ZM20.7433 18.0697C20.5951 18.2953 20.5911 18.5856 20.7409 18.8101L21.6242 20.1341C21.9471 20.6168 21.5713 21.2592 20.9923 21.2144L1.34976 19.6713C0.815412 19.6293 0.368745 19.2536 0.232549 18.7351C0.113451 18.2816 0 17.7188 0 17.2202C0 16.1948 0.412196 16.0035 1.25533 15.8023C8.79506 14.0032 10.8689 9.66655 23.4494 8.95659C23.7762 8.93816 24.039 9.22365 23.9952 9.548C23.6224 12.3097 22.3056 15.6907 20.7433 18.0697ZM19.7833 14.8285C19.7833 14.6442 19.6341 14.495 19.4498 14.495C19.2655 14.495 19.1164 14.6442 19.1164 14.8285C19.1164 15.3435 18.7726 15.775 18.3042 15.9188V13.6199C18.5549 13.4956 18.7287 13.2396 18.7287 12.9409C18.7287 12.521 18.3884 12.1806 17.9685 12.1806C17.5486 12.1806 17.2082 12.521 17.2082 12.9409C17.2082 13.2414 17.3841 13.4988 17.6372 13.6222V15.9188C17.1687 15.775 16.825 15.3435 16.825 14.8285C16.825 14.6442 16.6758 14.495 16.4915 14.495C16.3072 14.495 16.158 14.6442 16.158 14.8285C16.158 15.8279 16.9711 16.6411 17.9706 16.6411C18.9701 16.6411 19.7833 15.8279 19.7833 14.8285Z" fill="white"/>
</svg>
