<svg width="24" height="24" viewBox="0 0 24 24" fill="none" xmlns="http://www.w3.org/2000/svg">
<g clip-path="url(#clip0_1560_53)">
<path d="M3.2583 15.5909L0.527832 18.3215L6.20627 23.9999L8.93679 21.2694L3.2583 15.5909ZM6.71585 22.4257C6.35861 22.4257 6.06902 22.1361 6.06902 21.7789C6.06897 21.4217 6.35857 21.1321 6.71585 21.1321C7.07308 21.1321 7.36268 21.4217 7.36268 21.7789C7.36268 22.1361 7.07304 22.4257 6.71585 22.4257Z" fill="white"/>
<path d="M22.9255 9.39901C22.2457 8.76592 21.1756 8.81462 20.5187 9.47143L16.7186 13.2715L16.7109 13.2726C16.8686 13.0274 16.9649 12.74 16.976 12.4293C17.0106 11.4547 16.2308 10.6537 15.264 10.6537H11.1641C9.99451 10.6537 8.87284 11.1183 8.04577 11.9454L4.86816 15.123L8.66265 18.9175L9.33741 18.2427H14.7662C15.9358 18.2427 17.0575 17.7781 17.8846 16.951L22.9704 11.8651C23.6541 11.1814 23.6392 10.0637 22.9255 9.39901Z" fill="white"/>
<path d="M22.6414 4.52555C22.4516 3.67195 21.6057 3.13383 20.7521 3.32362C20.5799 3.36192 20.4205 3.42689 20.2774 3.51333C19.9609 3.70439 19.6243 3.85922 19.2706 3.96244L18.3897 0L14.4273 0.880922C14.5305 1.23459 14.6853 1.57125 14.8764 1.88775C14.9628 2.03086 15.0278 2.19023 15.066 2.36245C15.2558 3.21605 14.7177 4.06191 13.8641 4.2517C13.0104 4.4415 12.1513 3.88791 11.971 3.03216C11.9368 2.87011 11.9288 2.70858 11.9442 2.55192C11.9806 2.18006 11.9777 1.80581 11.9233 1.43756L7.9633 2.31797L8.84371 6.27802C8.47546 6.33239 8.10121 6.3352 7.72935 6.29887C7.57269 6.28359 7.41111 6.29156 7.24911 6.32564C6.39336 6.50592 5.83977 7.36514 6.02957 8.21878C6.21936 9.07242 7.06522 9.61055 7.91882 9.42075C8.09103 9.38245 8.25041 9.31748 8.39352 9.23109C8.71007 9.04003 9.04668 8.8852 9.40035 8.78198L9.54322 9.42459C10.0688 9.27314 10.6116 9.19626 11.1641 9.19626H13.8098C14.027 8.85056 14.3768 8.58834 14.8068 8.49267C15.5908 8.3183 16.379 8.7713 16.6422 9.50916C16.9749 9.66998 17.2803 9.89039 17.5454 10.1652C17.5813 10.2023 17.6162 10.2402 17.65 10.2787L19.4879 8.44073C19.6868 8.24184 19.9114 8.07159 20.153 7.93186L19.8271 6.46622C20.1954 6.41184 20.5696 6.40903 20.9415 6.44536C21.0981 6.46064 21.2597 6.45267 21.4217 6.41859C22.2776 6.23841 22.8312 5.37919 22.6414 4.52555Z" fill="white"/>
</g>
<defs>
<clipPath id="clip0_1560_53">
<rect width="24" height="24" fill="white"/>
</clipPath>
</defs>
</svg>
